<svg width="445" height="193" viewBox="0 0 445 193" fill="none" xmlns="http://www.w3.org/2000/svg">
<path fill-rule="evenodd" clip-rule="evenodd" d="M235.664 176C264.19 176 289.537 162.348 305.562 141.203C307.815 138.23 307.391 134.207 306.974 130.253C306.811 128.705 306.649 127.167 306.649 125.707C306.649 120.404 310.935 116.105 316.223 116.105H318.838H331.426C336.713 116.105 341 111.806 341 106.503C341 101.2 336.713 96.9005 331.426 96.9005C326.896 96.9005 323.384 92.9841 323.407 88.4544C323.408 88.303 323.408 88.1515 323.408 88C323.408 39.3989 284.124 0 235.664 0C203.393 0 175.191 17.4726 159.95 43.4997C155.795 50.5952 148.593 55.7485 140.371 55.7485H138.574C133.287 55.7485 129 60.0475 129 65.3506C129 70.6538 133.287 74.9528 138.574 74.9528H148.878H156.197C161.485 74.9528 165.771 79.2518 165.771 84.5549C165.771 89.858 161.485 94.1571 156.197 94.1571C151.883 94.1571 148.497 97.8991 149.312 102.136C152.457 118.468 159.273 131.02 161.666 135.309C177.25 159.777 204.568 176 235.664 176ZM130.58 12.2948C130.58 16.8622 126.874 20.5648 122.302 20.5648C117.73 20.5648 114.023 16.8622 114.023 12.2948C114.023 7.72748 117.73 4.0249 122.302 4.0249C126.874 4.0249 130.58 7.72748 130.58 12.2948ZM355.5 166C364.06 166 371 159.06 371 150.5C371 141.94 364.06 135 355.5 135C346.94 135 340 141.94 340 150.5C340 159.06 346.94 166 355.5 166Z" fill="url(#paint0_linear)"/>
<g filter="url(#filter0_d)">
<rect x="20" y="48.8923" width="232.055" height="103.918" rx="20" fill="white"/>
</g>
<path d="M67.7822 89.7766C69.1742 90.3046 69.8702 91.2646 69.8702 92.6566C69.8702 93.6646 69.4782 94.5126 68.6942 95.2006C67.9422 95.8886 66.8382 96.2326 65.3822 96.2326C62.9502 96.2326 61.3662 95.2726 60.6302 93.3526L61.9742 92.5606C62.4862 93.9846 63.6222 94.6966 65.3822 94.6966C66.2942 94.6966 67.0062 94.5046 67.5182 94.1206C68.0302 93.7206 68.2862 93.2006 68.2862 92.5606C68.2862 91.9846 68.0782 91.5286 67.6622 91.1926C67.2462 90.8406 66.6862 90.6646 65.9822 90.6646H64.2302V89.1286H65.5022C66.1902 89.1286 66.7262 88.9606 67.1102 88.6246C67.5102 88.2726 67.7102 87.7926 67.7102 87.1846C67.7102 86.6086 67.4702 86.1366 66.9902 85.7686C66.5262 85.3846 65.9102 85.1926 65.1422 85.1926C63.6542 85.1926 62.6542 85.7926 62.1422 86.9926L60.8222 86.2246C61.6222 84.5126 63.0622 83.6566 65.1422 83.6566C66.4222 83.6566 67.4302 83.9926 68.1662 84.6646C68.9182 85.3206 69.2942 86.1286 69.2942 87.0886C69.2942 88.3206 68.7902 89.2166 67.7822 89.7766ZM82.5977 86.2966V83.9446H84.1817V95.9446H82.5977V93.5926C81.4937 95.3526 79.8777 96.2326 77.7497 96.2326C76.0377 96.2326 74.5737 95.6246 73.3577 94.4086C72.1577 93.1926 71.5577 91.7046 71.5577 89.9446C71.5577 88.1846 72.1577 86.6966 73.3577 85.4806C74.5737 84.2646 76.0377 83.6566 77.7497 83.6566C79.8777 83.6566 81.4937 84.5366 82.5977 86.2966ZM74.5097 93.3286C75.4217 94.2406 76.5417 94.6966 77.8697 94.6966C79.1977 94.6966 80.3177 94.2406 81.2297 93.3286C82.1417 92.3846 82.5977 91.2566 82.5977 89.9446C82.5977 88.6166 82.1417 87.4966 81.2297 86.5846C80.3177 85.6566 79.1977 85.1926 77.8697 85.1926C76.5417 85.1926 75.4217 85.6566 74.5097 86.5846C73.5977 87.4966 73.1417 88.6166 73.1417 89.9446C73.1417 91.2566 73.5977 92.3846 74.5097 93.3286ZM110.359 92.8486C108.679 95.2246 106.291 96.4126 103.195 96.4126C100.099 96.4126 97.7115 95.2246 96.0315 92.8486C94.3275 90.4486 93.4755 87.2806 93.4755 83.3446C93.4755 79.4086 94.3275 76.2406 96.0315 73.8406C97.7115 71.4646 100.099 70.2766 103.195 70.2766C106.291 70.2766 108.679 71.4646 110.359 73.8406C112.063 76.2406 112.915 79.4086 112.915 83.3446C112.915 87.2806 112.063 90.4486 110.359 92.8486ZM96.8235 83.3446C96.8235 86.4646 97.3755 88.8766 98.4795 90.5806C99.5835 92.2846 101.155 93.1366 103.195 93.1366C105.235 93.1366 106.807 92.2846 107.911 90.5806C109.039 88.8766 109.603 86.4646 109.603 83.3446C109.603 80.2246 109.039 77.8126 107.911 76.1086C106.807 74.3806 105.235 73.5166 103.195 73.5166C101.155 73.5166 99.5835 74.3686 98.4795 76.0726C97.3755 77.7766 96.8235 80.2006 96.8235 83.3446ZM116.897 92.2366H120.497L118.157 100.985H115.457L116.897 92.2366ZM137.235 82.9126C139.851 84.2566 141.159 86.2966 141.159 89.0326C141.159 91.3366 140.355 93.1486 138.747 94.4686C137.115 95.7646 135.039 96.4126 132.519 96.4126C129.999 96.4126 127.935 95.7646 126.327 94.4686C124.719 93.1486 123.915 91.3366 123.915 89.0326C123.915 86.2966 125.223 84.2566 127.839 82.9126C125.775 81.6166 124.743 79.7806 124.743 77.4046C124.743 75.1246 125.499 73.3726 127.011 72.1486C128.547 70.9006 130.383 70.2766 132.519 70.2766C134.703 70.2766 136.539 70.9006 138.027 72.1486C139.563 73.3726 140.331 75.1246 140.331 77.4046C140.331 79.7806 139.299 81.6166 137.235 82.9126ZM132.519 73.4806C131.199 73.4806 130.119 73.8286 129.279 74.5246C128.463 75.2206 128.055 76.2046 128.055 77.4766C128.055 78.7246 128.475 79.7086 129.315 80.4286C130.155 81.1486 131.223 81.5086 132.519 81.5086C133.815 81.5086 134.883 81.1486 135.723 80.4286C136.563 79.7086 136.983 78.7246 136.983 77.4766C136.983 76.2046 136.575 75.2206 135.759 74.5246C134.943 73.8286 133.863 73.4806 132.519 73.4806ZM132.519 93.2086C134.151 93.2086 135.447 92.8246 136.407 92.0566C137.367 91.2886 137.847 90.2086 137.847 88.8166C137.847 87.4486 137.367 86.3806 136.407 85.6126C135.447 84.8446 134.151 84.4606 132.519 84.4606C130.911 84.4606 129.627 84.8446 128.667 85.6126C127.707 86.3806 127.227 87.4486 127.227 88.8166C127.227 90.2086 127.707 91.2886 128.667 92.0566C129.627 92.8246 130.911 93.2086 132.519 93.2086ZM149.481 81.4366C147.849 81.4366 146.493 80.8966 145.413 79.8166C144.333 78.7366 143.793 77.4166 143.793 75.8566C143.793 74.3206 144.333 73.0126 145.413 71.9326C146.517 70.8286 147.873 70.2766 149.481 70.2766C151.113 70.2766 152.469 70.8166 153.549 71.8966C154.629 72.9766 155.169 74.2966 155.169 75.8566C155.169 77.4166 154.629 78.7366 153.549 79.8166C152.493 80.8966 151.137 81.4366 149.481 81.4366ZM146.601 75.8566C146.601 76.6966 146.865 77.4046 147.393 77.9806C147.945 78.5326 148.641 78.8086 149.481 78.8086C150.321 78.8086 151.005 78.5206 151.533 77.9446C152.085 77.3686 152.361 76.6726 152.361 75.8566C152.361 75.0406 152.085 74.3566 151.533 73.8046C151.005 73.2286 150.321 72.9406 149.481 72.9406C148.641 72.9406 147.945 73.2286 147.393 73.8046C146.865 74.3566 146.601 75.0406 146.601 75.8566ZM147.213 93.3886L145.485 92.3806L162.225 73.6606L163.989 74.6326L147.213 93.3886ZM166.041 90.7966C166.041 92.3566 165.501 93.6766 164.421 94.7566C163.341 95.8366 161.985 96.3766 160.353 96.3766C158.721 96.3766 157.365 95.8366 156.285 94.7566C155.205 93.6766 154.665 92.3566 154.665 90.7966C154.665 89.2366 155.205 87.9166 156.285 86.8366C157.365 85.7566 158.721 85.2166 160.353 85.2166C161.985 85.2166 163.341 85.7566 164.421 86.8366C165.501 87.9166 166.041 89.2366 166.041 90.7966ZM158.265 92.8846C158.817 93.4366 159.513 93.7126 160.353 93.7126C161.169 93.7126 161.853 93.4366 162.405 92.8846C162.957 92.3086 163.233 91.6126 163.233 90.7966C163.233 89.9806 162.957 89.2966 162.405 88.7446C161.877 88.1686 161.193 87.8806 160.353 87.8806C159.513 87.8806 158.817 88.1686 158.265 88.7446C157.737 89.2966 157.473 89.9806 157.473 90.7966C157.473 91.6126 157.737 92.3086 158.265 92.8846Z" fill="#F65E64"/>
<path d="M60.9582 116.742C59.3262 116.742 57.9982 117.542 57.3742 118.79L58.0782 119.19C58.5582 118.166 59.6142 117.51 60.9582 117.51C62.8142 117.51 64.0142 118.822 64.1742 120.534H60.0302V121.302H64.1742C64.0142 123.014 62.7982 124.326 60.9422 124.326C59.4862 124.326 58.4462 123.638 58.0302 122.63L57.3422 123.046C57.9022 124.294 59.2142 125.094 60.9422 125.094C63.4062 125.094 65.0062 123.286 65.0062 120.918C65.0062 118.55 63.4222 116.742 60.9582 116.742ZM73.0514 124.918L68.5874 120.758L72.8914 116.918H71.7714L67.7234 120.55V116.918H66.9234V124.918H67.7234V120.982L71.9634 124.918H73.0514ZM79.5858 120.79C80.2738 120.454 80.6098 119.798 80.6098 119.014C80.6098 117.846 79.7938 116.918 78.2258 116.918H74.6578V124.918H78.5298C80.1938 124.918 80.9938 123.926 80.9938 122.71C80.9938 121.798 80.5138 121.094 79.5858 120.79ZM78.2258 117.702C79.2338 117.702 79.7938 118.214 79.7938 119.062C79.7938 119.958 79.2498 120.47 78.2258 120.47H75.4578V117.702H78.2258ZM78.5298 124.134H75.4578V121.254H78.5298C79.5858 121.254 80.1938 121.798 80.1938 122.678C80.1938 123.59 79.6018 124.134 78.5298 124.134ZM89.8072 116.918V118.726C89.1352 117.526 87.9032 116.742 86.3672 116.742C84.0952 116.742 82.2232 118.55 82.2232 120.918C82.2232 123.286 84.0952 125.094 86.3672 125.094C87.9032 125.094 89.1352 124.31 89.8072 123.11V124.918H90.6232V116.918H89.8072ZM86.4312 124.326C84.5272 124.326 83.0392 122.822 83.0392 120.918C83.0392 119.014 84.5272 117.51 86.4312 117.51C88.3352 117.51 89.8072 119.014 89.8072 120.918C89.8072 122.822 88.3352 124.326 86.4312 124.326ZM94.3437 115.526H98.3917V114.822H94.3437V115.526ZM98.9837 116.918L93.8797 123.526V116.918H93.0797V124.918H93.7837L98.8717 118.31V124.918H99.6877V116.918H98.9837ZM106.398 116.742C104.846 116.742 103.614 117.542 102.958 118.774V116.918H102.158V128.118H102.958V123.062C103.614 124.294 104.846 125.094 106.398 125.094C108.686 125.094 110.542 123.286 110.542 120.918C110.542 118.55 108.686 116.742 106.398 116.742ZM106.35 124.326C104.446 124.326 102.958 122.822 102.958 120.918C102.958 119.014 104.446 117.51 106.35 117.51C108.254 117.51 109.742 119.014 109.742 120.918C109.742 122.822 108.254 124.326 106.35 124.326ZM118.374 116.918L113.27 123.526V116.918H112.47V124.918H113.174L118.262 118.31V124.918H119.078V116.918H118.374ZM127.34 116.918V120.534H122.348V116.918H121.548V124.918H122.348V121.302H127.34V124.918H128.156V116.918H127.34ZM135.635 116.918H130.627V124.918H131.427V117.702H135.635V116.918ZM147.122 116.918V120.534H142.13V116.918H141.33V124.918H142.13V121.302H147.122V124.918H147.938V116.918H147.122ZM157.448 116.918V118.726C156.776 117.526 155.544 116.742 154.008 116.742C151.736 116.742 149.864 118.55 149.864 120.918C149.864 123.286 151.736 125.094 154.008 125.094C155.544 125.094 156.776 124.31 157.448 123.11V124.918H158.264V116.918H157.448ZM154.072 124.326C152.168 124.326 150.68 122.822 150.68 120.918C150.68 119.014 152.168 117.51 154.072 117.51C155.976 117.51 157.448 119.014 157.448 120.918C157.448 122.822 155.976 124.326 154.072 124.326ZM165.648 120.79C166.336 120.454 166.672 119.798 166.672 119.014C166.672 117.846 165.856 116.918 164.288 116.918H160.72V124.918H164.592C166.256 124.918 167.056 123.926 167.056 122.71C167.056 121.798 166.576 121.094 165.648 120.79ZM164.288 117.702C165.296 117.702 165.856 118.214 165.856 119.062C165.856 119.958 165.312 120.47 164.288 120.47H161.52V117.702H164.288ZM164.592 124.134H161.52V121.254H164.592C165.648 121.254 166.256 121.798 166.256 122.678C166.256 123.59 165.664 124.134 164.592 124.134ZM172.494 125.094C174.062 125.094 175.406 124.294 176.046 123.062L175.374 122.662C174.846 123.654 173.79 124.326 172.494 124.326C170.558 124.326 169.102 122.822 169.102 120.918C169.102 119.014 170.558 117.51 172.494 117.51C173.774 117.51 174.862 118.166 175.326 119.174L175.982 118.79C175.406 117.542 174.062 116.742 172.494 116.742C170.078 116.742 168.286 118.55 168.286 120.918C168.286 123.286 170.078 125.094 172.494 125.094ZM181.32 116.742C178.872 116.742 177.176 118.566 177.176 120.918C177.176 123.334 178.92 125.094 181.384 125.094C182.968 125.094 184.216 124.374 184.872 123.286L184.168 122.87C183.704 123.718 182.712 124.326 181.4 124.326C179.576 124.326 178.2 123.142 178.008 121.334H185.256C185.256 121.206 185.272 121.078 185.272 120.95C185.272 118.758 183.752 116.742 181.32 116.742ZM181.32 117.51C182.888 117.51 184.264 118.598 184.44 120.55H178.008C178.168 118.774 179.496 117.51 181.32 117.51ZM192.15 116.918H187.142V124.918H187.942V117.702H192.15V116.918ZM199.655 124.134V116.918H194.039V120.918C194.039 122.502 193.719 123.366 193.159 124.134H192.231V127.062H193.047V124.918H199.959V127.062H200.775V124.134H199.655ZM194.151 124.134C194.599 123.318 194.839 122.342 194.839 120.918V117.702H198.839V124.134H194.151ZM209.26 116.918V118.726C208.588 117.526 207.356 116.742 205.82 116.742C203.548 116.742 201.676 118.55 201.676 120.918C201.676 123.286 203.548 125.094 205.82 125.094C207.356 125.094 208.588 124.31 209.26 123.11V124.918H210.076V116.918H209.26ZM205.884 124.326C203.98 124.326 202.492 122.822 202.492 120.918C202.492 119.014 203.98 117.51 205.884 117.51C207.788 117.51 209.26 119.014 209.26 120.918C209.26 122.822 207.788 124.326 205.884 124.326Z" fill="black"/>
<path d="M425.137 58.3768C419.777 58.3768 417.097 54.6988 414.733 51.6337C412.526 48.6913 410.634 46.1166 407.008 46.1166C403.382 46.1166 401.491 48.6913 399.284 51.6337C396.919 54.6988 394.239 58.3768 388.879 58.3768C383.362 58.3768 380.839 54.6988 378.475 51.6337C376.268 48.6913 374.376 46.1166 370.75 46.1166C367.124 46.1166 365.233 48.6913 363.026 51.6337C360.661 54.6988 357.981 58.3768 352.464 58.3768C347.104 58.3768 344.424 54.8214 342.059 51.6337C339.852 48.5687 337.96 45.994 334.334 45.994C330.709 45.994 328.817 48.5687 326.61 51.5111C324.245 54.6988 321.565 58.3768 316.205 58.3768C310.846 58.3768 308.166 54.6988 305.801 51.6337C303.594 48.5687 301.702 45.994 298.076 45.994C297.288 45.994 296.5 45.5036 296.5 44.768C296.5 44.0324 297.131 43.542 298.076 43.542C303.436 43.542 306.116 47.0974 308.481 50.2851C310.688 53.3501 312.58 55.9248 316.205 55.9248C319.831 55.9248 321.723 53.3501 323.93 50.4077C326.295 47.22 328.975 43.6646 334.334 43.6646C339.694 43.6646 342.374 47.22 344.739 50.4077C346.946 53.3501 348.838 55.9248 352.464 55.9248C356.089 55.9248 357.981 53.3501 360.188 50.4077C362.553 47.22 365.233 43.6646 370.75 43.6646C376.11 43.6646 378.79 47.22 381.155 50.4077C383.362 53.3501 385.253 55.9248 388.879 55.9248C392.505 55.9248 394.397 53.3501 396.604 50.4077C398.968 47.22 401.648 43.6646 407.008 43.6646C412.368 43.6646 415.048 47.22 417.413 50.4077C419.62 53.3501 421.511 55.9248 425.137 55.9248C428.763 55.9248 430.655 53.3501 432.862 50.4077C435.226 47.22 437.906 43.6646 443.424 43.6646C444.212 43.6646 445 44.155 445 44.8906C445 45.6262 444.37 46.1166 443.424 46.1166C439.798 46.1166 437.906 48.6913 435.699 51.6337C433.177 54.6988 430.655 58.3768 425.137 58.3768Z" fill="#ACCE23"/>
<defs>
<filter id="filter0_d" x="0" y="28.8923" width="292.055" height="163.918" filterUnits="userSpaceOnUse" color-interpolation-filters="sRGB">
<feFlood flood-opacity="0" result="BackgroundImageFix"/>
<feColorMatrix in="SourceAlpha" type="matrix" values="0 0 0 0 0 0 0 0 0 0 0 0 0 0 0 0 0 0 127 0"/>
<feOffset dx="10" dy="10"/>
<feGaussianBlur stdDeviation="15"/>
<feColorMatrix type="matrix" values="0 0 0 0 0 0 0 0 0 0 0 0 0 0 0 0 0 0 0.1 0"/>
<feBlend mode="normal" in2="BackgroundImageFix" result="effect1_dropShadow"/>
<feBlend mode="normal" in="SourceGraphic" in2="effect1_dropShadow" result="shape"/>
</filter>
<linearGradient id="paint0_linear" x1="303.639" y1="293.177" x2="125.622" y2="221.815" gradientUnits="userSpaceOnUse">
<stop stop-color="#FD9B5C"/>
<stop offset="1" stop-color="#EB5760"/>
</linearGradient>
</defs>
</svg>
