<svg width="85" height="85" viewBox="0 0 85 85" fill="none" xmlns="http://www.w3.org/2000/svg">
<path d="M84.1982 42.8027C84.1982 65.7225 65.6181 84.3027 42.6982 84.3027C19.7784 84.3027 1.19824 65.7225 1.19824 42.8027C1.19824 19.8829 19.7784 1.30273 42.6982 1.30273C65.6181 1.30273 84.1982 19.8829 84.1982 42.8027Z" stroke="#E6E8E0"/>
<path d="M60.8965 24.8105L23.5 62.207" stroke="#F65E64" stroke-width="2" stroke-miterlimit="10" stroke-linecap="round" stroke-linejoin="round"/>
<path d="M54.1265 62.2071C57.8655 62.2071 60.8966 59.176 60.8966 55.437C60.8966 51.698 57.8655 48.667 54.1265 48.667C50.3875 48.667 47.3564 51.698 47.3564 55.437C47.3564 59.176 50.3875 62.2071 54.1265 62.2071Z" stroke="#F65E64" stroke-width="2" stroke-miterlimit="10" stroke-linecap="round" stroke-linejoin="round"/>
<path d="M30.2701 38.3507C34.009 38.3507 37.0401 35.3196 37.0401 31.5806C37.0401 27.8416 34.009 24.8105 30.2701 24.8105C26.5311 24.8105 23.5 27.8416 23.5 31.5806C23.5 35.3196 26.5311 38.3507 30.2701 38.3507Z" stroke="#F65E64" stroke-width="2" stroke-miterlimit="10" stroke-linecap="round" stroke-linejoin="round"/>
</svg>
