<svg width="85" height="85" viewBox="0 0 85 85" fill="none" xmlns="http://www.w3.org/2000/svg">
<path d="M83.5654 42.8027C83.5654 65.7225 64.9852 84.3027 42.0654 84.3027C19.1456 84.3027 0.56543 65.7225 0.56543 42.8027C0.56543 19.8829 19.1456 1.30273 42.0654 1.30273C64.9852 1.30273 83.5654 19.8829 83.5654 42.8027Z" stroke="#E6E8E0"/>
<path fill-rule="evenodd" clip-rule="evenodd" d="M21.8721 48.3761C21.8721 48.7824 22.2712 49.1074 22.6702 49.1074C22.6702 49.1074 22.6702 49.1074 22.7501 49.1074C37.117 48.2139 49.4883 40.9819 59.5451 27.5745L60.5827 26.1116L61.1414 29.4434C61.2213 29.8498 61.6203 30.175 62.0992 30.0934C62.4982 30.0123 62.8176 29.6062 62.7378 29.1185L61.8596 23.8366C61.7801 23.4302 61.3808 23.105 60.9019 23.1864L55.7139 24.0804C55.3146 24.1615 55.0753 24.4865 55.0753 24.8929C55.0753 24.9742 55.0753 24.9742 55.0753 25.0556C55.1552 25.4617 55.5542 25.7867 56.0331 25.7055L59.3058 25.1367L58.2683 26.5993C48.5306 39.6006 36.5583 46.5888 22.6702 47.4823C22.1912 47.4823 21.8721 47.8889 21.8721 48.3761ZM58.9066 33.1C59.3855 32.5312 60.2632 32.8564 60.1838 33.5877V61.9462C60.1838 62.4337 59.8643 62.7589 59.3855 62.7589H54.5166C54.0378 62.7589 53.7183 62.4337 53.7183 61.9462V39.1943C53.7183 38.9504 53.7981 38.788 53.9579 38.6255L58.9066 33.1ZM58.6672 61.1338H55.3944V39.5193L58.6672 35.7816V61.1338ZM49.2487 42.8506C49.7276 42.5256 50.446 42.932 50.5259 43.5824V61.8649C50.5259 62.3526 50.2067 62.6775 49.7276 62.6775H44.7792C44.3004 62.6775 43.9809 62.3526 43.9809 61.8649V46.9135C43.9809 46.6699 44.0607 46.426 44.3004 46.2638L49.2487 42.8506ZM48.8497 61.1338H45.5772V47.4014L48.9295 45.1259V61.1338H48.8497ZM39.5912 48.7824C40.07 48.6199 40.6288 49.0263 40.6288 49.5951V61.8649C40.6288 62.3526 40.3097 62.6775 39.8308 62.6775H34.8824C34.4031 62.6775 34.084 62.3526 34.084 61.8649V51.3832C34.084 51.058 34.3237 50.7327 34.6428 50.6516L39.5912 48.7824ZM39.0325 61.1338V50.7327L35.6803 51.9518V61.1338H39.0325ZM25.0647 52.4395C24.6658 52.5203 24.3464 52.8456 24.3464 53.2519V61.9462C24.3464 62.4337 24.6658 62.7589 25.1447 62.7589H30.0132C30.4921 62.7589 30.8113 62.4337 30.8113 61.9462V52.602C30.8113 52.1142 30.3324 51.7079 29.9334 51.7893L25.0647 52.4395ZM29.2152 61.1338H25.9427V53.9832L29.2152 53.5766V61.1338Z" fill="#F65E64"/>
</svg>
