<svg width="85" height="85" viewBox="0 0 85 85" fill="none" xmlns="http://www.w3.org/2000/svg">
<path d="M84.2998 42.4238C84.2998 65.3436 65.7196 83.9238 42.7998 83.9238C19.88 83.9238 1.2998 65.3436 1.2998 42.4238C1.2998 19.504 19.88 0.923828 42.7998 0.923828C65.7196 0.923828 84.2998 19.504 84.2998 42.4238Z" stroke="#E6E8E0"/>
<path fill-rule="evenodd" clip-rule="evenodd" d="M25.0381 24.3193H60.5627C61.4736 24.3193 62.3015 24.6963 62.9007 25.3035C63.4999 25.9102 63.8724 26.7492 63.8724 27.6724V57.1763C63.8724 58.0991 63.4999 58.9381 62.9007 59.5448L62.8574 59.5849C62.2603 60.1692 61.4504 60.5294 60.5627 60.5294H25.0381C24.1272 60.5294 23.2993 60.152 22.7001 59.5448C22.101 58.9381 21.7285 58.0987 21.7285 57.1763V32.9359V27.6724C21.7285 26.7492 22.101 25.9102 22.7001 25.3035C23.2993 24.6963 24.1272 24.3193 25.0381 24.3193ZM37.2965 51.9942C41.6196 52.0323 46.0645 51.0056 50.1365 48.5545C53.7193 46.397 57.0103 43.1402 59.67 38.5395C59.8589 38.2135 59.7509 37.7932 59.4287 37.6019C59.1065 37.411 58.6919 37.5201 58.5031 37.8466C55.9687 42.2303 52.8433 45.327 49.447 47.3719C45.5975 49.6895 41.3951 50.66 37.307 50.6235C36.9337 50.6207 36.6282 50.925 36.6255 51.3036C36.6228 51.6818 36.9233 51.9914 37.2965 51.9942ZM36.5359 43.0748H43.6352C44.01 43.0748 44.3142 42.7664 44.3142 42.3867C44.3142 42.0069 44.01 41.6989 43.6352 41.6989H36.5359C36.1611 41.6989 35.8569 42.0069 35.8569 42.3867C35.8569 42.7664 36.1611 43.0748 36.5359 43.0748ZM36.5359 38.8102H43.6352C44.01 38.8102 44.3142 38.5023 44.3142 38.1229C44.3142 37.7431 44.01 37.4347 43.6352 37.4347H36.5359C36.1611 37.4347 35.8569 37.7431 35.8569 38.1229C35.8569 38.5023 36.1611 38.8102 36.5359 38.8102ZM26.5136 52.7722H31.1769C31.5517 52.7722 31.8558 52.4642 31.8558 52.0848C31.8558 51.705 31.5517 51.3967 31.1769 51.3967H26.5136C26.1388 51.3967 25.8346 51.705 25.8346 52.0848C25.8346 52.4642 26.1388 52.7722 26.5136 52.7722ZM26.5136 48.6123H33.056C33.4308 48.6123 33.7349 48.3039 33.7349 47.9241C33.7349 47.5447 33.4308 47.2367 33.056 47.2367H26.5136C26.1388 47.2367 25.8346 47.5447 25.8346 47.9241C25.8346 48.3039 26.1388 48.6123 26.5136 48.6123ZM27.9274 37.5053C27.3547 37.5053 26.8331 37.7427 26.4516 38.1277L26.4488 38.1305C26.0696 38.5155 25.8346 39.0449 25.8346 39.6255V42.8254C25.8346 43.4053 26.0689 43.9342 26.4488 44.3208L26.4516 44.3232C26.8318 44.7074 27.3541 44.9456 27.9274 44.9456H31.0855C31.6617 44.9456 32.1853 44.707 32.5628 44.322C32.9427 43.9366 33.1784 43.4069 33.1784 42.8254V39.6255C33.1784 39.0669 32.9605 38.5548 32.6058 38.1738L32.5642 38.1277C32.1853 37.7435 31.6617 37.5053 31.0855 37.5053H27.9274ZM31.0855 38.8812H27.9274C27.7246 38.8812 27.5407 38.9638 27.409 39.0974L27.4064 39.1002C27.2747 39.2337 27.1927 39.4198 27.1927 39.6255V42.8254C27.1927 43.0311 27.2747 43.2168 27.4064 43.3503L27.409 43.3527C27.5407 43.4867 27.7246 43.5697 27.9274 43.5697H31.0855C31.2865 43.5697 31.4706 43.4859 31.604 43.3503H31.6068C31.7384 43.2168 31.8205 43.0311 31.8205 42.8254V39.6255C31.8205 39.4331 31.7484 39.257 31.631 39.1259L31.604 39.1002C31.4706 38.965 31.2865 38.8812 31.0855 38.8812ZM59.82 27.2806C59.4116 27.2806 59.0414 27.449 58.774 27.7197C58.5064 27.9912 58.3405 28.3658 58.3405 28.7796C58.3405 29.1915 58.5064 29.5656 58.7738 29.8367L58.7765 29.8395C59.0443 30.1106 59.4135 30.2787 59.82 30.2787C60.2285 30.2787 60.5986 30.1106 60.8661 29.8395V29.8367C61.1335 29.5656 61.2993 29.1915 61.2993 28.7796C61.2993 28.3918 61.1523 28.0381 60.9123 27.7718L60.8661 27.7197C60.5986 27.449 60.2285 27.2806 59.82 27.2806ZM59.9059 28.6926C59.8842 28.6705 59.8534 28.6565 59.82 28.6565C59.7866 28.6565 59.7559 28.6705 59.7341 28.6926C59.7122 28.7151 59.6984 28.7459 59.6984 28.7796C59.6984 28.8141 59.7114 28.8454 59.7319 28.8674C59.755 28.8895 59.7859 28.9027 59.82 28.9027C59.8534 28.9027 59.8842 28.8887 59.9059 28.8666C59.9283 28.8462 59.9414 28.8145 59.9414 28.7796C59.9414 28.7515 59.933 28.7259 59.9188 28.7054L59.9059 28.6926ZM55.8517 27.2806C55.4433 27.2806 55.073 27.449 54.8057 27.7197C54.5381 27.9912 54.3722 28.3658 54.3722 28.7796C54.3722 29.1915 54.5381 29.5656 54.8054 29.8367L54.8081 29.8395C55.076 30.1106 55.4451 30.2787 55.8517 30.2787C56.2601 30.2787 56.6301 30.1106 56.8977 29.8395C57.1651 29.5685 57.331 29.1935 57.331 28.7796C57.331 28.3682 57.1651 27.994 56.8977 27.7221L56.895 27.7197C56.6271 27.449 56.2578 27.2806 55.8517 27.2806ZM55.9396 28.6922C55.9165 28.6697 55.8857 28.6565 55.8517 28.6565C55.8183 28.6565 55.7875 28.6705 55.7659 28.6926C55.744 28.7151 55.7301 28.7459 55.7301 28.7796C55.7301 28.8141 55.743 28.8454 55.7636 28.8674C55.7868 28.8895 55.8176 28.9027 55.8517 28.9027C55.8852 28.9027 55.9156 28.8887 55.9375 28.8666C55.9593 28.8446 55.9731 28.8133 55.9731 28.7796C55.9731 28.7447 55.9601 28.7139 55.9396 28.6922ZM51.8834 27.2806C51.4749 27.2806 51.1047 27.449 50.8373 27.7197C50.5697 27.9912 50.4038 28.3658 50.4038 28.7796C50.4038 29.1915 50.5697 29.5656 50.8371 29.8367L50.8399 29.8395C51.1076 30.1106 51.4769 30.2787 51.8834 30.2787C52.2919 30.2787 52.6618 30.1106 52.9294 29.8395C53.1969 29.5685 53.3627 29.1935 53.3627 28.7796C53.3627 28.3682 53.1969 27.994 52.9294 27.7221L52.9266 27.7197C52.6589 27.449 52.2896 27.2806 51.8834 27.2806ZM51.9713 28.6922C51.9482 28.6697 51.9174 28.6565 51.8834 28.6565C51.85 28.6565 51.8193 28.6705 51.7975 28.6926C51.7755 28.7151 51.7617 28.7459 51.7617 28.7796C51.7617 28.8141 51.7747 28.8454 51.7952 28.8674C51.8184 28.8895 51.8493 28.9027 51.8834 28.9027C51.9168 28.9027 51.9473 28.8887 51.9693 28.8666C51.991 28.8446 52.0048 28.8133 52.0048 28.7796C52.0048 28.7447 51.9918 28.7139 51.9713 28.6922ZM23.0864 32.2477H62.5144V27.6724C62.5144 27.129 62.2944 26.6349 61.9405 26.276C61.5866 25.9179 61.0985 25.6953 60.5627 25.6953H25.0381C24.5022 25.6953 24.0142 25.9179 23.6603 26.276C23.3065 26.6349 23.0864 27.129 23.0864 27.6724V32.2477ZM62.5144 33.6237H23.0864V57.1763C23.0864 57.7189 23.3065 58.2134 23.6603 58.5719C24.0142 58.9309 24.5022 59.1534 25.0381 59.1534H60.5627C61.0854 59.1534 61.5609 58.9441 61.9107 58.6044L61.9405 58.5719C62.2944 58.2134 62.5144 57.7193 62.5144 57.1763V33.6237Z" fill="#F65E64"/>
</svg>
