<svg width="85" height="85" viewBox="0 0 85 85" fill="none" xmlns="http://www.w3.org/2000/svg">
<path d="M84.2998 42.8027C84.2998 65.7225 65.7196 84.3027 42.7998 84.3027C19.88 84.3027 1.2998 65.7225 1.2998 42.8027C1.2998 19.8829 19.88 1.30273 42.7998 1.30273C65.7196 1.30273 84.2998 19.8829 84.2998 42.8027Z" stroke="#E6E8E0"/>
<path fill-rule="evenodd" clip-rule="evenodd" d="M57.1717 59.4103V62.9604C57.1717 63.3864 56.8378 63.7323 56.4262 63.7323L56.3608 63.7296L27.4444 63.7958C27.0345 63.7958 26.7019 63.4517 26.7019 63.0261C26.7019 62.8838 26.7395 62.7501 26.8051 62.6357L38.0452 43.0425L26.8037 23.4669C26.5947 23.1003 26.7122 22.6279 27.0659 22.4108C27.1849 22.3379 27.3154 22.3041 27.4444 22.3041L56.4262 22.3027C56.8378 22.3027 57.1717 22.6481 57.1717 23.0746V26.6243H55.6808V23.847H28.7536L39.5465 42.6412C39.6844 42.8763 39.696 43.1803 39.5515 43.4334L28.7529 62.2543L55.6808 62.1926V59.4103H57.1717Z" fill="#F65E64"/>
</svg>
