<svg width="85" height="85" viewBox="0 0 85 85" fill="none" xmlns="http://www.w3.org/2000/svg">
<path d="M84.4561 42.8027C84.4561 65.7225 65.8759 84.3027 42.9561 84.3027C20.0362 84.3027 1.45605 65.7225 1.45605 42.8027C1.45605 19.8829 20.0362 1.30273 42.9561 1.30273C65.8759 1.30273 84.4561 19.8829 84.4561 42.8027Z" stroke="#E6E8E0"/>
<path fill-rule="evenodd" clip-rule="evenodd" d="M55.5474 60.5383L55.5471 60.5817C55.5387 61.2523 55.3336 61.8781 54.9878 62.403L55.631 62.4091C56.099 62.3349 56.4933 62.2206 56.7505 62.0502C56.7991 62.0176 56.8461 61.9826 56.8915 61.9448C56.9366 61.9074 56.9801 61.8683 57.0214 61.8272C57.3533 61.4959 57.5594 61.0386 57.5594 60.5383V25.4772C57.5594 24.9919 57.3678 24.5495 57.0571 24.222L57.0216 24.1884C56.6901 23.8575 56.2326 23.6513 55.7308 23.6513H55.0113C55.3506 24.1814 55.5474 24.8081 55.5474 25.4772V60.5383ZM62.7416 60.5383L62.7413 60.5817C62.7297 61.5029 62.348 62.3382 61.7393 62.9457C61.1215 63.5626 60.2675 63.9462 59.3279 63.9462H55.9685C54.0695 64.2234 51.2992 63.9462 50.4988 63.9462H26.5845C25.6472 63.9462 24.7944 63.5626 24.176 62.9457L24.1728 62.9429C23.5547 62.3251 23.1709 61.4739 23.1709 60.5383V25.4772C23.1709 24.5393 23.5549 23.6867 24.1728 23.0698C24.7912 22.4524 25.6449 22.0693 26.5845 22.0693H49.7587H51.1333H52.1338H55.7308H59.3279C60.2641 22.0693 61.1164 22.452 61.7362 23.0698L61.7393 23.0731C62.3588 23.6928 62.7416 24.543 62.7416 25.4772V60.5383ZM58.594 62.3886C58.872 62.3816 59.148 62.3727 59.4216 62.361C59.8867 62.3372 60.3077 62.137 60.6186 61.8272C60.9505 61.4959 61.1565 61.0386 61.1565 60.5383V25.4772C61.1565 24.9742 60.9518 24.5178 60.6219 24.1888L60.6186 24.1856C60.289 23.8561 59.8321 23.6513 59.3279 23.6513H58.6087C58.9473 24.1804 59.1444 24.8071 59.1444 25.4772V60.5383L59.1441 60.5817C59.1415 60.7852 59.121 60.9849 59.0837 61.1781L59.083 61.1809C58.9986 61.6186 58.8296 62.0274 58.594 62.3886ZM36.1112 37.72C36.199 37.7639 36.3 37.7858 36.4051 37.777C36.7067 37.7508 36.9303 37.4853 36.9045 37.1843L36.6176 33.8866L38.7677 31.4166C38.8321 31.3485 38.8798 31.2626 38.9023 31.1646C38.9696 30.8702 38.7854 30.5771 38.491 30.5095L35.2839 29.7675L33.5757 26.9434C33.5312 26.8683 33.468 26.8025 33.3878 26.7549C33.1286 26.5986 32.7916 26.6821 32.6355 26.9411L30.9264 29.7675L27.7052 30.5099C27.6207 30.5291 27.5396 30.5687 27.4694 30.6294C27.2411 30.8263 27.2163 31.1721 27.4138 31.3998L29.5787 33.8866L29.2936 37.1843C29.2862 37.2702 29.2987 37.3584 29.3343 37.4433C29.4513 37.7205 29.7721 37.8507 30.05 37.7336L33.1034 36.4447L36.1112 37.72ZM29.6074 31.6196L30.9915 33.2057C31.0929 33.3219 31.1365 33.4699 31.1242 33.6126L30.939 35.7149L32.8766 34.8884C33.0191 34.8282 33.1731 34.8329 33.3054 34.8884L35.243 35.7149L35.0578 33.6126C35.0447 33.4587 35.0966 33.3135 35.1907 33.2057L36.5748 31.6196L34.5187 31.1436C34.361 31.1072 34.2349 31.006 34.1622 30.8749L33.0909 29.083L32.0107 30.8907C31.9313 31.0233 31.8035 31.1105 31.6633 31.1432L29.6074 31.6196ZM29.3874 54.7128H48.4937C48.9312 54.7128 49.2862 54.3581 49.2862 53.9218C49.2862 53.485 48.9312 53.1304 48.4937 53.1304H29.3874C28.95 53.1304 28.5949 53.485 28.5949 53.9218C28.5949 54.3581 28.95 54.7128 29.3874 54.7128ZM29.3874 48.694H48.4937C48.9312 48.694 49.2862 48.3398 49.2862 47.9031C49.2862 47.4663 48.9312 47.1117 48.4937 47.1117H29.3874C28.95 47.1117 28.5949 47.4663 28.5949 47.9031C28.5949 48.3398 28.95 48.694 29.3874 48.694ZM29.3874 42.5451H48.4937C48.9312 42.5451 49.2862 42.1904 49.2862 41.7537C49.2862 41.3169 48.9312 40.9622 48.4937 40.9622H29.3874C28.95 40.9622 28.5949 41.3169 28.5949 41.7537C28.5949 42.1904 28.95 42.5451 29.3874 42.5451ZM52.1336 62.3638L52.2274 62.361C52.6925 62.3372 53.1136 62.137 53.4245 61.8272C53.7564 61.4959 53.9625 61.0386 53.9625 60.5383V25.4772C53.9625 24.9742 53.7576 24.5178 53.4276 24.1888L53.4245 24.1856C53.0949 23.8561 52.6379 23.6513 52.1338 23.6513H51.1333H49.7587H26.5845C26.0826 23.6513 25.6253 23.8575 25.2936 24.1888C24.9619 24.5197 24.7559 24.9765 24.7559 25.4772V60.5383C24.7559 61.04 24.9614 61.4977 25.2921 61.8286C25.6235 62.1585 26.0811 62.3638 26.5845 62.3638H50.4988H50.922H51.0518H52.1336Z" fill="#F65E64"/>
</svg>
