<svg width="85" height="85" viewBox="0 0 85 85" fill="none" xmlns="http://www.w3.org/2000/svg">
<path d="M84.4561 42.4238C84.4561 65.3436 65.8759 83.9238 42.9561 83.9238C20.0362 83.9238 1.45605 65.3436 1.45605 42.4238C1.45605 19.504 20.0362 0.923828 42.9561 0.923828C65.8759 0.923828 84.4561 19.504 84.4561 42.4238Z" stroke="#E6E8E0"/>
<path fill-rule="evenodd" clip-rule="evenodd" d="M24.8232 27.3223V57.729H23.3728V27.3223H24.8232ZM64.7628 54.4635C64.7628 54.0584 65.0877 53.7295 65.488 53.7295C65.8883 53.7295 66.2131 54.0584 66.2131 54.4635V61.1011C66.2131 61.5057 65.8883 61.8351 65.488 61.8351H58.9269C58.5266 61.8351 58.2018 61.5057 58.2018 61.1011C58.2018 60.6961 58.5266 60.3676 58.9269 60.3676H64.7628V54.4635ZM58.9269 24.6833C58.5266 24.6833 58.2018 24.3544 58.2018 23.9493C58.2018 23.5447 58.5266 23.2158 58.9269 23.2158H65.488C65.8883 23.2158 66.2131 23.5447 66.2131 23.9493V30.587C66.2131 30.9924 65.8883 31.3214 65.488 31.3214C65.0877 31.3214 64.7628 30.9924 64.7628 30.587V24.6833H58.9269ZM27.0733 60.3676H21.2374V54.4635C21.2374 54.0584 20.9126 53.7295 20.5122 53.7295C20.1119 53.7295 19.7871 54.0584 19.7871 54.4635V61.1011C19.7871 61.5057 20.1119 61.8351 20.5122 61.8351H27.0733C27.4736 61.8351 27.7985 61.5057 27.7985 61.1011C27.7985 60.6961 27.4736 60.3676 27.0733 60.3676ZM21.2374 30.587V24.6833H27.0733C27.4736 24.6833 27.7985 24.3544 27.7985 23.9493C27.7985 23.5447 27.4736 23.2158 27.0733 23.2158H20.5122C20.1119 23.2158 19.7871 23.5447 19.7871 23.9493V30.587C19.7871 30.9924 20.1119 31.3214 20.5122 31.3214C20.9126 31.3214 21.2374 30.9924 21.2374 30.587ZM57.627 55.1602V57.729H56.1767V55.1602H57.627ZM54.4116 55.1602V57.729H52.9613V55.1602H54.4116ZM51.9655 55.1602V57.729H50.5152V55.1602H51.9655ZM47.6263 55.1602V57.729H46.176V55.1602H47.6263ZM40.5333 55.1602V57.729H39.0831V55.1602H40.5333ZM35.7478 55.1602V57.729H34.2975V55.1602H35.7478ZM33.2397 55.1602V57.729H31.7894V55.1602H33.2397ZM28.2237 55.1602V57.729H26.7734V55.1602H28.2237ZM62.6276 27.3223H61.1773V57.729H62.6276V27.3223ZM57.627 27.3223V52.484H56.1767V27.3223H57.627ZM54.4116 27.3223V52.484H52.9613V27.3223H54.4116ZM51.9655 27.3223V52.484H50.5152V27.3223H51.9655ZM47.6263 27.3223V52.484H46.176V27.3223H47.6263ZM44.3181 27.3223V57.729H42.8679V27.3223H44.3181ZM40.5333 27.3223V52.484H39.0831V27.3223H40.5333ZM35.7478 27.3223V52.484H34.2975V27.3223H35.7478ZM33.2397 27.3223V52.484H31.7894V27.3223H33.2397ZM28.2237 27.3223V52.484H26.7734V27.3223H28.2237Z" fill="#F65E64"/>
</svg>
