<svg width="85" height="85" viewBox="0 0 85 85" fill="none" xmlns="http://www.w3.org/2000/svg">
<path d="M83.5654 42.4238C83.5654 65.3436 64.9852 83.9238 42.0654 83.9238C19.1456 83.9238 0.56543 65.3436 0.56543 42.4238C0.56543 19.504 19.1456 0.923828 42.0654 0.923828C64.9852 0.923828 83.5654 19.504 83.5654 42.4238Z" stroke="#E6E8E0"/>
<path fill-rule="evenodd" clip-rule="evenodd" d="M21.9005 53.1767H62.2302L58.6339 41.1536H25.4968L21.9005 53.1767ZM40.1289 59.1913C39.7117 59.1913 39.3732 58.852 39.3732 58.4337C39.3732 58.0162 39.7117 57.6773 40.1289 57.6773H44.0018C44.419 57.6773 44.7575 58.0162 44.7575 58.4337C44.7575 58.852 44.419 59.1913 44.0018 59.1913H40.1289ZM28.2713 49.9876C27.8542 49.9876 27.5157 49.6487 27.5157 49.2308C27.5157 48.8129 27.8542 48.474 28.2713 48.474H30.4962C30.9134 48.474 31.252 48.8129 31.252 49.2308C31.252 49.6487 30.9134 49.9876 30.4962 49.9876H28.2713ZM53.6343 49.9876C53.2173 49.9876 52.8788 49.6487 52.8788 49.2308C52.8788 48.8129 53.2173 48.474 53.6343 48.474H55.8593C56.2764 48.474 56.6149 48.8129 56.6149 49.2308C56.6149 49.6487 56.2764 49.9876 55.8593 49.9876H53.6343ZM45.18 49.9876C44.7628 49.9876 44.4243 49.6487 44.4243 49.2308C44.4243 48.8129 44.7628 48.474 45.18 48.474H47.4051C47.8222 48.474 48.1608 48.8129 48.1608 49.2308C48.1608 49.6487 47.8222 49.9876 47.4051 49.9876H45.18ZM36.7255 49.9876C36.3084 49.9876 35.9699 49.6487 35.9699 49.2308C35.9699 48.8129 36.3084 48.474 36.7255 48.474H38.9507C39.3679 48.474 39.7064 48.8129 39.7064 49.2308C39.7064 49.6487 39.3679 49.9876 38.9507 49.9876H36.7255ZM32.4984 45.7759C32.0813 45.7759 31.7428 45.4366 31.7428 45.0187C31.7428 44.6013 32.0813 44.262 32.4984 44.262H34.7236C35.1408 44.262 35.4793 44.6013 35.4793 45.0187C35.4793 45.4366 35.1408 45.7759 34.7236 45.7759H32.4984ZM49.407 45.7759C48.9899 45.7759 48.6514 45.4366 48.6514 45.0187C48.6514 44.6013 48.9899 44.262 49.407 44.262H51.6322C52.0493 44.262 52.3879 44.6013 52.3879 45.0187C52.3879 45.4366 52.0493 45.7759 51.6322 45.7759H49.407ZM40.9529 45.7759C40.5357 45.7759 40.1972 45.4366 40.1972 45.0187C40.1972 44.6013 40.5357 44.262 40.9529 44.262H43.1777C43.595 44.262 43.9335 44.6013 43.9335 45.0187C43.9335 45.4366 43.595 45.7759 43.1777 45.7759H40.9529ZM45.8654 36.3657C45.4483 36.3657 45.1098 36.0264 45.1098 35.6089C45.1098 35.191 45.4483 34.8522 45.8654 34.8522H52.8699C53.287 34.8522 53.6255 35.191 53.6255 35.6089C53.6255 36.0264 53.287 36.3657 52.8699 36.3657H45.8654ZM31.8381 24.1218H36.8823C37.5192 24.1218 38.0975 24.3817 38.5164 24.8014C38.9351 25.2206 39.1951 25.8001 39.1951 26.4379V29.8169H48.6119V25.9563H45.9889C45.0463 25.9563 44.1878 25.5685 43.5647 24.945C42.9414 24.3234 42.5548 23.4629 42.5548 22.5167C42.5548 21.5701 42.9411 20.7101 43.5629 20.0866C44.1845 19.4645 45.0438 19.0771 45.9889 19.0771H52.7465C53.6915 19.0771 54.5505 19.4645 55.1722 20.0866C55.7939 20.7101 56.1801 21.5701 56.1801 22.5167C56.1801 23.4629 55.7938 24.3234 55.172 24.9468L55.1238 24.9904C54.5049 25.5873 53.6653 25.9563 52.7465 25.9563H50.1232V29.8169H56.0916C57.1564 29.8169 58.1245 30.2532 58.8254 30.9552C59.5265 31.6577 59.9617 32.6272 59.9617 33.6937V40.326L63.9543 53.6745L63.9556 53.6776L63.957 53.6816L63.9596 53.6888L63.96 53.6906L63.961 53.6929L63.9621 53.6964L63.9648 53.705L63.9659 53.7086V53.709L63.9712 53.727L63.9717 53.7283L63.9728 53.7319L63.9761 53.7445L63.9771 53.7476L63.9779 53.7517L63.9789 53.7557L63.9798 53.7597L63.9805 53.7629L63.9808 53.7638L63.9817 53.7678L63.9826 53.7714L63.9843 53.7799L63.9845 53.7817L63.9851 53.784L63.9859 53.788L63.988 53.8001L63.9882 53.8006L63.9888 53.8042L63.9896 53.8087L63.9902 53.8123L63.991 53.8167L63.9912 53.8185L63.9915 53.8208L63.9921 53.8248L63.9926 53.8289L63.9933 53.8329L63.9937 53.8369V53.8374L63.9942 53.8414L63.9947 53.845L63.9952 53.8491L63.9956 53.8531L63.9958 53.8562L63.9961 53.8571L63.9966 53.8616L63.9968 53.8661L63.9972 53.8702L63.9974 53.8746L63.9977 53.8755L63.9979 53.8787L63.9982 53.8827L63.9985 53.8872L63.9986 53.8913L63.9989 53.8948V53.8957L63.9991 53.8998L63.9993 53.9038V53.9083L63.9996 53.9123V53.9141V53.9168L63.9998 53.9209V53.9249V53.9294V53.9339V59.8938C63.9998 60.9607 63.5645 61.9302 62.8636 62.6327C62.1625 63.3347 61.1946 63.771 60.1294 63.771H24.0011C22.936 63.771 21.9682 63.3347 21.2671 62.6327C20.5662 61.9302 20.1309 60.9607 20.1309 59.8938V53.9339C20.1309 53.8428 20.1467 53.7548 20.1764 53.6745L24.169 40.3264V33.6937C24.169 32.6272 24.6042 31.6577 25.3053 30.9552C26.0062 30.2532 26.974 29.8169 28.0392 29.8169H29.5254V26.4379C29.5254 25.8001 29.7853 25.2206 30.204 24.8014C30.6228 24.3817 31.2013 24.1218 31.8381 24.1218ZM39.1951 31.3309V34.5815C39.1951 35.0025 39.0223 35.3863 38.7452 35.6646V35.6677C38.4675 35.9456 38.0836 36.1179 37.661 36.1179H31.0595C30.6367 36.1179 30.2528 35.9456 29.9752 35.6677C29.6976 35.389 29.5254 35.0048 29.5254 34.5815V31.3309H28.0392C27.3913 31.3309 26.8014 31.5975 26.3739 32.0257C25.9462 32.4544 25.6803 33.0451 25.6803 33.6937V39.6397H58.4504V33.6937C58.4504 33.0451 58.1844 32.4544 57.7568 32.0257C57.3292 31.5975 56.7391 31.3309 56.0916 31.3309H39.1951ZM36.8823 25.6354H31.8381C31.6186 25.6354 31.418 25.726 31.2726 25.8715C31.1273 26.0173 31.0367 26.218 31.0367 26.4379V30.5746V34.5815L31.0439 34.5972L31.0595 34.6044H37.661L37.6765 34.5972C37.6817 34.5941 37.6837 34.5882 37.6837 34.5815V26.4379C37.6837 26.218 37.593 26.0173 37.4477 25.8715C37.3024 25.726 37.1018 25.6354 36.8823 25.6354ZM52.7465 20.5907H45.9889C45.4611 20.5907 44.9802 20.8079 44.6315 21.1571C44.283 21.5068 44.0662 21.988 44.0662 22.5167C44.0662 23.0455 44.283 23.5266 44.6318 23.8763V23.8794C44.9784 24.2269 45.459 24.4423 45.9889 24.4423H52.7465C53.259 24.4423 53.7257 24.2403 54.0697 23.9122L54.1034 23.8763C54.4522 23.5266 54.6687 23.0455 54.6687 22.5167C54.6687 21.988 54.4522 21.5068 54.1035 21.1571C53.7549 20.8079 53.2742 20.5907 52.7465 20.5907ZM21.6423 54.6911V59.8938C21.6423 60.5428 21.9082 61.134 22.3358 61.5622C22.7633 61.9908 23.3533 62.257 24.0011 62.257H60.1294C60.7771 62.257 61.3673 61.9908 61.7949 61.5622C62.2225 61.134 62.4884 60.5428 62.4884 59.8938V54.6911H21.6423Z" fill="#F65E64"/>
</svg>
