<svg width="84" height="85" viewBox="0 0 84 85" fill="none" xmlns="http://www.w3.org/2000/svg">
<circle cx="42" cy="42.4238" r="41.5" stroke="#E6E8E0"/>
<path d="M44.964 45.7933H36.036V50.7853H48.804V52.8973H36.036V59.5693H33.444V52.8973H29.124V50.7853H33.444V45.7933H29.124V43.3933H33.444V25.9693H44.964C47.684 25.9693 50.02 26.9453 51.972 28.8973C53.924 30.8493 54.9 33.1853 54.9 35.9053C54.9 38.6253 53.924 40.9613 51.972 42.9133C50.02 44.8333 47.684 45.7933 44.964 45.7933ZM36.036 28.3693V43.3933H44.964C47.012 43.3933 48.756 42.6733 50.196 41.2333C51.636 39.7613 52.356 37.9853 52.356 35.9053C52.356 33.8253 51.636 32.0493 50.196 30.5773C48.756 29.1053 47.012 28.3693 44.964 28.3693H36.036Z" fill="#F65E64"/>
</svg>
