<svg width="156" height="55" viewBox="0 0 156 55" fill="none" xmlns="http://www.w3.org/2000/svg">
<circle cx="27.5565" cy="27.3212" r="27.1913" fill="url(#paint0_linear)"/>
<circle opacity="0.1" cx="32.7445" cy="19.9252" r="12.0629" fill="white"/>
<path d="M139.595 31.6528C135.362 31.6528 133.246 28.7451 131.378 26.3219C129.635 23.9957 128.141 21.9603 125.278 21.9603C122.414 21.9603 120.92 23.9957 119.177 26.3219C117.309 28.7451 115.193 31.6528 110.96 31.6528C106.602 31.6528 104.61 28.7451 102.743 26.3219C101 23.9957 99.5057 21.9603 96.6422 21.9603C93.7786 21.9603 92.2846 23.9957 90.5416 26.3219C88.6741 28.7451 86.5576 31.6528 82.2 31.6528C77.9669 31.6528 75.8504 28.842 73.9829 26.3219C72.2399 23.8988 70.7459 21.8633 67.8823 21.8633C65.0188 21.8633 63.5248 23.8988 61.7817 26.225C59.9142 28.7451 57.7977 31.6528 53.5646 31.6528C49.3316 31.6528 47.2151 28.7451 45.3475 26.3219C43.6045 23.8988 42.1105 21.8633 39.247 21.8633C38.6245 21.8633 38.002 21.4756 38.002 20.8941C38.002 20.3125 38.5 19.9248 39.247 19.9248C43.48 19.9248 45.5965 22.7357 47.4641 25.2557C49.2071 27.6789 50.7011 29.7143 53.5646 29.7143C56.4282 29.7143 57.9222 27.6789 59.6652 25.3527C61.5327 22.8326 63.6493 20.0217 67.8823 20.0217C72.1154 20.0217 74.2319 22.8326 76.0994 25.3527C77.8424 27.6789 79.3365 29.7143 82.2 29.7143C85.0635 29.7143 86.5576 27.6789 88.3006 25.3527C90.1681 22.8326 92.2846 20.0217 96.6422 20.0217C100.875 20.0217 102.992 22.8326 104.859 25.3527C106.602 27.6789 108.096 29.7143 110.96 29.7143C113.823 29.7143 115.317 27.6789 117.06 25.3527C118.928 22.8326 121.044 20.0217 125.278 20.0217C129.511 20.0217 131.627 22.8326 133.495 25.3527C135.238 27.6789 136.732 29.7143 139.595 29.7143C142.459 29.7143 143.953 27.6789 145.696 25.3527C147.563 22.8326 149.68 20.0217 154.037 20.0217C154.66 20.0217 155.282 20.4094 155.282 20.991C155.282 21.5725 154.784 21.9603 154.037 21.9603C151.174 21.9603 149.68 23.9957 147.937 26.3219C145.945 28.7451 143.953 31.6528 139.595 31.6528Z" fill="#ACCE23"/>
<defs>
<linearGradient id="paint0_linear" x1="40.4926" y1="90.7193" x2="-0.169285" y2="79.5555" gradientUnits="userSpaceOnUse">
<stop stop-color="#FD9B5C"/>
<stop offset="1" stop-color="#EB5760"/>
</linearGradient>
</defs>
</svg>
