<svg width="85" height="84" viewBox="0 0 85 84" fill="none" xmlns="http://www.w3.org/2000/svg">
<path d="M84.418 42C84.418 64.9198 65.8378 83.5 42.918 83.5C19.9982 83.5 1.41797 64.9198 1.41797 42C1.41797 19.0802 19.9982 0.5 42.918 0.5C65.8378 0.5 84.418 19.0802 84.418 42Z" fill="white" stroke="#E6E8E0"/>
<path d="M34.3203 20.2539H51.5153C52.6198 20.2539 53.5152 21.1493 53.5152 22.2539V59.7444C53.5152 60.849 52.6198 61.7444 51.5152 61.7444H34.3203C33.209 61.7444 32.3203 60.8577 32.3203 59.7599V49.1536V35.6487V28.3347V23.603V22.2531C32.3203 21.1489 33.2154 20.2539 34.3203 20.2539Z" stroke="#F65E64" stroke-width="2"/>
<circle cx="42.9171" cy="57.5382" r="1.57143" fill="#F65E64"/>
</svg>
