<svg width="85" height="84" viewBox="0 0 85 84" fill="none" xmlns="http://www.w3.org/2000/svg">
<circle cx="42.6133" cy="42" r="41.5" fill="white" stroke="#E6E8E0"/>
<path d="M36.8201 48.0306C35.6067 49.7466 33.8821 50.6046 31.6461 50.6046C29.4101 50.6046 27.6854 49.7466 26.4721 48.0306C25.2414 46.2973 24.6261 44.0093 24.6261 41.1666C24.6261 38.3239 25.2414 36.0359 26.4721 34.3026C27.6854 32.5866 29.4101 31.7286 31.6461 31.7286C33.8821 31.7286 35.6067 32.5866 36.8201 34.3026C38.0507 36.0359 38.6661 38.3239 38.6661 41.1666C38.6661 44.0093 38.0507 46.2973 36.8201 48.0306ZM27.0441 41.1666C27.0441 43.4199 27.4427 45.1619 28.2401 46.3926C29.0374 47.6233 30.1727 48.2386 31.6461 48.2386C33.1194 48.2386 34.2547 47.6233 35.0521 46.3926C35.8667 45.1619 36.2741 43.4199 36.2741 41.1666C36.2741 38.9133 35.8667 37.1713 35.0521 35.9406C34.2547 34.6926 33.1194 34.0686 31.6461 34.0686C30.1727 34.0686 29.0374 34.6839 28.2401 35.9146C27.4427 37.1453 27.0441 38.8959 27.0441 41.1666ZM55.589 43.2986H51.403V45.4046H57.851V47.1726H51.403V50.2666H49.011V47.1726H46.801V45.4046H49.011V43.2986H46.801V41.1146H49.011V32.0666H55.589C57.1663 32.0666 58.5097 32.6213 59.619 33.7306C60.7283 34.8226 61.283 36.1486 61.283 37.7086C61.283 39.2686 60.7283 40.5946 59.619 41.6866C58.5097 42.7613 57.1663 43.2986 55.589 43.2986ZM55.589 34.3286H51.403V41.1146H55.589C56.473 41.1146 57.2443 40.7853 57.903 40.1266C58.5617 39.4333 58.891 38.6273 58.891 37.7086C58.891 36.7553 58.5703 35.9579 57.929 35.3166C57.2703 34.6579 56.4903 34.3286 55.589 34.3286Z" fill="#F65E64"/>
</svg>
