<svg width="85" height="84" viewBox="0 0 85 84" fill="none" xmlns="http://www.w3.org/2000/svg">
<circle cx="42.0547" cy="42" r="41.5" fill="white" stroke="#E6E8E0"/>
<path d="M28.073 48.0306C26.8597 49.7466 25.135 50.6046 22.899 50.6046C20.663 50.6046 18.9383 49.7466 17.725 48.0306C16.4943 46.2973 15.879 44.0093 15.879 41.1666C15.879 38.3239 16.4943 36.0359 17.725 34.3026C18.9383 32.5866 20.663 31.7286 22.899 31.7286C25.135 31.7286 26.8597 32.5866 28.073 34.3026C29.3037 36.0359 29.919 38.3239 29.919 41.1666C29.919 44.0093 29.3037 46.2973 28.073 48.0306ZM18.297 41.1666C18.297 43.4199 18.6957 45.1619 19.493 46.3926C20.2903 47.6233 21.4257 48.2386 22.899 48.2386C24.3723 48.2386 25.5077 47.6233 26.305 46.3926C27.1197 45.1619 27.527 43.4199 27.527 41.1666C27.527 38.9133 27.1197 37.1713 26.305 35.9406C25.5077 34.6926 24.3723 34.0686 22.899 34.0686C21.4257 34.0686 20.2903 34.6839 19.493 35.9146C18.6957 37.1453 18.297 38.8959 18.297 41.1666ZM32.7948 47.5886H35.3948L33.7048 53.9066H31.7548L32.7948 47.5886ZM41.243 39.1646H43.895C45.611 39.1646 47.0583 39.6759 48.237 40.6986C49.433 41.7213 50.031 43.1166 50.031 44.8846C50.031 46.6699 49.4243 48.0653 48.211 49.0706C46.9803 50.0933 45.507 50.6046 43.791 50.6046C42.3697 50.6046 41.113 50.2666 40.021 49.5906C38.9463 48.8973 38.201 47.9353 37.785 46.7046L39.839 45.5346C40.0817 46.4013 40.5497 47.0686 41.243 47.5366C41.9363 48.0046 42.7857 48.2386 43.791 48.2386C44.9523 48.2386 45.8797 47.9439 46.573 47.3546C47.2837 46.7479 47.639 45.9246 47.639 44.8846C47.639 43.8446 47.2837 43.0213 46.573 42.4146C45.8797 41.8079 44.9697 41.5046 43.843 41.5046H38.695L39.371 32.0666H49.329V34.3286H41.555L41.243 39.1646ZM56.0224 39.7886C54.8437 39.7886 53.8644 39.3986 53.0844 38.6186C52.3044 37.8386 51.9144 36.8853 51.9144 35.7586C51.9144 34.6493 52.3044 33.7046 53.0844 32.9246C53.8817 32.1273 54.861 31.7286 56.0224 31.7286C57.201 31.7286 58.1804 32.1186 58.9604 32.8986C59.7404 33.6786 60.1304 34.6319 60.1304 35.7586C60.1304 36.8853 59.7404 37.8386 58.9604 38.6186C58.1977 39.3986 57.2184 39.7886 56.0224 39.7886ZM53.9424 35.7586C53.9424 36.3653 54.133 36.8766 54.5144 37.2926C54.913 37.6913 55.4157 37.8906 56.0224 37.8906C56.629 37.8906 57.123 37.6826 57.5044 37.2666C57.903 36.8506 58.1024 36.3479 58.1024 35.7586C58.1024 35.1693 57.903 34.6753 57.5044 34.2766C57.123 33.8606 56.629 33.6526 56.0224 33.6526C55.4157 33.6526 54.913 33.8606 54.5144 34.2766C54.133 34.6753 53.9424 35.1693 53.9424 35.7586ZM54.3844 48.4206L53.1364 47.6926L65.2264 34.1726L66.5004 34.8746L54.3844 48.4206ZM67.9824 46.5486C67.9824 47.6753 67.5924 48.6286 66.8124 49.4086C66.0324 50.1886 65.053 50.5786 63.8744 50.5786C62.6957 50.5786 61.7164 50.1886 60.9364 49.4086C60.1564 48.6286 59.7664 47.6753 59.7664 46.5486C59.7664 45.4219 60.1564 44.4686 60.9364 43.6886C61.7164 42.9086 62.6957 42.5186 63.8744 42.5186C65.053 42.5186 66.0324 42.9086 66.8124 43.6886C67.5924 44.4686 67.9824 45.4219 67.9824 46.5486ZM62.3664 48.0566C62.765 48.4553 63.2677 48.6546 63.8744 48.6546C64.4637 48.6546 64.9577 48.4553 65.3564 48.0566C65.755 47.6406 65.9544 47.1379 65.9544 46.5486C65.9544 45.9593 65.755 45.4653 65.3564 45.0666C64.975 44.6506 64.481 44.4426 63.8744 44.4426C63.2677 44.4426 62.765 44.6506 62.3664 45.0666C61.985 45.4653 61.7944 45.9593 61.7944 46.5486C61.7944 47.1379 61.985 47.6406 62.3664 48.0566Z" fill="#F65E64"/>
</svg>
