<svg width="84" height="84" viewBox="0 0 84 84" fill="none" xmlns="http://www.w3.org/2000/svg">
<circle cx="42" cy="42" r="41.5" fill="white" stroke="#E6E8E0"/>
<path d="M32.9344 38.3586C34.7544 38.3586 36.2538 38.9306 37.4324 40.0746C38.6111 41.2013 39.2004 42.6659 39.2004 44.4686C39.2004 46.2713 38.6111 47.7446 37.4324 48.8886C36.2538 50.0326 34.7544 50.6046 32.9344 50.6046C31.0798 50.6046 29.5718 50.0326 28.4104 48.8886C27.2491 47.7446 26.6684 46.2713 26.6684 44.4686C26.6684 43.0473 27.0324 41.8339 27.7604 40.8286L33.6104 32.0666H36.3664L32.0764 38.4106C32.5964 38.3759 32.8824 38.3586 32.9344 38.3586ZM32.9344 40.6726C31.7731 40.6726 30.8371 41.0193 30.1264 41.7126C29.4158 42.4059 29.0604 43.3246 29.0604 44.4686C29.0604 45.6126 29.4158 46.5399 30.1264 47.2506C30.8544 47.9439 31.7904 48.2906 32.9344 48.2906C34.0784 48.2906 35.0058 47.9439 35.7164 47.2506C36.4444 46.5399 36.8084 45.6126 36.8084 44.4686C36.8084 43.3246 36.4444 42.4059 35.7164 41.7126C35.0058 41.0193 34.0784 40.6726 32.9344 40.6726ZM44.6816 39.7886C43.5029 39.7886 42.5236 39.3986 41.7436 38.6186C40.9636 37.8386 40.5736 36.8853 40.5736 35.7586C40.5736 34.6493 40.9636 33.7046 41.7436 32.9246C42.5409 32.1273 43.5202 31.7286 44.6816 31.7286C45.8602 31.7286 46.8396 32.1186 47.6196 32.8986C48.3996 33.6786 48.7896 34.6319 48.7896 35.7586C48.7896 36.8853 48.3996 37.8386 47.6196 38.6186C46.8569 39.3986 45.8776 39.7886 44.6816 39.7886ZM42.6016 35.7586C42.6016 36.3653 42.7922 36.8766 43.1736 37.2926C43.5722 37.6913 44.0749 37.8906 44.6816 37.8906C45.2882 37.8906 45.7822 37.6826 46.1636 37.2666C46.5622 36.8506 46.7616 36.3479 46.7616 35.7586C46.7616 35.1693 46.5622 34.6753 46.1636 34.2766C45.7822 33.8606 45.2882 33.6526 44.6816 33.6526C44.0749 33.6526 43.5722 33.8606 43.1736 34.2766C42.7922 34.6753 42.6016 35.1693 42.6016 35.7586ZM43.0436 48.4206L41.7956 47.6926L53.8856 34.1726L55.1596 34.8746L43.0436 48.4206ZM56.6416 46.5486C56.6416 47.6753 56.2516 48.6286 55.4716 49.4086C54.6916 50.1886 53.7122 50.5786 52.5336 50.5786C51.3549 50.5786 50.3756 50.1886 49.5956 49.4086C48.8156 48.6286 48.4256 47.6753 48.4256 46.5486C48.4256 45.4219 48.8156 44.4686 49.5956 43.6886C50.3756 42.9086 51.3549 42.5186 52.5336 42.5186C53.7122 42.5186 54.6916 42.9086 55.4716 43.6886C56.2516 44.4686 56.6416 45.4219 56.6416 46.5486ZM51.0256 48.0566C51.4242 48.4553 51.9269 48.6546 52.5336 48.6546C53.1229 48.6546 53.6169 48.4553 54.0156 48.0566C54.4142 47.6406 54.6136 47.1379 54.6136 46.5486C54.6136 45.9593 54.4142 45.4653 54.0156 45.0666C53.6342 44.6506 53.1402 44.4426 52.5336 44.4426C51.9269 44.4426 51.4242 44.6506 51.0256 45.0666C50.6442 45.4653 50.4536 45.9593 50.4536 46.5486C50.4536 47.1379 50.6442 47.6406 51.0256 48.0566Z" fill="#F65E64"/>
</svg>
