<svg width="518" height="351" viewBox="0 0 518 351" fill="none" xmlns="http://www.w3.org/2000/svg">
<ellipse cx="285.75" cy="291.807" rx="78.25" ry="5.25" fill="#E6E5E5"/>
<path d="M362.749 253.479C343.823 279.693 317.161 292.631 282.762 292.291C248.364 291.952 221.962 278.49 203.557 251.907C184.888 225.055 175.769 189.763 176.201 146.032C176.633 102.301 186.446 67.1961 205.642 40.7176C224.568 14.5032 251.231 1.56575 285.629 1.90533C320.027 2.24491 346.429 15.7062 364.834 42.2892C383.503 69.1415 392.622 104.433 392.19 148.164C391.759 191.896 381.945 227 362.749 253.479ZM213.399 146.399C213.057 181.064 218.925 207.924 231.005 226.977C243.084 246.031 260.456 255.669 283.122 255.893C305.787 256.117 323.347 246.823 335.799 228.012C348.519 209.203 355.05 182.466 355.392 147.801C355.734 113.136 349.733 86.2756 337.387 67.2195C325.31 47.8993 307.939 38.1273 285.274 37.9036C262.608 37.6798 245.049 46.9736 232.596 65.7849C220.143 84.5962 213.744 111.468 213.399 146.399Z" fill="url(#paint0_linear)"/>
<path d="M459.623 72.8335L435.474 73.0457L435.581 85.1952L472.779 84.8684L472.869 95.068L435.67 95.3948L435.827 113.244L422.028 113.365L421.871 95.516L409.121 95.628L409.032 85.4284L421.781 85.3164L421.674 73.1669L408.925 73.2789L408.814 60.6794L421.564 60.5674L421.105 8.36939L459.054 8.03601C468.153 7.95607 475.931 11.0879 482.387 17.4314C488.842 23.6749 492.109 31.2965 492.188 40.2962C492.267 49.2958 489.135 56.9736 482.79 63.3296C476.445 69.5856 468.723 72.7536 459.623 72.8335ZM459.168 21.0855L435.019 21.2977L435.363 60.4461L459.512 60.234C464.612 60.1892 469.045 58.2502 472.812 54.4169C476.576 50.3837 478.436 45.7172 478.389 40.4174C478.341 34.9176 476.45 30.334 472.718 26.6667C468.885 22.9002 464.368 21.0398 459.168 21.0855Z" fill="url(#paint1_linear)"/>
<path d="M251.139 213.404C240.675 213.404 235.443 206.216 230.826 200.226C226.518 194.475 222.824 189.444 215.746 189.444C208.667 189.444 204.974 194.475 200.665 200.226C196.049 206.216 190.816 213.404 180.352 213.404C169.58 213.404 164.656 206.216 160.04 200.226C155.731 194.475 152.038 189.444 144.959 189.444C137.88 189.444 134.187 194.475 129.878 200.226C125.262 206.216 120.03 213.404 109.258 213.404C98.7937 213.404 93.5616 206.455 88.9451 200.226C84.6364 194.236 80.9431 189.204 73.8645 189.204C66.7858 189.204 63.0926 194.236 58.7838 199.986C54.1673 206.216 48.9352 213.404 38.4711 213.404C28.0069 213.404 22.7749 206.216 18.1583 200.226C13.8496 194.236 10.1564 189.204 3.07769 189.204C1.53884 189.204 0 188.246 0 186.808C0 185.371 1.23107 184.412 3.07769 184.412C13.5418 184.412 18.7739 191.361 23.3904 197.59C27.6992 203.58 31.3924 208.612 38.4711 208.612C45.5497 208.612 49.243 203.58 53.5517 197.83C58.1683 191.6 63.4003 184.652 73.8645 184.652C84.3286 184.652 89.5607 191.6 94.1772 197.83C98.4859 203.58 102.179 208.612 109.258 208.612C116.337 208.612 120.03 203.58 124.339 197.83C128.955 191.6 134.187 184.652 144.959 184.652C155.423 184.652 160.655 191.6 165.272 197.83C169.58 203.58 173.274 208.612 180.352 208.612C187.431 208.612 191.124 203.58 195.433 197.83C200.05 191.6 205.282 184.652 215.746 184.652C226.21 184.652 231.442 191.6 236.058 197.83C240.367 203.58 244.06 208.612 251.139 208.612C258.218 208.612 261.911 203.58 266.22 197.83C270.836 191.6 276.068 184.652 286.84 184.652C288.379 184.652 289.918 185.61 289.918 187.048C289.918 188.485 288.687 189.444 286.84 189.444C279.762 189.444 276.068 194.475 271.76 200.226C266.835 206.216 261.911 213.404 251.139 213.404Z" fill="#ACCE23"/>
<defs>
<linearGradient id="paint0_linear" x1="325.064" y1="578.697" x2="145.12" y2="543.499" gradientUnits="userSpaceOnUse">
<stop stop-color="#FD9B5C"/>
<stop offset="1" stop-color="#EB5760"/>
</linearGradient>
<linearGradient id="paint1_linear" x1="483.775" y1="237.129" x2="383.426" y2="212.285" gradientUnits="userSpaceOnUse">
<stop stop-color="#FD9B5C"/>
<stop offset="1" stop-color="#EB5760"/>
</linearGradient>
</defs>
</svg>
