<svg width="84" height="85" viewBox="0 0 84 85" fill="none" xmlns="http://www.w3.org/2000/svg">
<circle cx="42" cy="42.3477" r="41.5" fill="white" stroke="#E6E8E0"/>
<path d="M28.0183 48.3783C26.805 50.0943 25.0803 50.9523 22.8443 50.9523C20.6083 50.9523 18.8836 50.0943 17.6703 48.3783C16.4396 46.6449 15.8243 44.3569 15.8243 41.5143C15.8243 38.6716 16.4396 36.3836 17.6703 34.6503C18.8836 32.9343 20.6083 32.0763 22.8443 32.0763C25.0803 32.0763 26.805 32.9343 28.0183 34.6503C29.249 36.3836 29.8643 38.6716 29.8643 41.5143C29.8643 44.3569 29.249 46.6449 28.0183 48.3783ZM18.2423 41.5143C18.2423 43.7676 18.641 45.5096 19.4383 46.7403C20.2356 47.9709 21.371 48.5863 22.8443 48.5863C24.3176 48.5863 25.453 47.9709 26.2503 46.7403C27.065 45.5096 27.4723 43.7676 27.4723 41.5143C27.4723 39.2609 27.065 37.5189 26.2503 36.2883C25.453 35.0403 24.3176 34.4163 22.8443 34.4163C21.371 34.4163 20.2356 35.0316 19.4383 36.2623C18.641 37.4929 18.2423 39.2436 18.2423 41.5143ZM32.7401 47.9363H35.3401L33.6501 54.2543H31.7001L32.7401 47.9363ZM41.1883 39.5123H43.8403C45.5563 39.5123 47.0036 40.0236 48.1823 41.0463C49.3783 42.0689 49.9763 43.4643 49.9763 45.2323C49.9763 47.0176 49.3696 48.4129 48.1563 49.4183C46.9256 50.4409 45.4523 50.9523 43.7363 50.9523C42.315 50.9523 41.0583 50.6143 39.9663 49.9383C38.8916 49.2449 38.1463 48.2829 37.7303 47.0523L39.7843 45.8823C40.027 46.7489 40.495 47.4163 41.1883 47.8843C41.8816 48.3523 42.731 48.5863 43.7363 48.5863C44.8976 48.5863 45.825 48.2916 46.5183 47.7023C47.229 47.0956 47.5843 46.2723 47.5843 45.2323C47.5843 44.1923 47.229 43.3689 46.5183 42.7623C45.825 42.1556 44.915 41.8523 43.7883 41.8523H38.6403L39.3163 32.4143H49.2743V34.6763H41.5003L41.1883 39.5123ZM55.9677 40.1363C54.789 40.1363 53.8097 39.7463 53.0297 38.9663C52.2497 38.1863 51.8597 37.2329 51.8597 36.1063C51.8597 34.9969 52.2497 34.0523 53.0297 33.2723C53.827 32.4749 54.8064 32.0763 55.9677 32.0763C57.1464 32.0763 58.1257 32.4663 58.9057 33.2463C59.6857 34.0263 60.0757 34.9796 60.0757 36.1063C60.0757 37.2329 59.6857 38.1863 58.9057 38.9663C58.143 39.7463 57.1637 40.1363 55.9677 40.1363ZM53.8877 36.1063C53.8877 36.7129 54.0784 37.2243 54.4597 37.6403C54.8584 38.0389 55.361 38.2383 55.9677 38.2383C56.5744 38.2383 57.0684 38.0303 57.4497 37.6143C57.8484 37.1983 58.0477 36.6956 58.0477 36.1063C58.0477 35.5169 57.8484 35.0229 57.4497 34.6243C57.0684 34.2083 56.5744 34.0003 55.9677 34.0003C55.361 34.0003 54.8584 34.2083 54.4597 34.6243C54.0784 35.0229 53.8877 35.5169 53.8877 36.1063ZM54.3297 48.7683L53.0817 48.0403L65.1717 34.5203L66.4457 35.2223L54.3297 48.7683ZM67.9277 46.8963C67.9277 48.0229 67.5377 48.9763 66.7577 49.7563C65.9777 50.5363 64.9984 50.9263 63.8197 50.9263C62.641 50.9263 61.6617 50.5363 60.8817 49.7563C60.1017 48.9763 59.7117 48.0229 59.7117 46.8963C59.7117 45.7696 60.1017 44.8163 60.8817 44.0363C61.6617 43.2563 62.641 42.8663 63.8197 42.8663C64.9984 42.8663 65.9777 43.2563 66.7577 44.0363C67.5377 44.8163 67.9277 45.7696 67.9277 46.8963ZM62.3117 48.4043C62.7104 48.8029 63.213 49.0023 63.8197 49.0023C64.409 49.0023 64.903 48.8029 65.3017 48.4043C65.7004 47.9883 65.8997 47.4856 65.8997 46.8963C65.8997 46.3069 65.7004 45.8129 65.3017 45.4143C64.9204 44.9983 64.4264 44.7903 63.8197 44.7903C63.213 44.7903 62.7104 44.9983 62.3117 45.4143C61.9304 45.8129 61.7397 46.3069 61.7397 46.8963C61.7397 47.4856 61.9304 47.9883 62.3117 48.4043Z" fill="#F65E64"/>
</svg>
