<svg width="84" height="85" viewBox="0 0 84 85" fill="none" xmlns="http://www.w3.org/2000/svg">
<circle cx="42" cy="42.3477" r="41.5" fill="white" stroke="#E6E8E0"/>
<path d="M32.9344 38.7063C34.7544 38.7063 36.2538 39.2783 37.4324 40.4223C38.6111 41.5489 39.2004 43.0136 39.2004 44.8163C39.2004 46.6189 38.6111 48.0923 37.4324 49.2363C36.2538 50.3803 34.7544 50.9523 32.9344 50.9523C31.0798 50.9523 29.5718 50.3803 28.4104 49.2363C27.2491 48.0923 26.6684 46.6189 26.6684 44.8163C26.6684 43.3949 27.0324 42.1816 27.7604 41.1763L33.6104 32.4143H36.3664L32.0764 38.7583C32.5964 38.7236 32.8824 38.7063 32.9344 38.7063ZM32.9344 41.0203C31.7731 41.0203 30.8371 41.3669 30.1264 42.0603C29.4158 42.7536 29.0604 43.6723 29.0604 44.8163C29.0604 45.9603 29.4158 46.8876 30.1264 47.5983C30.8544 48.2916 31.7904 48.6383 32.9344 48.6383C34.0784 48.6383 35.0058 48.2916 35.7164 47.5983C36.4444 46.8876 36.8084 45.9603 36.8084 44.8163C36.8084 43.6723 36.4444 42.7536 35.7164 42.0603C35.0058 41.3669 34.0784 41.0203 32.9344 41.0203ZM44.6816 40.1363C43.5029 40.1363 42.5236 39.7463 41.7436 38.9663C40.9636 38.1863 40.5736 37.2329 40.5736 36.1063C40.5736 34.9969 40.9636 34.0523 41.7436 33.2723C42.5409 32.4749 43.5202 32.0763 44.6816 32.0763C45.8602 32.0763 46.8396 32.4663 47.6196 33.2463C48.3996 34.0263 48.7896 34.9796 48.7896 36.1063C48.7896 37.2329 48.3996 38.1863 47.6196 38.9663C46.8569 39.7463 45.8776 40.1363 44.6816 40.1363ZM42.6016 36.1063C42.6016 36.7129 42.7922 37.2243 43.1736 37.6403C43.5722 38.0389 44.0749 38.2383 44.6816 38.2383C45.2882 38.2383 45.7822 38.0303 46.1636 37.6143C46.5622 37.1983 46.7616 36.6956 46.7616 36.1063C46.7616 35.5169 46.5622 35.0229 46.1636 34.6243C45.7822 34.2083 45.2882 34.0003 44.6816 34.0003C44.0749 34.0003 43.5722 34.2083 43.1736 34.6243C42.7922 35.0229 42.6016 35.5169 42.6016 36.1063ZM43.0436 48.7683L41.7956 48.0403L53.8856 34.5203L55.1596 35.2223L43.0436 48.7683ZM56.6416 46.8963C56.6416 48.0229 56.2516 48.9763 55.4716 49.7563C54.6916 50.5363 53.7122 50.9263 52.5336 50.9263C51.3549 50.9263 50.3756 50.5363 49.5956 49.7563C48.8156 48.9763 48.4256 48.0229 48.4256 46.8963C48.4256 45.7696 48.8156 44.8163 49.5956 44.0363C50.3756 43.2563 51.3549 42.8663 52.5336 42.8663C53.7122 42.8663 54.6916 43.2563 55.4716 44.0363C56.2516 44.8163 56.6416 45.7696 56.6416 46.8963ZM51.0256 48.4043C51.4242 48.8029 51.9269 49.0023 52.5336 49.0023C53.1229 49.0023 53.6169 48.8029 54.0156 48.4043C54.4142 47.9883 54.6136 47.4856 54.6136 46.8963C54.6136 46.3069 54.4142 45.8129 54.0156 45.4143C53.6342 44.9983 53.1402 44.7903 52.5336 44.7903C51.9269 44.7903 51.4242 44.9983 51.0256 45.4143C50.6442 45.8129 50.4536 46.3069 50.4536 46.8963C50.4536 47.4856 50.6442 47.9883 51.0256 48.4043Z" fill="#F65E64"/>
</svg>
