<svg width="84" height="85" viewBox="0 0 84 85" fill="none" xmlns="http://www.w3.org/2000/svg">
<circle cx="42" cy="42.3477" r="41.5" fill="white" stroke="#E6E8E0"/>
<path d="M36.2068 48.3783C34.9934 50.0943 33.2688 50.9523 31.0328 50.9523C28.7968 50.9523 27.0721 50.0943 25.8588 48.3783C24.6281 46.6449 24.0128 44.3569 24.0128 41.5143C24.0128 38.6716 24.6281 36.3836 25.8588 34.6503C27.0721 32.9343 28.7968 32.0763 31.0328 32.0763C33.2688 32.0763 34.9934 32.9343 36.2068 34.6503C37.4374 36.3836 38.0528 38.6716 38.0528 41.5143C38.0528 44.3569 37.4374 46.6449 36.2068 48.3783ZM26.4308 41.5143C26.4308 43.7676 26.8294 45.5096 27.6268 46.7403C28.4241 47.9709 29.5594 48.5863 31.0328 48.5863C32.5061 48.5863 33.6414 47.9709 34.4388 46.7403C35.2534 45.5096 35.6608 43.7676 35.6608 41.5143C35.6608 39.2609 35.2534 37.5189 34.4388 36.2883C33.6414 35.0403 32.5061 34.4163 31.0328 34.4163C29.5594 34.4163 28.4241 35.0316 27.6268 36.2623C26.8294 37.4929 26.4308 39.2436 26.4308 41.5143ZM54.9757 43.6463H50.7897V45.7523H57.2377V47.5203H50.7897V50.6143H48.3977V47.5203H46.1877V45.7523H48.3977V43.6463H46.1877V41.4623H48.3977V32.4143H54.9757C56.5531 32.4143 57.8964 32.9689 59.0057 34.0783C60.1151 35.1703 60.6697 36.4963 60.6697 38.0563C60.6697 39.6163 60.1151 40.9423 59.0057 42.0343C57.8964 43.1089 56.5531 43.6463 54.9757 43.6463ZM54.9757 34.6763H50.7897V41.4623H54.9757C55.8597 41.4623 56.6311 41.1329 57.2897 40.4743C57.9484 39.7809 58.2777 38.9749 58.2777 38.0563C58.2777 37.1029 57.9571 36.3056 57.3157 35.6643C56.6571 35.0056 55.8771 34.6763 54.9757 34.6763Z" fill="#F65E64"/>
</svg>
