<svg width="85" height="85" viewBox="0 0 85 85" fill="none" xmlns="http://www.w3.org/2000/svg">
<circle cx="42.9863" cy="42.2471" r="42" fill="white"/>
<path d="M37.1931 48.2777C35.9798 49.9937 34.2551 50.8517 32.0191 50.8517C29.7831 50.8517 28.0584 49.9937 26.8451 48.2777C25.6144 46.5443 24.9991 44.2563 24.9991 41.4137C24.9991 38.571 25.6144 36.283 26.8451 34.5497C28.0584 32.8337 29.7831 31.9757 32.0191 31.9757C34.2551 31.9757 35.9798 32.8337 37.1931 34.5497C38.4238 36.283 39.0391 38.571 39.0391 41.4137C39.0391 44.2563 38.4238 46.5443 37.1931 48.2777ZM27.4171 41.4137C27.4171 43.667 27.8158 45.409 28.6131 46.6397C29.4104 47.8703 30.5458 48.4857 32.0191 48.4857C33.4924 48.4857 34.6278 47.8703 35.4251 46.6397C36.2398 45.409 36.6471 43.667 36.6471 41.4137C36.6471 39.1603 36.2398 37.4183 35.4251 36.1877C34.6278 34.9397 33.4924 34.3157 32.0191 34.3157C30.5458 34.3157 29.4104 34.931 28.6131 36.1617C27.8158 37.3923 27.4171 39.143 27.4171 41.4137ZM55.9621 43.5457H51.7761V45.6517H58.2241V47.4197H51.7761V50.5137H49.3841V47.4197H47.1741V45.6517H49.3841V43.5457H47.1741V41.3617H49.3841V32.3137H55.9621C57.5394 32.3137 58.8827 32.8683 59.9921 33.9777C61.1014 35.0697 61.6561 36.3957 61.6561 37.9557C61.6561 39.5157 61.1014 40.8417 59.9921 41.9337C58.8827 43.0083 57.5394 43.5457 55.9621 43.5457ZM55.9621 34.5757H51.7761V41.3617H55.9621C56.8461 41.3617 57.6174 41.0323 58.2761 40.3737C58.9347 39.6803 59.2641 38.8743 59.2641 37.9557C59.2641 37.0023 58.9434 36.205 58.3021 35.5637C57.6434 34.905 56.8634 34.5757 55.9621 34.5757Z" fill="#F65E64"/>
</svg>
