<svg width="85" height="85" viewBox="0 0 85 85" fill="none" xmlns="http://www.w3.org/2000/svg">
<circle cx="42.9863" cy="42.2744" r="42" fill="white"/>
<path d="M35.4538 48.305C34.2405 50.021 32.5158 50.879 30.2798 50.879C28.0438 50.879 26.3192 50.021 25.1058 48.305C23.8752 46.5717 23.2598 44.2837 23.2598 41.441C23.2598 38.5983 23.8752 36.3103 25.1058 34.577C26.3192 32.861 28.0438 32.003 30.2798 32.003C32.5158 32.003 34.2405 32.861 35.4538 34.577C36.6845 36.3103 37.2998 38.5983 37.2998 41.441C37.2998 44.2837 36.6845 46.5717 35.4538 48.305ZM25.6778 41.441C25.6778 43.6943 26.0765 45.4363 26.8738 46.667C27.6712 47.8977 28.8065 48.513 30.2798 48.513C31.7532 48.513 32.8885 47.8977 33.6858 46.667C34.5005 45.4363 34.9078 43.6943 34.9078 41.441C34.9078 39.1877 34.5005 37.4457 33.6858 36.215C32.8885 34.967 31.7532 34.343 30.2798 34.343C28.8065 34.343 27.6712 34.9583 26.8738 36.189C26.0765 37.4197 25.6778 39.1703 25.6778 41.441ZM50.5048 40.063C49.3261 40.063 48.3468 39.673 47.5668 38.893C46.7868 38.113 46.3968 37.1597 46.3968 36.033C46.3968 34.9237 46.7868 33.979 47.5668 33.199C48.3641 32.4017 49.3435 32.003 50.5048 32.003C51.6835 32.003 52.6628 32.393 53.4428 33.173C54.2228 33.953 54.6128 34.9063 54.6128 36.033C54.6128 37.1597 54.2228 38.113 53.4428 38.893C52.6801 39.673 51.7008 40.063 50.5048 40.063ZM48.4248 36.033C48.4248 36.6397 48.6155 37.151 48.9968 37.567C49.3955 37.9657 49.8981 38.165 50.5048 38.165C51.1115 38.165 51.6055 37.957 51.9868 37.541C52.3855 37.125 52.5848 36.6223 52.5848 36.033C52.5848 35.4437 52.3855 34.9497 51.9868 34.551C51.6055 34.135 51.1115 33.927 50.5048 33.927C49.8981 33.927 49.3955 34.135 48.9968 34.551C48.6155 34.9497 48.4248 35.4437 48.4248 36.033ZM48.8668 48.695L47.6188 47.967L59.7088 34.447L60.9828 35.149L48.8668 48.695ZM62.4648 46.823C62.4648 47.9497 62.0748 48.903 61.2948 49.683C60.5148 50.463 59.5355 50.853 58.3568 50.853C57.1781 50.853 56.1988 50.463 55.4188 49.683C54.6388 48.903 54.2488 47.9497 54.2488 46.823C54.2488 45.6963 54.6388 44.743 55.4188 43.963C56.1988 43.183 57.1781 42.793 58.3568 42.793C59.5355 42.793 60.5148 43.183 61.2948 43.963C62.0748 44.743 62.4648 45.6963 62.4648 46.823ZM56.8488 48.331C57.2475 48.7297 57.7501 48.929 58.3568 48.929C58.9461 48.929 59.4401 48.7297 59.8388 48.331C60.2375 47.915 60.4368 47.4123 60.4368 46.823C60.4368 46.2337 60.2375 45.7397 59.8388 45.341C59.4575 44.925 58.9635 44.717 58.3568 44.717C57.7501 44.717 57.2475 44.925 56.8488 45.341C56.4675 45.7397 56.2768 46.2337 56.2768 46.823C56.2768 47.4123 56.4675 47.915 56.8488 48.331Z" fill="#F65E64"/>
</svg>
