<svg width="84" height="84" viewBox="0 0 84 84" fill="none" xmlns="http://www.w3.org/2000/svg">
<circle cx="42" cy="42" r="41.5" stroke="#E6E8E0"/>
<path d="M21.6147 48.0871H20.2545C19.0113 48.0871 18 47.0841 18 45.8514V28.2357C18 27.0029 19.0113 26 20.2545 26H55.7456C56.9886 26 58 27.0029 58 28.2357V34.4064" stroke="#F65E64" stroke-width="2" stroke-linecap="round"/>
<path d="M45.1208 35.1738C43.9814 32.5825 41.4164 30.9082 38.5864 30.9082C35.7585 30.9082 33.1945 32.5806 32.054 35.169C31.9127 35.4899 32.0581 35.8646 32.379 36.006C32.7002 36.1474 33.0747 36.0018 33.216 35.681C34.1536 33.553 36.2616 32.1781 38.5864 32.1781C40.913 32.1781 43.0216 33.5546 43.9585 35.6849C44.063 35.9227 44.2957 36.0643 44.54 36.0643C44.6253 36.0643 44.712 36.047 44.7952 36.0105C45.1161 35.8695 45.262 35.4949 45.1208 35.1738Z" fill="#F65E64"/>
<path d="M44.1165 40.9062C40.1822 40.9062 36.9814 44.107 36.9814 48.0413C36.9814 51.9756 40.1822 55.1764 44.1165 55.1764C48.0509 55.1764 51.2517 51.9756 51.2517 48.0413C51.2517 44.107 48.0509 40.9062 44.1165 40.9062ZM44.1165 53.9067C40.8823 53.9067 38.2512 51.2755 38.2512 48.0414C38.2512 44.8072 40.8823 42.1761 44.1165 42.1761C47.3507 42.1761 49.9819 44.8073 49.9819 48.0414C49.9819 51.2755 47.3507 53.9067 44.1165 53.9067Z" fill="#F65E64"/>
<path d="M44.9974 49.4124H43.4341V50.2007H45.5444C45.7978 50.2007 46.0032 50.4062 46.0032 50.6595C46.0032 50.913 45.7978 51.1184 45.5444 51.1184H43.4341V51.784C43.4341 52.1312 43.1526 52.4126 42.8054 52.4126C42.4583 52.4126 42.1768 52.1312 42.1768 51.784V51.1184H41.7611C41.5077 51.1184 41.3022 50.913 41.3022 50.6595C41.3022 50.4062 41.5077 50.2007 41.7611 50.2007H42.1768V49.4124H41.9081C41.5735 49.4124 41.3022 49.1411 41.3022 48.8065C41.3022 48.4718 41.5735 48.2006 41.9081 48.2006H42.1768V44.1768H44.9974C45.6898 44.1768 46.2765 44.4356 46.7576 44.9533C47.2386 45.4631 47.4791 46.0867 47.4791 46.824C47.4791 47.5534 47.2386 48.1692 46.7576 48.6712C46.2765 49.1653 45.6898 49.4124 44.9974 49.4124ZM43.4341 45.4474V48.2006H44.9974C45.34 48.2006 45.6279 48.0672 45.8611 47.8005C46.1016 47.5339 46.2219 47.2084 46.2219 46.824C46.2219 46.4396 46.1016 46.1141 45.8611 45.8474C45.6279 45.5807 45.34 45.4474 44.9974 45.4474H43.4341Z" fill="#F65E64"/>
<path d="M25 40C25 38.8954 25.8954 38 27 38H61C62.1046 38 63 38.8954 63 40V56C63 57.1046 62.1046 58 61 58H27C25.8954 58 25 57.1046 25 56V40Z" stroke="#F65E64" stroke-width="2"/>
</svg>
