<svg width="85" height="84" viewBox="0 0 85 84" fill="none" xmlns="http://www.w3.org/2000/svg">
<circle cx="42.6172" cy="42" r="41.5" fill="white" stroke="#E6E8E0"/>
<path d="M37.0723 25.2099V24C37.0723 22.3431 38.4154 21 40.0723 21H56.525C58.1819 21 59.525 22.3431 59.525 24V60.0989C59.525 61.7557 58.1819 63.0989 56.525 63.0989H40.0723C38.4154 63.0989 37.0723 61.7557 37.0723 60.0989V49.943" stroke="#F65E64" stroke-width="2"/>
<rect x="16" y="28.4912" width="33.4332" height="17.1199" rx="8.55995" fill="white" stroke="#F65E64" stroke-width="2"/>
<circle cx="48.2985" cy="58.0592" r="1.52115" fill="#F65E64"/>
<path d="M26.01 40.11C27.4 40.11 28.31 39.35 28.31 38.19C28.31 36.98 27.23 36.59 25.99 36.18C24.99 35.85 24.28 35.59 24.28 34.75C24.28 33.97 24.89 33.4 25.86 33.4C26.86 33.4 27.4 33.98 27.66 34.61L28.11 34.36C27.77 33.55 27.01 32.89 25.86 32.89C24.67 32.89 23.74 33.62 23.74 34.77C23.74 35.99 24.79 36.32 25.96 36.7C27.03 37.04 27.77 37.36 27.77 38.2C27.77 39 27.18 39.6 26.01 39.6C24.86 39.6 24.15 39.03 23.91 38.19L23.45 38.46C23.77 39.45 24.7 40.11 26.01 40.11ZM35.8934 33H35.2234L32.7234 37.14L30.2234 33H29.5634V40H30.0934V33.78L32.6834 38.08H32.7734L35.3634 33.78V40H35.8934V33ZM39.6721 40.11C41.0621 40.11 41.9721 39.35 41.9721 38.19C41.9721 36.98 40.8921 36.59 39.6521 36.18C38.6521 35.85 37.9421 35.59 37.9421 34.75C37.9421 33.97 38.5521 33.4 39.5221 33.4C40.5221 33.4 41.0621 33.98 41.3221 34.61L41.7721 34.36C41.4321 33.55 40.6721 32.89 39.5221 32.89C38.3321 32.89 37.4021 33.62 37.4021 34.77C37.4021 35.99 38.4521 36.32 39.6221 36.7C40.6921 37.04 41.4321 37.36 41.4321 38.2C41.4321 39 40.8421 39.6 39.6721 39.6C38.5221 39.6 37.8121 39.03 37.5721 38.19L37.1121 38.46C37.4321 39.45 38.3621 40.11 39.6721 40.11Z" fill="black"/>
</svg>
