<svg width="84" height="84" viewBox="0 0 84 84" fill="none" xmlns="http://www.w3.org/2000/svg">
<circle cx="42" cy="42" r="41.5" fill="white" stroke="#E6E8E0"/>
<path fill-rule="evenodd" clip-rule="evenodd" d="M39.295 30.8239H46.192H46.197C49.233 30.8239 51.705 33.2939 51.708 36.3409C51.71 39.3799 49.239 41.8539 46.191 41.8559H39.295V30.8239ZM46.202 43.8559H39.295V47.0699H50.792C51.344 47.0699 51.792 47.5169 51.792 48.0699C51.792 48.6219 51.344 49.0699 50.792 49.0699H39.295V53.4359C39.295 53.9889 38.847 54.4359 38.295 54.4359C37.743 54.4359 37.295 53.9889 37.295 53.4359V49.0699H34.462C33.91 49.0699 33.462 48.6219 33.462 48.0699C33.462 47.5169 33.91 47.0699 34.462 47.0699H37.295V43.8559H34.462C33.91 43.8559 33.462 43.4079 33.462 42.8559C33.462 42.3029 33.91 41.8559 34.462 41.8559H37.295V29.8239C37.295 29.2719 37.743 28.8239 38.295 28.8239C38.309 28.8239 38.32 28.8309 38.334 28.8319C38.347 28.8309 38.358 28.8239 38.372 28.8239H42.2815H44.2362H46.191H46.197C48.201 28.8239 50.085 29.6039 51.503 31.0199C52.923 32.4369 53.706 34.3229 53.708 36.3289C53.71 40.4809 50.342 43.8529 46.202 43.8559ZM65.9439 58.9445C66.0769 59.4805 65.7499 60.0225 65.2139 60.1555C65.1319 60.1745 65.0519 60.1845 64.9719 60.1845C64.5229 60.1845 64.1149 59.8805 64.0029 59.4245L62.9799 55.2885C60.9689 58.3125 58.2879 60.8615 55.1519 62.7045C51.4179 64.8985 47.2559 66.0205 43.0359 66.0205C41.0099 66.0205 38.9709 65.7625 36.9589 65.2395C30.7539 63.6275 25.5479 59.6955 22.3009 54.1685C15.5989 42.7575 19.4279 28.0205 30.8389 21.3175C36.3649 18.0695 42.8249 17.1685 49.0319 18.7825C55.2359 20.3945 60.4409 24.3265 63.6879 29.8545C63.9669 30.3305 63.8079 30.9435 63.3329 31.2235C62.8559 31.5025 62.2429 31.3445 61.9639 30.8675C58.9869 25.8005 54.2149 22.1955 48.5279 20.7175C42.8429 19.2395 36.9189 20.0655 31.8509 23.0415C21.3919 29.1865 17.8819 42.6945 24.0259 53.1545C27.0029 58.2215 31.7739 61.8255 37.4619 63.3035C43.1529 64.7835 49.0739 63.9565 54.1379 60.9795C57.0189 59.2885 59.4799 56.9445 61.3249 54.1655L56.6119 55.2535C56.0779 55.3815 55.5369 55.0415 55.4129 54.5035C55.2889 53.9655 55.6249 53.4275 56.1629 53.3035L63.1379 51.6945C63.6699 51.5685 64.2029 51.8985 64.3339 52.4285L65.9439 58.9445Z" fill="#F65E64"/>
</svg>
