<svg xmlns="http://www.w3.org/2000/svg" width="144" height="36" viewBox="0 0 144 36"><defs><linearGradient id="4gr7a" x1="134.26" x2="121.43" y1="59.97" y2="0" gradientUnits="userSpaceOnUse"><stop offset="0" stop-color="#fd9b5c"/><stop offset="1" stop-color="#eb5760"/></linearGradient></defs><g><g><g/><g><path fill="url(#4gr7a)" d="M143.96 18c0 9.941-8.283 18-18.5 18s-18.5-8.059-18.5-18 8.283-18 18.5-18 18.5 8.059 18.5 18z"/></g><g opacity=".1"><path fill="#fff" d="M137.774 13.723c0 4.254-3.545 7.703-7.917 7.703s-7.917-3.449-7.917-7.703c0-4.254 3.545-7.703 7.917-7.703s7.917 3.449 7.917 7.703z"/></g></g><g><path fill="#acce23" d="M101.593 34.45c-4.233 0-6.35-3.198-8.217-5.863-1.743-2.559-3.237-4.798-6.1-4.798-2.864 0-4.358 2.239-6.101 4.798-1.867 2.665-3.984 5.864-8.217 5.864-4.358 0-6.35-3.199-8.217-5.864-1.743-2.559-3.237-4.798-6.1-4.798-2.864 0-4.358 2.239-6.101 4.798-1.868 2.665-3.984 5.864-8.342 5.864-4.233 0-6.35-3.092-8.217-5.864-1.743-2.666-3.237-4.905-6.1-4.905-2.864 0-4.358 2.24-6.101 4.798-1.868 2.772-3.984 5.97-8.217 5.97-4.233 0-6.35-3.198-8.217-5.863-1.743-2.666-3.237-4.905-6.101-4.905-.622 0-1.245-.426-1.245-1.066 0-.64.498-1.066 1.245-1.066 4.233 0 6.35 3.092 8.217 5.864 1.743 2.665 3.237 4.904 6.1 4.904 2.864 0 4.358-2.239 6.101-4.797 1.868-2.772 3.984-5.864 8.217-5.864 4.233 0 6.35 3.092 8.218 5.864 1.743 2.558 3.237 4.797 6.1 4.797 2.864 0 4.358-2.239 6.1-4.797 1.868-2.772 3.985-5.864 8.342-5.864 4.233 0 6.35 3.092 8.217 5.864 1.743 2.558 3.237 4.797 6.1 4.797 2.864 0 4.359-2.239 6.102-4.797 1.867-2.772 3.984-5.864 8.217-5.864 4.233 0 6.35 3.092 8.217 5.864 1.743 2.558 3.237 4.797 6.1 4.797 2.864 0 4.358-2.239 6.101-4.797 1.867-2.772 3.984-5.864 8.341-5.864.623 0 1.245.426 1.245 1.066 0 .64-.498 1.066-1.245 1.066-2.863 0-4.357 2.239-6.1 4.798-1.992 2.665-3.984 5.864-8.342 5.864z"/></g></g></svg>