<svg width="85" height="84" viewBox="0 0 85 84" fill="none" xmlns="http://www.w3.org/2000/svg">
<circle cx="42.25" cy="42" r="41.5" stroke="#E6E8E0"/>
<circle cx="42.25" cy="42" r="21.5" stroke="#F65E64" stroke-width="2"/>
<path d="M45.05 45.1H39.65V47.92H47.45V49.66H39.65V53.5H37.55V49.66H34.85V47.92H37.55V45.1H34.85V43.12H37.55V32.5H45.05C46.77 32.5 48.25 33.12 49.49 34.36C50.73 35.6 51.35 37.08 51.35 38.8C51.35 40.52 50.73 42 49.49 43.24C48.25 44.48 46.77 45.1 45.05 45.1ZM45.05 34.48H39.65V43.12H45.05C46.21 43.12 47.2 42.7 48.02 41.86C48.84 40.98 49.25 39.96 49.25 38.8C49.25 37.62 48.84 36.6 48.02 35.74C47.2 34.9 46.21 34.48 45.05 34.48Z" fill="#F65E64"/>
</svg>
