<svg width="84" height="85" viewBox="0 0 84 85" fill="none" xmlns="http://www.w3.org/2000/svg">
<path d="M83.5 42.8809C83.5 65.8007 64.9198 84.3809 42 84.3809C19.0802 84.3809 0.5 65.8007 0.5 42.8809C0.5 19.961 19.0802 1.38086 42 1.38086C64.9198 1.38086 83.5 19.961 83.5 42.8809Z" fill="white" stroke="#E6E8E0"/>
<path fill-rule="evenodd" clip-rule="evenodd" d="M24.2392 24.7764H59.7638C60.6748 24.7764 61.5027 25.1533 62.1019 25.7605C62.701 26.3673 63.0736 27.2062 63.0736 28.1294V57.6334C63.0736 58.5561 62.701 59.3951 62.1019 60.0019L62.0586 60.042C61.4615 60.6263 60.6516 60.9864 59.7638 60.9864H24.2392C23.3284 60.9864 22.5004 60.609 21.9013 60.0019C21.3022 59.3951 20.9297 58.5557 20.9297 57.6334V33.393V28.1294C20.9297 27.2062 21.3022 26.3673 21.9013 25.7605C22.5004 25.1533 23.3284 24.7764 24.2392 24.7764ZM36.4977 52.4512C40.8208 52.4893 45.2656 51.4627 49.3376 49.0116C52.9205 46.854 56.2115 43.5972 58.8712 38.9966C59.0601 38.6705 58.9521 38.2503 58.6299 38.059C58.3077 37.8681 57.8931 37.9772 57.7042 38.3036C55.1699 42.6873 52.0445 45.7841 48.6481 47.8289C44.7987 50.1465 40.5963 51.117 36.5082 51.0805C36.1348 51.0777 35.8294 51.3821 35.8267 51.7606C35.824 52.1388 36.1244 52.4484 36.4977 52.4512ZM35.7371 43.5319H42.8363C43.2112 43.5319 43.5154 43.2235 43.5154 42.8437C43.5154 42.4639 43.2112 42.1559 42.8363 42.1559H35.7371C35.3622 42.1559 35.0581 42.4639 35.0581 42.8437C35.0581 43.2235 35.3622 43.5319 35.7371 43.5319ZM35.7371 39.2673H42.8363C43.2112 39.2673 43.5154 38.9593 43.5154 38.5799C43.5154 38.2001 43.2112 37.8917 42.8363 37.8917H35.7371C35.3622 37.8917 35.0581 38.2001 35.0581 38.5799C35.0581 38.9593 35.3622 39.2673 35.7371 39.2673ZM25.7148 53.2292H30.378C30.7528 53.2292 31.057 52.9212 31.057 52.5419C31.057 52.1621 30.7528 51.8537 30.378 51.8537H25.7148C25.34 51.8537 25.0358 52.1621 25.0358 52.5419C25.0358 52.9212 25.34 53.2292 25.7148 53.2292ZM25.7148 49.0693H32.2572C32.632 49.0693 32.9361 48.7609 32.9361 48.3811C32.9361 48.0018 32.632 47.6938 32.2572 47.6938H25.7148C25.34 47.6938 25.0358 48.0018 25.0358 48.3811C25.0358 48.7609 25.34 49.0693 25.7148 49.0693ZM27.1285 37.9623C26.5559 37.9623 26.0343 38.1997 25.6528 38.5847L25.65 38.5875C25.2707 38.9725 25.0358 39.5019 25.0358 40.0826V43.2824C25.0358 43.8623 25.27 44.3913 25.65 44.7779L25.6528 44.7803C26.033 45.1645 26.5553 45.4027 27.1285 45.4027H30.2867C30.8629 45.4027 31.3864 45.1641 31.7639 44.7791C32.1439 44.3937 32.3796 43.8639 32.3796 43.2824V40.0826C32.3796 39.5239 32.1617 39.0118 31.807 38.6308L31.7654 38.5847C31.3864 38.2005 30.8629 37.9623 30.2867 37.9623H27.1285ZM30.2867 39.3383H27.1285C26.9258 39.3383 26.7418 39.4209 26.6102 39.5544L26.6076 39.5572C26.4759 39.6908 26.3938 39.8768 26.3938 40.0826V43.2824C26.3938 43.4881 26.4759 43.6738 26.6076 43.8074L26.6102 43.8098C26.7418 43.9437 26.9258 44.0267 27.1285 44.0267H30.2867C30.4877 44.0267 30.6718 43.9429 30.8052 43.8074H30.808C30.9395 43.6738 31.0217 43.4881 31.0217 43.2824V40.0826C31.0217 39.8901 30.9496 39.714 30.8322 39.5829L30.8052 39.5572C30.6718 39.4221 30.4877 39.3383 30.2867 39.3383ZM59.0212 27.7376C58.6128 27.7376 58.2426 27.906 57.9751 28.1767C57.7075 28.4482 57.5416 28.8228 57.5416 29.2367C57.5416 29.6485 57.7075 30.0227 57.975 30.2938L57.9777 30.2966C58.2454 30.5677 58.6147 30.7357 59.0212 30.7357C59.4297 30.7357 59.7998 30.5677 60.0672 30.2966V30.2938C60.3347 30.0227 60.5005 29.6485 60.5005 29.2367C60.5005 28.8489 60.3534 28.4951 60.1134 28.2289L60.0672 28.1767C59.7998 27.906 59.4297 27.7376 59.0212 27.7376ZM59.1071 29.1496C59.0854 29.1276 59.0546 29.1135 59.0212 29.1135C58.9878 29.1135 58.9571 29.1276 58.9353 29.1496C58.9134 29.1721 58.8996 29.203 58.8996 29.2367C58.8996 29.2711 58.9126 29.3024 58.933 29.3245C58.9562 29.3465 58.9871 29.3598 59.0212 29.3598C59.0546 29.3598 59.0854 29.3457 59.1071 29.3237C59.1295 29.3032 59.1426 29.2715 59.1426 29.2367C59.1426 29.2086 59.1342 29.1829 59.12 29.1625L59.1071 29.1496ZM55.0528 27.7376C54.6444 27.7376 54.2742 27.906 54.0069 28.1767C53.7393 28.4482 53.5734 28.8228 53.5734 29.2367C53.5734 29.6485 53.7393 30.0227 54.0066 30.2938L54.0093 30.2966C54.2772 30.5677 54.6463 30.7357 55.0528 30.7357C55.4613 30.7357 55.8313 30.5677 56.0989 30.2966C56.3663 30.0255 56.5321 29.6505 56.5321 29.2367C56.5321 28.8252 56.3663 28.451 56.0989 28.1791L56.0962 28.1767C55.8283 27.906 55.459 27.7376 55.0528 27.7376ZM55.1408 29.1492C55.1176 29.1268 55.0869 29.1135 55.0528 29.1135C55.0195 29.1135 54.9887 29.1276 54.967 29.1496C54.9451 29.1721 54.9313 29.203 54.9313 29.2367C54.9313 29.2711 54.9442 29.3024 54.9648 29.3245C54.9879 29.3465 55.0188 29.3598 55.0528 29.3598C55.0863 29.3598 55.1168 29.3457 55.1387 29.3237C55.1604 29.3016 55.1742 29.2703 55.1742 29.2367C55.1742 29.2018 55.1613 29.1709 55.1408 29.1492ZM51.0846 27.7376C50.6761 27.7376 50.3059 27.906 50.0385 28.1767C49.7709 28.4482 49.605 28.8228 49.605 29.2367C49.605 29.6485 49.7709 30.0227 50.0383 30.2938L50.041 30.2966C50.3088 30.5677 50.678 30.7357 51.0846 30.7357C51.493 30.7357 51.863 30.5677 52.1306 30.2966C52.398 30.0255 52.5639 29.6505 52.5639 29.2367C52.5639 28.8252 52.398 28.451 52.1306 28.1791L52.1278 28.1767C51.86 27.906 51.4907 27.7376 51.0846 27.7376ZM51.1725 29.1492C51.1494 29.1268 51.1186 29.1135 51.0846 29.1135C51.0511 29.1135 51.0204 29.1276 50.9987 29.1496C50.9767 29.1721 50.9629 29.203 50.9629 29.2367C50.9629 29.2711 50.9759 29.3024 50.9964 29.3245C51.0196 29.3465 51.0505 29.3598 51.0846 29.3598C51.118 29.3598 51.1485 29.3457 51.1704 29.3237C51.1922 29.3016 51.206 29.2703 51.206 29.2367C51.206 29.2018 51.1929 29.1709 51.1725 29.1492ZM22.2876 32.7048H61.7156V28.1294C61.7156 27.586 61.4956 27.0919 61.1417 26.733C60.7878 26.3749 60.2997 26.1523 59.7638 26.1523H24.2392C23.7034 26.1523 23.2154 26.3749 22.8615 26.733C22.5076 27.0919 22.2876 27.586 22.2876 28.1294V32.7048ZM61.7156 34.0807H22.2876V57.6334C22.2876 58.176 22.5076 58.6704 22.8615 59.029C23.2154 59.3879 23.7034 59.6105 24.2392 59.6105H59.7638C60.2866 59.6105 60.7621 59.4011 61.1118 59.0614L61.1417 59.029C61.4956 58.6704 61.7156 58.1764 61.7156 57.6334V34.0807Z" fill="#F65E64"/>
</svg>
