<svg width="85" height="84" viewBox="0 0 85 84" fill="none" xmlns="http://www.w3.org/2000/svg">
<circle cx="42.7969" cy="42" r="41.5" stroke="#E6E8E0"/>
<path d="M37.0049 31.9557L50.4044 22.1458C50.7404 21.9 51.2075 21.9737 51.4534 22.3015C51.5517 22.4408 51.6009 22.5966 51.6009 22.7523V34.3569C51.6664 34.3487 51.732 34.3487 51.7976 34.3487C53.24 34.3487 54.5512 34.9388 55.5019 35.8895L55.5429 35.9304C56.4607 36.8811 57.0344 38.176 57.0344 39.602C57.0344 41.0526 56.4444 42.3638 55.5019 43.3145C54.5512 44.2651 53.24 44.8552 51.7976 44.8552C51.732 44.8552 51.6664 44.8552 51.6009 44.847V57.0745C51.6009 57.4925 51.2649 57.8285 50.8469 57.8285C50.6584 57.8285 50.4863 57.7629 50.3552 57.6482L37.0049 47.6662H33.1941V59.361C33.1941 60.5576 32.7023 61.6393 31.9238 62.4261C31.137 63.2129 30.0552 63.7046 28.8669 63.7046C27.6704 63.7046 26.5886 63.2129 25.81 62.4261C25.0233 61.6393 24.5397 60.5576 24.5397 59.361V47.658C22.4991 47.5843 20.6551 46.7156 19.2947 45.3633C17.8769 43.9373 17 41.9704 17 39.815C17 37.6515 17.8769 35.6846 19.2947 34.2668C20.7207 32.8408 22.6794 31.9557 24.8348 31.9557H37.0049ZM54.2152 32.2917C55.6822 32.9555 56.9197 34.0291 57.7884 35.3732C58.6243 36.668 59.1079 38.2169 59.1079 39.8806C59.1079 41.5525 58.6243 43.1014 57.7884 44.3963C56.9197 45.7321 55.6822 46.8139 54.2152 47.4695C53.8382 47.6416 53.6661 48.0842 53.8382 48.4612C54.0021 48.8382 54.4447 49.0103 54.8217 48.8382C56.5591 48.0596 58.0179 46.7893 59.0423 45.2076C60.0339 43.6751 60.6076 41.8475 60.6076 39.8806C60.6076 37.9219 60.0339 36.0943 59.0423 34.5536C58.0179 32.9719 56.5591 31.7016 54.8217 30.9231C54.4447 30.7592 54.0021 30.9313 53.8382 31.3082C53.6661 31.6852 53.8382 32.1278 54.2152 32.2917ZM54.3463 25.5879C57.5835 26.391 60.3945 28.2678 62.386 30.8165C64.3365 33.3161 65.5002 36.4631 65.5002 39.8806C65.5002 43.3145 64.3283 46.4697 62.3696 48.9693C60.3699 51.5262 57.5425 53.403 54.2972 54.1897C53.8956 54.2881 53.6497 54.6897 53.7481 55.0912C53.8464 55.4928 54.248 55.7469 54.6496 55.6485C58.2309 54.7716 61.3452 52.7064 63.5497 49.8954C65.7133 47.1335 67 43.6587 67 39.8806C67 36.1189 65.7215 32.6523 63.5661 29.8986C61.3698 27.0794 58.2719 25.0142 54.7069 24.1291C54.3054 24.0308 53.8956 24.2766 53.7972 24.6782C53.6989 25.088 53.9448 25.4895 54.3463 25.5879ZM54.2808 28.9316C56.6328 29.6774 58.6489 31.1607 60.0749 33.1112C61.4599 35.0044 62.2713 37.3482 62.2713 39.8806C62.2713 42.4212 61.4517 44.7733 60.0667 46.6664C58.6407 48.6169 56.6083 50.1002 54.2644 50.8378C53.8628 50.9608 53.6415 51.3869 53.7645 51.7803C53.8874 52.1819 54.3136 52.4031 54.7069 52.272C57.3704 51.4361 59.6569 49.7642 61.2714 47.5597C62.8449 45.4043 63.771 42.749 63.771 39.8806C63.771 37.0204 62.8449 34.3733 61.2796 32.2179C59.6733 30.0134 57.3868 28.3415 54.7315 27.4974C54.3381 27.3745 53.9202 27.5957 53.789 27.9891C53.6661 28.3825 53.8874 28.8087 54.2808 28.9316ZM31.6943 47.6662H26.0395V59.361C26.0395 60.1396 26.3591 60.8526 26.8672 61.3607C27.3835 61.877 28.0883 62.1966 28.8669 62.1966C29.6373 62.1966 30.3503 61.877 30.8584 61.3607C31.3747 60.8526 31.6943 60.1396 31.6943 59.361V47.6662ZM51.6009 35.8567V43.3473C51.6583 43.3473 51.7238 43.3473 51.7976 43.3473C52.8302 43.3473 53.7645 42.9293 54.4365 42.2491C55.1167 41.5771 55.5347 40.6346 55.5347 39.602C55.5347 38.5857 55.1331 37.6597 54.4775 36.9876L54.4365 36.9549C53.7645 36.2746 52.8302 35.8567 51.7976 35.8567C51.7238 35.8567 51.6583 35.8567 51.6009 35.8567ZM50.1011 44.1012C50.0929 44.0357 50.0929 43.9701 50.1011 43.8963V24.2274L37.9966 33.0948V46.5353L50.1011 55.583V44.1012ZM36.4968 46.1665V33.4636H24.8348C23.0892 33.4636 21.5075 34.1766 20.3601 35.3322C19.2128 36.4795 18.4998 38.0694 18.4998 39.815C18.4998 41.5607 19.2128 43.1424 20.3601 44.2979C21.5075 45.4453 23.0892 46.1665 24.8348 46.1665H25.2855H32.4401H36.4968Z" fill="#F65E64"/>
</svg>
