<svg width="84" height="85" viewBox="0 0 84 85" fill="none" xmlns="http://www.w3.org/2000/svg">
<path d="M83.5 42.7529C83.5 65.6727 64.9198 84.2529 42 84.2529C19.0802 84.2529 0.5 65.6727 0.5 42.7529C0.5 19.8331 19.0802 1.25293 42 1.25293C64.9198 1.25293 83.5 19.8331 83.5 42.7529Z" fill="white" stroke="#E6E8E0"/>
<path fill-rule="evenodd" clip-rule="evenodd" d="M21.8047 48.3263C21.8047 48.7326 22.2038 49.0576 22.6029 49.0576C22.6029 49.0576 22.6029 49.0576 22.6827 49.0576C37.0496 48.164 49.421 40.9321 59.4777 27.5247L60.5153 26.0618L61.0741 29.3936C61.1539 29.8 61.553 30.1252 62.0319 30.0436C62.4308 29.9625 62.7502 29.5564 62.6704 29.0687L61.7922 23.7868C61.7127 23.3804 61.3134 23.0552 60.8345 23.1366L55.6465 24.0306C55.2472 24.1117 55.0079 24.4367 55.0079 24.8431C55.0079 24.9244 55.0079 24.9244 55.0079 25.0058C55.0878 25.4119 55.4868 25.7368 55.9657 25.6557L59.2384 25.0869L58.2009 26.5495C48.4632 39.5508 36.4909 46.5389 22.6029 47.4325C22.1238 47.4325 21.8047 47.8391 21.8047 48.3263ZM58.8392 33.0502C59.3181 32.4814 60.1959 32.8066 60.1164 33.5379V61.8964C60.1164 62.3839 59.7969 62.7091 59.3181 62.7091H54.4492C53.9704 62.7091 53.6509 62.3839 53.6509 61.8964V39.1445C53.6509 38.9006 53.7307 38.7382 53.8905 38.5757L58.8392 33.0502ZM58.5999 61.084H55.3271V39.4695L58.5999 35.7318V61.084ZM49.1813 42.8008C49.6602 42.4758 50.3787 42.8822 50.4585 43.5326V61.8151C50.4585 62.3028 50.1393 62.6277 49.6602 62.6277H44.7118C44.233 62.6277 43.9135 62.3028 43.9135 61.8151V46.8637C43.9135 46.6201 43.9933 46.3762 44.233 46.214L49.1813 42.8008ZM48.7823 61.084H45.5099V47.3516L48.8621 45.0761V61.084H48.7823ZM39.5238 48.7326C40.0026 48.5701 40.5614 48.9765 40.5614 49.5453V61.8151C40.5614 62.3028 40.2423 62.6277 39.7634 62.6277H34.815C34.3358 62.6277 34.0166 62.3028 34.0166 61.8151V51.3334C34.0166 51.0082 34.2563 50.6829 34.5754 50.6018L39.5238 48.7326ZM38.9651 61.084V50.6829L35.6129 51.902V61.084H38.9651ZM24.9973 52.3897C24.5984 52.4705 24.279 52.7958 24.279 53.2021V61.8964C24.279 62.3839 24.5984 62.7091 25.0773 62.7091H29.9459C30.4248 62.7091 30.7439 62.3839 30.7439 61.8964V52.5521C30.7439 52.0644 30.265 51.6581 29.866 51.7395L24.9973 52.3897ZM29.1478 61.084H25.8753V53.9334L29.1478 53.5268V61.084Z" fill="#F65E64"/>
</svg>
