<svg width="84" height="84" viewBox="0 0 84 84" fill="none" xmlns="http://www.w3.org/2000/svg">
<circle cx="42" cy="42" r="41.5" fill="white" stroke="#E6E8E0"/>
<path d="M41.5 66C53.3741 66 63 56.1503 63 44C63 31.8497 53.3741 22 41.5 22C29.6259 22 20 31.8497 20 44C20 56.1503 29.6259 66 41.5 66Z" stroke="#F65E64" stroke-width="2" stroke-miterlimit="10" stroke-linecap="round" stroke-linejoin="round"/>
<path d="M41 52V27" stroke="#F65E64" stroke-width="2" stroke-miterlimit="10" stroke-linecap="round" stroke-linejoin="round"/>
<path d="M37 22V18C38.6244 17.4821 40.3014 17.1467 42 17C43.447 17 44.673 17.759 46 18V22" stroke="#F65E64" stroke-width="2" stroke-miterlimit="10" stroke-linecap="round" stroke-linejoin="round"/>
<path d="M59 25C60.5081 26.1463 61.8537 27.4919 63 29" stroke="#F65E64" stroke-width="2" stroke-miterlimit="10" stroke-linecap="round" stroke-linejoin="round"/>
<path d="M41.5 48C43.433 48 45 46.6569 45 45C45 43.3431 43.433 42 41.5 42C39.567 42 38 43.3431 38 45C38 46.6569 39.567 48 41.5 48Z" fill="white" stroke="#F65E64" stroke-width="2" stroke-miterlimit="10" stroke-linecap="round" stroke-linejoin="round"/>
</svg>
