<svg width="84" height="84" viewBox="0 0 84 84" fill="none" xmlns="http://www.w3.org/2000/svg">
<circle cx="42" cy="42" r="41.5" stroke="#E6E8E0"/>
<g clip-path="url(#clip0)">
<path d="M24.3984 35.7C24.3984 25.9 32.2984 18 41.9984 18C51.6984 18 59.5984 25.9 59.5984 35.6" stroke="#F65E64" stroke-width="2" stroke-miterlimit="10"/>
<path d="M21.8008 36.6996C21.8008 35.5996 22.8008 34.5996 24.2008 34.5996C25.6008 34.5996 26.6008 35.5996 26.6008 36.6996C26.6008 37.2996 26.6008 51.6996 26.6008 52.1996C26.6008 53.2996 25.6008 54.2996 24.2008 54.2996C22.8008 54.2996 21.8008 53.2996 21.8008 52.1996C21.8008 51.7996 21.8008 37.0996 21.8008 36.6996Z" stroke="#F65E64" stroke-width="2" stroke-miterlimit="10"/>
<path d="M22.2 36.7002C18.8 36.7002 16 40.2002 16 44.4002C16 48.6002 18.8 52.1002 22.2 52.1002" stroke="#F65E64" stroke-width="2" stroke-miterlimit="10"/>
<path d="M59.6008 53.7002C59.6008 60.3002 56.4008 64.4002 51.0008 64.4002H46.8008" stroke="#F65E64" stroke-width="2" stroke-miterlimit="10"/>
<path d="M62.3 36.6996C62.3 35.5996 61.3 34.5996 59.9 34.5996C58.6 34.5996 57.5 35.5996 57.5 36.6996C57.5 37.2996 57.5 51.6996 57.5 52.1996C57.5 53.2996 58.5 54.2996 59.9 54.2996C61.2 54.2996 62.3 53.2996 62.3 52.1996C62.3 51.7996 62.3 37.0996 62.3 36.6996Z" stroke="#F65E64" stroke-width="2" stroke-miterlimit="10"/>
<path d="M45.4 66.8002C46.7 66.8002 47.7 65.8002 47.7 64.5002C47.7 63.2002 46.7 62.2002 45.4 62.2002C44.8 62.2002 40.3 62.2002 39.8 62.2002C38.5 62.2002 37.5 63.2002 37.5 64.5002C37.5 65.8002 38.5 66.8002 39.8 66.8002C40.3 66.8002 44.8 66.8002 45.4 66.8002Z" stroke="#F65E64" stroke-width="2" stroke-miterlimit="10"/>
<path d="M61.8008 36.7002C65.2008 36.7002 68.0008 40.2002 68.0008 44.4002C68.0008 48.6002 65.2008 52.1002 61.8008 52.1002" stroke="#F65E64" stroke-width="2" stroke-miterlimit="10"/>
</g>
<defs>
<clipPath id="clip0">
<rect x="15" y="17" width="54" height="50.8" fill="white"/>
</clipPath>
</defs>
</svg>
