<svg width="85" height="85" viewBox="0 0 85 85" fill="none" xmlns="http://www.w3.org/2000/svg">
<circle cx="42.8984" cy="42.8809" r="41.5" fill="white" stroke="#E6E8E0"/>
<path d="M37.1052 48.9115C35.8919 50.6275 34.1672 51.4855 31.9312 51.4855C29.6952 51.4855 27.9705 50.6275 26.7572 48.9115C25.5265 47.1781 24.9112 44.8901 24.9112 42.0475C24.9112 39.2048 25.5265 36.9168 26.7572 35.1835C27.9705 33.4675 29.6952 32.6095 31.9312 32.6095C34.1672 32.6095 35.8919 33.4675 37.1052 35.1835C38.3359 36.9168 38.9512 39.2048 38.9512 42.0475C38.9512 44.8901 38.3359 47.1781 37.1052 48.9115ZM27.3292 42.0475C27.3292 44.3008 27.7279 46.0428 28.5252 47.2735C29.3225 48.5041 30.4579 49.1195 31.9312 49.1195C33.4045 49.1195 34.5399 48.5041 35.3372 47.2735C36.1519 46.0428 36.5592 44.3008 36.5592 42.0475C36.5592 39.7941 36.1519 38.0521 35.3372 36.8215C34.5399 35.5735 33.4045 34.9495 31.9312 34.9495C30.4579 34.9495 29.3225 35.5648 28.5252 36.7955C27.7279 38.0261 27.3292 39.7768 27.3292 42.0475ZM55.8742 44.1795H51.6882V46.2855H58.1362V48.0535H51.6882V51.1475H49.2962V48.0535H47.0862V46.2855H49.2962V44.1795H47.0862V41.9955H49.2962V32.9475H55.8742C57.4515 32.9475 58.7948 33.5021 59.9042 34.6115C61.0135 35.7035 61.5682 37.0295 61.5682 38.5895C61.5682 40.1495 61.0135 41.4755 59.9042 42.5675C58.7948 43.6421 57.4515 44.1795 55.8742 44.1795ZM55.8742 35.2095H51.6882V41.9955H55.8742C56.7582 41.9955 57.5295 41.6661 58.1882 41.0075C58.8468 40.3141 59.1762 39.5081 59.1762 38.5895C59.1762 37.6361 58.8555 36.8388 58.2142 36.1975C57.5555 35.5388 56.7755 35.2095 55.8742 35.2095Z" fill="#F65E64"/>
</svg>
