<svg width="85" height="85" viewBox="0 0 85 85" fill="none" xmlns="http://www.w3.org/2000/svg">
<path d="M84.3984 42.7529C84.3984 65.6727 65.8183 84.2529 42.8984 84.2529C19.9786 84.2529 1.39844 65.6727 1.39844 42.7529C1.39844 19.8331 19.9786 1.25293 42.8984 1.25293C65.8183 1.25293 84.3984 19.8331 84.3984 42.7529Z" fill="white" stroke="#E6E8E0"/>
<path d="M54.6621 34.3138C54.4575 34.3138 54.4575 34.3138 54.6621 34.3138C52.0019 30.0431 47.4999 27.3994 42.384 27.3994C35.2218 27.3994 29.2873 32.4835 28.2642 39.3979C23.3529 39.6013 19.4648 43.6686 19.4648 48.7527C19.4648 54.0401 23.7622 58.1074 28.8781 58.1074H54.4575C61.0058 58.1074 66.3263 52.8199 66.3263 46.3123C66.531 39.8046 61.2104 34.3138 54.6621 34.3138Z" stroke="#F65E64" stroke-width="2" stroke-miterlimit="10"/>
</svg>
