<svg width="402" height="400" viewBox="0 0 402 400" fill="none" xmlns="http://www.w3.org/2000/svg">
<circle cx="301.227" cy="100.753" r="100" fill="url(#paint0_linear)"/>
<circle opacity="0.1" cx="324.99" cy="76.9906" r="42.7943" fill="white"/>
<g filter="url(#filter0_d)">
<path d="M206.72 232.976H169.52V249.476H236.42V275.876H169.52V305.876H128.42V275.876H105.92V249.476H128.42V232.976H105.92V196.676H128.42V95.876H206.72C226.52 95.876 243.22 102.676 256.82 116.276C270.62 129.876 277.52 146.276 277.52 165.476C277.52 184.676 270.72 200.776 257.12 213.776C243.72 226.576 226.92 232.976 206.72 232.976ZM206.72 134.576H169.52V196.676H206.72C215.12 196.676 222.12 193.676 227.72 187.676C233.52 181.676 236.42 174.276 236.42 165.476C236.42 156.676 233.52 149.376 227.72 143.576C222.12 137.576 215.12 134.576 206.72 134.576Z" fill="white"/>
</g>
<path d="M127.906 166.753C122.61 166.753 119.962 163.115 117.625 160.083C115.444 157.172 113.575 154.626 109.992 154.626C106.41 154.626 104.54 157.172 102.36 160.083C100.023 163.115 97.375 166.753 92.0788 166.753C86.6268 166.753 84.1345 163.115 81.7979 160.083C79.6171 157.172 77.7478 154.626 74.1651 154.626C70.5824 154.626 68.7131 157.172 66.5323 160.083C64.1957 163.115 61.5476 166.753 56.0956 166.753C50.7994 166.753 48.1513 163.236 45.8147 160.083C43.6339 157.051 41.7647 154.504 38.182 154.504C34.5992 154.504 32.73 157.051 30.5492 159.962C28.2126 163.115 25.5645 166.753 20.2683 166.753C14.9721 166.753 12.3239 163.115 9.98737 160.083C7.80658 157.051 5.93732 154.504 2.35459 154.504C1.57573 154.504 0.796875 154.019 0.796875 153.292C0.796875 152.564 1.41996 152.079 2.35459 152.079C7.65081 152.079 10.2989 155.596 12.6355 158.749C14.8163 161.781 16.6855 164.327 20.2683 164.327C23.851 164.327 25.7203 161.781 27.9011 158.87C30.2376 155.717 32.8857 152.2 38.182 152.2C43.4782 152.2 46.1263 155.717 48.4629 158.87C50.6437 161.781 52.5129 164.327 56.0956 164.327C59.6784 164.327 61.5476 161.781 63.7284 158.87C66.065 155.717 68.7131 152.2 74.1651 152.2C79.4613 152.2 82.1094 155.717 84.446 158.87C86.6268 161.781 88.496 164.327 92.0788 164.327C95.6615 164.327 97.5308 161.781 99.7116 158.87C102.048 155.717 104.696 152.2 109.992 152.2C115.289 152.2 117.937 155.717 120.273 158.87C122.454 161.781 124.323 164.327 127.906 164.327C131.489 164.327 133.358 161.781 135.539 158.87C137.876 155.717 140.524 152.2 145.976 152.2C146.754 152.2 147.533 152.685 147.533 153.413C147.533 154.141 146.91 154.626 145.976 154.626C142.393 154.626 140.524 157.172 138.343 160.083C135.85 163.115 133.358 166.753 127.906 166.753Z" fill="#ACCE23"/>
<path d="M127.906 147.815C122.61 147.815 119.962 144.177 117.625 141.145C115.444 138.235 113.575 135.688 109.992 135.688C106.41 135.688 104.54 138.235 102.36 141.145C100.023 144.177 97.375 147.815 92.0788 147.815C86.6268 147.815 84.1344 144.177 81.7979 141.145C79.6171 138.235 77.7478 135.688 74.1651 135.688C70.5824 135.688 68.7131 138.235 66.5323 141.145C64.1957 144.177 61.5476 147.815 56.0956 147.815C50.7994 147.815 48.1513 144.298 45.8147 141.145C43.6339 138.114 41.7647 135.567 38.182 135.567C34.5992 135.567 32.73 138.114 30.5492 141.024C28.2126 144.177 25.5645 147.815 20.2683 147.815C14.9721 147.815 12.3239 144.177 9.98737 141.145C7.80658 138.114 5.93732 135.567 2.35459 135.567C1.57573 135.567 0.796875 135.082 0.796875 134.354C0.796875 133.627 1.41996 133.142 2.35459 133.142C7.65081 133.142 10.2989 136.658 12.6355 139.811C14.8163 142.843 16.6855 145.39 20.2683 145.39C23.851 145.39 25.7203 142.843 27.9011 139.933C30.2376 136.78 32.8857 133.263 38.182 133.263C43.4782 133.263 46.1263 136.78 48.4629 139.933C50.6436 142.843 52.5129 145.39 56.0956 145.39C59.6784 145.39 61.5476 142.843 63.7284 139.933C66.065 136.78 68.7131 133.263 74.1651 133.263C79.4613 133.263 82.1094 136.78 84.446 139.933C86.6268 142.843 88.496 145.39 92.0788 145.39C95.6615 145.39 97.5308 142.843 99.7116 139.933C102.048 136.78 104.696 133.263 109.992 133.263C115.289 133.263 117.937 136.78 120.273 139.933C122.454 142.843 124.323 145.39 127.906 145.39C131.489 145.39 133.358 142.843 135.539 139.933C137.876 136.78 140.524 133.263 145.976 133.263C146.754 133.263 147.533 133.748 147.533 134.476C147.533 135.203 146.91 135.688 145.976 135.688C142.393 135.688 140.524 138.235 138.343 141.145C135.85 144.177 133.358 147.815 127.906 147.815Z" fill="#ACCE23"/>
<defs>
<filter id="filter0_d" x="85.918" y="75.876" width="231.6" height="270" filterUnits="userSpaceOnUse" color-interpolation-filters="sRGB">
<feFlood flood-opacity="0" result="BackgroundImageFix"/>
<feColorMatrix in="SourceAlpha" type="matrix" values="0 0 0 0 0 0 0 0 0 0 0 0 0 0 0 0 0 0 127 0"/>
<feOffset dx="10" dy="10"/>
<feGaussianBlur stdDeviation="15"/>
<feColorMatrix type="matrix" values="0 0 0 0 0 0 0 0 0 0 0 0 0 0 0 0 0 0 0.15 0"/>
<feBlend mode="normal" in2="BackgroundImageFix" result="effect1_dropShadow"/>
<feBlend mode="normal" in="SourceGraphic" in2="effect1_dropShadow" result="shape"/>
</filter>
<linearGradient id="paint0_linear" x1="348.801" y1="333.909" x2="199.261" y2="292.852" gradientUnits="userSpaceOnUse">
<stop stop-color="#FD9B5C"/>
<stop offset="1" stop-color="#EB5760"/>
</linearGradient>
</defs>
</svg>
