<svg width="139" height="52" viewBox="0 0 139 52" fill="none" xmlns="http://www.w3.org/2000/svg">
<circle cx="112.563" cy="26.0151" r="25.5962" fill="url(#paint0_linear)"/>
<circle opacity="0.1" cx="119.014" cy="17.7861" r="10.9863" fill="white"/>
<path d="M101.732 28.772C97.4989 28.772 95.3823 25.8642 93.5148 23.4411C91.7718 21.1148 90.2778 19.0794 87.4142 19.0794C84.5507 19.0794 83.0567 21.1148 81.3137 23.4411C79.4462 25.8642 77.3296 28.772 73.0966 28.772C68.739 28.772 66.747 25.8642 64.8795 23.4411C63.1365 21.1148 61.6424 19.0794 58.7789 19.0794C55.9154 19.0794 54.4213 21.1148 52.6783 23.4411C50.8108 25.8642 48.6943 28.772 44.3367 28.772C40.1037 28.772 37.9871 25.9611 36.1196 23.4411C34.3766 21.0179 32.8826 18.9825 30.019 18.9825C27.1555 18.9825 25.6615 21.0179 23.9185 23.3441C22.0509 25.8642 19.9344 28.772 15.7014 28.772C11.4683 28.772 9.35179 25.8642 7.48426 23.4411C5.74124 21.0179 4.24722 18.9825 1.38369 18.9825C0.76118 18.9825 0.138672 18.5948 0.138672 18.0132C0.138672 17.4316 0.636678 17.0439 1.38369 17.0439C5.61674 17.0439 7.73327 19.8548 9.60079 22.3749C11.3438 24.798 12.8378 26.8335 15.7014 26.8335C18.5649 26.8335 20.0589 24.798 21.8019 22.4718C23.6695 19.9517 25.786 17.1409 30.019 17.1409C34.2521 17.1409 36.3686 19.9517 38.2361 22.4718C39.9792 24.798 41.4732 26.8335 44.3367 26.8335C47.2003 26.8335 48.6943 24.798 50.4373 22.4718C52.3048 19.9517 54.4213 17.1409 58.7789 17.1409C63.0119 17.1409 65.1285 19.9517 66.996 22.4718C68.739 24.798 70.233 26.8335 73.0966 26.8335C75.9601 26.8335 77.4541 24.798 79.1972 22.4718C81.0647 19.9517 83.1812 17.1409 87.4142 17.1409C91.6473 17.1409 93.7638 19.9517 95.6313 22.4718C97.3744 24.798 98.8684 26.8335 101.732 26.8335C104.595 26.8335 106.089 24.798 107.833 22.4718C109.7 19.9517 111.817 17.1409 116.174 17.1409C116.797 17.1409 117.419 17.5286 117.419 18.1101C117.419 18.6917 116.921 19.0794 116.174 19.0794C113.311 19.0794 111.817 21.1148 110.074 23.4411C108.082 25.8642 106.089 28.772 101.732 28.772Z" fill="#ACCE23"/>
<defs>
<linearGradient id="paint0_linear" x1="124.74" y1="85.6942" x2="86.4636" y2="75.1853" gradientUnits="userSpaceOnUse">
<stop stop-color="#FD9B5C"/>
<stop offset="1" stop-color="#EB5760"/>
</linearGradient>
</defs>
</svg>
