<svg width="84" height="89" viewBox="0 0 84 89" fill="none" xmlns="http://www.w3.org/2000/svg">
<circle cx="42" cy="47" r="41.5" fill="white" stroke="#E6E8E0"/>
<path d="M44.8634 48.68H36.9434V52.816H48.3834V55.368H36.9434V61H33.8634V55.368H29.9034V52.816H33.8634V48.68H29.9034V45.776H33.8634V30.2H44.8634C47.4154 30.2 49.5861 31.1093 51.3754 32.928C53.1941 34.7173 54.1034 36.888 54.1034 39.44C54.1034 41.9627 53.1941 44.1333 51.3754 45.952C49.5861 47.7707 47.4154 48.68 44.8634 48.68ZM36.9434 33.104V45.776H44.8634C46.5648 45.776 48.0168 45.16 49.2194 43.928C50.4221 42.6667 51.0234 41.1707 51.0234 39.44C51.0234 37.68 50.4221 36.184 49.2194 34.952C48.0168 33.72 46.5648 33.104 44.8634 33.104H36.9434Z" fill="#F65E64"/>
</svg>
