<svg width="85" height="89" viewBox="0 0 85 89" fill="none" xmlns="http://www.w3.org/2000/svg">
<circle cx="42.6172" cy="47" r="41.5" fill="white" stroke="#E6E8E0"/>
<path d="M59.7967 29.6523L25.6521 63.797" stroke="#F65E64" stroke-width="2" stroke-miterlimit="10" stroke-linecap="round" stroke-linejoin="round"/>
<path d="M53.6154 63.7973C57.0293 63.7973 59.7968 61.0298 59.7968 57.6159C59.7968 54.2021 57.0293 51.4346 53.6154 51.4346C50.2016 51.4346 47.4341 54.2021 47.4341 57.6159C47.4341 61.0298 50.2016 63.7973 53.6154 63.7973Z" stroke="#F65E64" stroke-width="2" stroke-miterlimit="10" stroke-linecap="round" stroke-linejoin="round"/>
<path d="M31.8335 42.015C35.2473 42.015 38.0148 39.2476 38.0148 35.8337C38.0148 32.4198 35.2473 29.6523 31.8335 29.6523C28.4196 29.6523 25.6521 32.4198 25.6521 35.8337C25.6521 39.2476 28.4196 42.015 31.8335 42.015Z" stroke="#F65E64" stroke-width="2" stroke-miterlimit="10" stroke-linecap="round" stroke-linejoin="round"/>
</svg>
