<svg width="152" height="58" viewBox="0 0 152 58" fill="none" xmlns="http://www.w3.org/2000/svg">
<circle cx="123.462" cy="28.6533" r="28.4062" fill="url(#paint0_linear)"/>
<circle opacity="0.1" cx="130.212" cy="21.9033" r="12.1562" fill="white"/>
<path d="M102.212 30.6314C97.9793 30.6314 95.8628 27.7236 93.9953 25.3004C92.2523 22.9742 90.7583 20.9388 87.8947 20.9388C85.0312 20.9388 83.5372 22.9742 81.7941 25.3004C79.9266 27.7236 77.8101 30.6314 73.577 30.6314C69.2195 30.6314 67.2275 27.7236 65.3599 25.3004C63.6169 22.9742 62.1229 20.9388 59.2594 20.9388C56.3958 20.9388 54.9018 22.9742 53.1588 25.3004C51.2913 27.7236 49.1747 30.6314 44.8172 30.6314C40.5841 30.6314 38.4676 27.8205 36.6001 25.3004C34.8571 22.8773 33.363 20.8418 30.4995 20.8418C27.636 20.8418 26.142 22.8773 24.3989 25.2035C22.5314 27.7236 20.4149 30.6314 16.1818 30.6314C11.9488 30.6314 9.83225 27.7236 7.96473 25.3004C6.22171 22.8773 4.72769 20.8418 1.86416 20.8418C1.24165 20.8418 0.619141 20.4541 0.619141 19.8726C0.619141 19.291 1.11715 18.9033 1.86416 18.9033C6.09721 18.9033 8.21373 21.7142 10.0813 24.2342C11.8243 26.6574 13.3183 28.6928 16.1818 28.6928C19.0454 28.6928 20.5394 26.6574 22.2824 24.3312C24.1499 21.8111 26.2665 19.0002 30.4995 19.0002C34.7326 19.0002 36.8491 21.8111 38.7166 24.3312C40.4596 26.6574 41.9537 28.6928 44.8172 28.6928C47.6807 28.6928 49.1747 26.6574 50.9178 24.3312C52.7853 21.8111 54.9018 19.0002 59.2594 19.0002C63.4924 19.0002 65.6089 21.8111 67.4765 24.3312C69.2195 26.6574 70.7135 28.6928 73.577 28.6928C76.4406 28.6928 77.9346 26.6574 79.6776 24.3312C81.5451 21.8111 83.6617 19.0002 87.8947 19.0002C92.1278 19.0002 94.2443 21.8111 96.1118 24.3312C97.8548 26.6574 99.3489 28.6928 102.212 28.6928C105.076 28.6928 106.57 26.6574 108.313 24.3312C110.18 21.8111 112.297 19.0002 116.655 19.0002C117.277 19.0002 117.9 19.388 117.9 19.9695C117.9 20.5511 117.402 20.9388 116.655 20.9388C113.791 20.9388 112.297 22.9742 110.554 25.3004C108.562 27.7236 106.57 30.6314 102.212 30.6314Z" fill="#ACCE23"/>
<defs>
<linearGradient id="paint0_linear" x1="136.976" y1="94.8843" x2="94.4973" y2="83.2216" gradientUnits="userSpaceOnUse">
<stop stop-color="#FD9B5C"/>
<stop offset="1" stop-color="#EB5760"/>
</linearGradient>
</defs>
</svg>
