<svg width="84" height="84" viewBox="0 0 84 84" fill="none" xmlns="http://www.w3.org/2000/svg">
<circle cx="42" cy="42" r="41.5" stroke="#E6E8E0"/>
<path d="M59.9999 24L24 59.9999" stroke="#F65E64" stroke-width="2" stroke-miterlimit="10" stroke-linecap="round" stroke-linejoin="round"/>
<path d="M53.483 60.0003C57.0824 60.0003 60.0003 57.0824 60.0003 53.483C60.0003 49.8837 57.0824 46.9658 53.483 46.9658C49.8837 46.9658 46.9658 49.8837 46.9658 53.483C46.9658 57.0824 49.8837 60.0003 53.483 60.0003Z" stroke="#F65E64" stroke-width="2" stroke-miterlimit="10" stroke-linecap="round" stroke-linejoin="round"/>
<path d="M30.5172 37.0345C34.1166 37.0345 37.0345 34.1166 37.0345 30.5172C37.0345 26.9179 34.1166 24 30.5172 24C26.9179 24 24 26.9179 24 30.5172C24 34.1166 26.9179 37.0345 30.5172 37.0345Z" stroke="#F65E64" stroke-width="2" stroke-miterlimit="10" stroke-linecap="round" stroke-linejoin="round"/>
</svg>
