<svg width="517" height="196" viewBox="0 0 517 196" fill="none" xmlns="http://www.w3.org/2000/svg">
<path fill-rule="evenodd" clip-rule="evenodd" d="M315.428 193.221C346.826 193.221 374.724 178.238 392.363 155.031C394.84 151.772 394.374 147.357 393.915 143.016C393.736 141.317 393.558 139.629 393.558 138.027C393.558 132.207 398.276 127.489 404.096 127.489H406.974H420.829C426.649 127.489 431.367 122.771 431.367 116.951C431.367 111.131 426.649 106.413 420.829 106.413C415.843 106.413 411.979 102.102 412.003 97.1168C412.004 96.9597 412.004 96.8025 412.004 96.6452C412.004 43.3078 368.765 0.0693359 315.428 0.0693359C279.426 0.0693359 248.025 19.7694 231.416 48.978C227.356 56.1195 220.144 61.2507 211.929 61.2507H208.565C202.745 61.2507 198.027 65.9687 198.027 71.7886C198.027 77.6085 202.745 82.3265 208.565 82.3265H219.906H227.962C233.782 82.3265 238.5 87.0445 238.5 92.8644C238.5 98.6843 233.782 103.402 227.962 103.402C223.214 103.402 219.488 107.521 220.389 112.184C223.852 130.095 231.349 143.859 233.981 148.565C251.134 175.417 281.202 193.221 315.428 193.221ZM202.58 12.3738C202.58 16.9448 198.875 20.6503 194.304 20.6503C189.733 20.6503 186.027 16.9448 186.027 12.3738C186.027 7.80287 189.733 4.09738 194.304 4.09738C198.875 4.09738 202.58 7.80287 202.58 12.3738ZM447.783 163.243C454.213 163.243 459.426 158.03 459.426 151.6C459.426 145.17 454.213 139.957 447.783 139.957C441.353 139.957 436.14 145.17 436.14 151.6C436.14 158.03 441.353 163.243 447.783 163.243Z" fill="url(#paint0_linear)"/>
<g filter="url(#filter0_d)">
<rect x="20.0273" y="51.0684" width="309" height="104" rx="20" fill="white"/>
</g>
<path d="M72.6657 94.5564C71.4337 95.7564 69.9457 96.3564 68.2017 96.3564C66.4257 96.3564 64.9297 95.7564 63.7137 94.5564C62.4977 93.3404 61.8897 91.8444 61.8897 90.0684C61.8897 88.2924 62.4977 86.8044 63.7137 85.6044C64.9297 84.3884 66.4257 83.7804 68.2017 83.7804C69.9617 83.7804 71.4497 84.3884 72.6657 85.6044C73.8977 86.8044 74.5137 88.2924 74.5137 90.0684C74.5137 91.8284 73.8977 93.3244 72.6657 94.5564ZM64.8417 93.4524C65.7537 94.3644 66.8737 94.8204 68.2017 94.8204C69.5297 94.8204 70.6497 94.3644 71.5617 93.4524C72.4737 92.5084 72.9297 91.3804 72.9297 90.0684C72.9297 88.7404 72.4737 87.6204 71.5617 86.7084C70.6497 85.7804 69.5297 85.3164 68.2017 85.3164C66.8737 85.3164 65.7537 85.7804 64.8417 86.7084C63.9297 87.6204 63.4737 88.7404 63.4737 90.0684C63.4737 91.3804 63.9297 92.5084 64.8417 93.4524ZM75.2556 84.0684H85.3356V85.6044H81.0876V96.0684H79.5036V85.6044H75.2556V84.0684ZM108.65 88.1484H111.71V91.2804H108.65V96.0684H105.302V91.2804H92.4499V88.1484L101.486 70.8684H105.086L96.0499 88.1484H105.302V81.0204H108.65V88.1484ZM130.126 78.8604C130.126 80.8284 129.61 82.5204 128.578 83.9364H128.614L120.478 96.0684H116.698L122.674 87.2484C121.954 87.2964 121.546 87.3204 121.45 87.3204C118.906 87.3204 116.818 86.5404 115.186 84.9804C113.578 83.3964 112.774 81.3564 112.774 78.8604C112.774 76.3404 113.578 74.3124 115.186 72.7764C116.794 71.1924 118.882 70.4004 121.45 70.4004C123.97 70.4004 126.046 71.1924 127.678 72.7764C129.31 74.3364 130.126 76.3644 130.126 78.8604ZM121.45 73.6044C119.866 73.6044 118.57 74.0844 117.562 75.0444C116.578 76.0044 116.086 77.2764 116.086 78.8604C116.086 80.4444 116.578 81.7284 117.562 82.7124C118.57 83.6724 119.866 84.1524 121.45 84.1524C123.034 84.1524 124.318 83.6724 125.302 82.7124C126.31 81.7284 126.814 80.4444 126.814 78.8604C126.814 77.2764 126.322 76.0044 125.338 75.0444C124.354 74.0844 123.058 73.6044 121.45 73.6044ZM135.778 80.6964H139.45C141.826 80.6964 143.83 81.4044 145.462 82.8204C147.118 84.2364 147.946 86.1684 147.946 88.6164C147.946 91.0884 147.106 93.0204 145.426 94.4124C143.722 95.8284 141.682 96.5364 139.306 96.5364C137.338 96.5364 135.598 96.0684 134.086 95.1324C132.598 94.1724 131.566 92.8404 130.99 91.1364L133.834 89.5164C134.17 90.7164 134.818 91.6404 135.778 92.2884C136.738 92.9364 137.914 93.2604 139.306 93.2604C140.914 93.2604 142.198 92.8524 143.158 92.0364C144.142 91.1964 144.634 90.0564 144.634 88.6164C144.634 87.1764 144.142 86.0364 143.158 85.1964C142.198 84.3564 140.938 83.9364 139.378 83.9364H132.25L133.186 70.8684H146.974V74.0004H136.21L135.778 80.6964ZM171.093 86.4204H165.297V89.3364H174.225V91.7844H165.297V96.0684H161.985V91.7844H158.925V89.3364H161.985V86.4204H158.925V83.3964H161.985V70.8684H171.093C173.277 70.8684 175.137 71.6364 176.673 73.1724C178.209 74.6844 178.977 76.5204 178.977 78.6804C178.977 80.8404 178.209 82.6764 176.673 84.1884C175.137 85.6764 173.277 86.4204 171.093 86.4204ZM171.093 74.0004H165.297V83.3964H171.093C172.317 83.3964 173.385 82.9404 174.297 82.0284C175.209 81.0684 175.665 79.9524 175.665 78.6804C175.665 77.3604 175.221 76.2564 174.333 75.3684C173.421 74.4564 172.341 74.0004 171.093 74.0004ZM194.964 89.9004C196.276 90.3804 196.932 91.3164 196.932 92.7084C196.932 93.7004 196.596 94.5084 195.924 95.1324C195.268 95.7564 194.348 96.0684 193.164 96.0684H187.332V84.0684H192.684C193.836 84.0684 194.732 84.3644 195.372 84.9564C196.028 85.5484 196.356 86.3244 196.356 87.2844C196.356 88.4844 195.892 89.3564 194.964 89.9004ZM192.684 85.6044H188.916V89.2524H192.684C194.076 89.2524 194.772 88.6284 194.772 87.3804C194.772 86.8204 194.588 86.3884 194.22 86.0844C193.868 85.7644 193.356 85.6044 192.684 85.6044ZM188.916 94.5324H193.164C193.868 94.5324 194.404 94.3644 194.772 94.0284C195.156 93.6924 195.348 93.2204 195.348 92.6124C195.348 92.0364 195.156 91.5884 194.772 91.2684C194.404 90.9484 193.868 90.7884 193.164 90.7884H188.916V94.5324ZM215.268 84.0684H217.092V96.0684H215.508V86.4924L211.308 93.3084H211.116L206.916 86.4924V96.0684H205.332V84.0684H207.156L211.212 90.6444L215.268 84.0684ZM225.994 83.7804C227.786 83.7804 229.218 84.4124 230.29 85.6764C231.394 86.9244 231.946 88.4044 231.946 90.1164C231.946 90.1964 231.93 90.4444 231.898 90.8604H221.362C221.522 92.0604 222.034 93.0204 222.898 93.7404C223.762 94.4604 224.842 94.8204 226.138 94.8204C227.962 94.8204 229.25 94.1404 230.002 92.7804L231.394 93.5964C230.866 94.4604 230.138 95.1404 229.21 95.6364C228.298 96.1164 227.266 96.3564 226.114 96.3564C224.226 96.3564 222.69 95.7644 221.506 94.5804C220.322 93.3964 219.73 91.8924 219.73 90.0684C219.73 88.2604 220.314 86.7644 221.482 85.5804C222.65 84.3804 224.154 83.7804 225.994 83.7804ZM225.994 85.3164C224.746 85.3164 223.698 85.6844 222.85 86.4204C222.018 87.1564 221.522 88.1244 221.362 89.3244H230.314C230.138 88.0444 229.65 87.0604 228.85 86.3724C228.018 85.6684 227.066 85.3164 225.994 85.3164ZM240.057 96.3564C238.249 96.3564 236.745 95.7564 235.545 94.5564C234.345 93.3244 233.745 91.8284 233.745 90.0684C233.745 88.2924 234.345 86.8044 235.545 85.6044C236.745 84.3884 238.249 83.7804 240.057 83.7804C241.241 83.7804 242.305 84.0684 243.249 84.6444C244.193 85.2044 244.881 85.9644 245.313 86.9244L244.017 87.6684C243.697 86.9484 243.177 86.3804 242.457 85.9644C241.753 85.5324 240.953 85.3164 240.057 85.3164C238.729 85.3164 237.609 85.7804 236.697 86.7084C235.785 87.6204 235.329 88.7404 235.329 90.0684C235.329 91.3804 235.785 92.5084 236.697 93.4524C237.609 94.3644 238.729 94.8204 240.057 94.8204C240.937 94.8204 241.729 94.6124 242.433 94.1964C243.153 93.7804 243.713 93.2044 244.113 92.4684L245.433 93.2364C244.937 94.1964 244.209 94.9564 243.249 95.5164C242.289 96.0764 241.225 96.3564 240.057 96.3564ZM251.241 84.0684H256.113V96.0684H254.529V91.4604H252.465L248.769 96.0684H246.753L250.545 91.4124C249.569 91.2684 248.769 90.8684 248.145 90.2124C247.537 89.5404 247.233 88.7324 247.233 87.7884C247.233 86.7164 247.617 85.8284 248.385 85.1244C249.185 84.4204 250.137 84.0684 251.241 84.0684ZM251.241 89.9724H254.529V85.6044H251.241C250.553 85.6044 249.977 85.8124 249.513 86.2284C249.049 86.6284 248.817 87.1484 248.817 87.7884C248.817 88.4284 249.049 88.9564 249.513 89.3724C249.977 89.7724 250.553 89.9724 251.241 89.9724ZM269.313 84.0684V94.5324H271.233V99.2844H269.649V96.0684H259.473V84.0684H261.057V94.5324H267.729V84.0684H269.313Z" fill="#F65E64"/>
<path d="M67.3217 113.868V125.068H66.4577V114.668H60.1697V125.068H59.3217V113.868H67.3217ZM73.5273 116.892C74.7006 116.892 75.65 117.308 76.3753 118.14C77.1113 118.972 77.4793 119.959 77.4793 121.1C77.4793 121.143 77.474 121.207 77.4633 121.292C77.4633 121.378 77.4633 121.442 77.4633 121.484H70.2153C70.3113 122.38 70.6686 123.106 71.2873 123.66C71.9166 124.204 72.69 124.476 73.6073 124.476C74.2473 124.476 74.8073 124.343 75.2873 124.076C75.7673 123.81 76.13 123.458 76.3753 123.02L77.0793 123.436C76.7486 123.991 76.2793 124.434 75.6713 124.764C75.0633 125.084 74.37 125.244 73.5913 125.244C72.3646 125.244 71.3566 124.855 70.5673 124.076C69.778 123.287 69.3833 122.284 69.3833 121.068C69.3833 119.874 69.7673 118.882 70.5353 118.092C71.314 117.292 72.3113 116.892 73.5273 116.892ZM73.5273 117.66C72.6206 117.66 71.8633 117.943 71.2553 118.508C70.6473 119.074 70.3006 119.804 70.2153 120.7H76.6473C76.562 119.751 76.2206 119.01 75.6233 118.476C75.0366 117.932 74.338 117.66 73.5273 117.66ZM83.5892 116.892C84.7412 116.892 85.7172 117.298 86.5172 118.108C87.3279 118.908 87.7332 119.895 87.7332 121.068C87.7332 122.242 87.3279 123.234 86.5172 124.044C85.7172 124.844 84.7412 125.244 83.5892 125.244C82.8319 125.244 82.1492 125.063 81.5412 124.7C80.9439 124.338 80.4799 123.842 80.1492 123.212V128.268H79.3492V117.068H80.1492V118.924C80.4799 118.295 80.9439 117.799 81.5412 117.436C82.1492 117.074 82.8319 116.892 83.5892 116.892ZM81.1252 123.484C81.7865 124.146 82.5919 124.476 83.5412 124.476C84.4905 124.476 85.2905 124.146 85.9412 123.484C86.6025 122.823 86.9332 122.018 86.9332 121.068C86.9332 120.119 86.6025 119.314 85.9412 118.652C85.2905 117.991 84.4905 117.66 83.5412 117.66C82.5919 117.66 81.7865 117.991 81.1252 118.652C80.4745 119.314 80.1492 120.119 80.1492 121.068C80.1492 122.018 80.4745 122.823 81.1252 123.484ZM94.5897 120.94C95.5284 121.25 95.9977 121.89 95.9977 122.86C95.9977 123.5 95.7844 124.028 95.3577 124.444C94.9417 124.86 94.3337 125.068 93.5337 125.068H89.6617V117.068H93.2297C93.987 117.068 94.5737 117.266 94.9897 117.66C95.4057 118.055 95.6137 118.556 95.6137 119.164C95.6137 120.018 95.2724 120.61 94.5897 120.94ZM93.2297 117.852H90.4617V120.62H93.2297C93.7417 120.62 94.131 120.498 94.3977 120.252C94.6644 120.007 94.7977 119.66 94.7977 119.212C94.7977 118.786 94.659 118.455 94.3817 118.22C94.115 117.975 93.731 117.852 93.2297 117.852ZM93.5337 124.284C94.067 124.284 94.4777 124.156 94.7657 123.9C95.0537 123.644 95.1977 123.287 95.1977 122.828C95.1977 122.38 95.0484 122.034 94.7497 121.788C94.4617 121.532 94.0564 121.404 93.5337 121.404H90.4617V124.284H93.5337ZM100.939 120.172C101.675 120.172 102.299 120.402 102.811 120.86C103.323 121.319 103.579 121.906 103.579 122.62C103.579 123.335 103.323 123.922 102.811 124.38C102.299 124.839 101.675 125.068 100.939 125.068H97.7711V117.068H98.5711V120.172H100.939ZM104.811 117.068H105.611V125.068H104.811V117.068ZM100.939 124.284C101.451 124.284 101.883 124.13 102.235 123.82C102.587 123.511 102.763 123.111 102.763 122.62C102.763 122.119 102.587 121.719 102.235 121.42C101.894 121.111 101.462 120.956 100.939 120.956H98.5711V124.284H100.939ZM111.668 116.892C112.841 116.892 113.791 117.308 114.516 118.14C115.252 118.972 115.62 119.959 115.62 121.1C115.62 121.143 115.615 121.207 115.604 121.292C115.604 121.378 115.604 121.442 115.604 121.484H108.356C108.452 122.38 108.809 123.106 109.428 123.66C110.057 124.204 110.831 124.476 111.748 124.476C112.388 124.476 112.948 124.343 113.428 124.076C113.908 123.81 114.271 123.458 114.516 123.02L115.22 123.436C114.889 123.991 114.42 124.434 113.812 124.764C113.204 125.084 112.511 125.244 111.732 125.244C110.505 125.244 109.497 124.855 108.708 124.076C107.919 123.287 107.524 122.284 107.524 121.068C107.524 119.874 107.908 118.882 108.676 118.092C109.455 117.292 110.452 116.892 111.668 116.892ZM111.668 117.66C110.761 117.66 110.004 117.943 109.396 118.508C108.788 119.074 108.441 119.804 108.356 120.7H114.788C114.703 119.751 114.361 119.01 113.764 118.476C113.177 117.932 112.479 117.66 111.668 117.66ZM125.163 118.524C126.102 118.62 126.875 118.956 127.483 119.532C128.091 120.108 128.395 120.876 128.395 121.836C128.395 122.882 128.038 123.714 127.323 124.332C126.609 124.94 125.734 125.244 124.699 125.244C123.867 125.244 123.131 125.058 122.491 124.684C121.851 124.311 121.398 123.788 121.131 123.116L121.835 122.7C122.038 123.255 122.39 123.682 122.891 123.98C123.393 124.279 123.995 124.428 124.699 124.428C125.531 124.428 126.214 124.194 126.747 123.724C127.281 123.255 127.547 122.626 127.547 121.836C127.547 121.047 127.275 120.418 126.731 119.948C126.198 119.479 125.51 119.244 124.667 119.244V119.228L124.651 119.244H124.427L124.059 118.684L126.891 114.668H121.419V113.868H127.867V114.668L125.163 118.524ZM142.374 117.068V125.068H141.558V118.284L138.566 123.004H138.454L135.446 118.252V125.068H134.646V117.068H135.59L138.502 121.66L141.414 117.068H142.374ZM148.434 116.892C149.607 116.892 150.556 117.308 151.282 118.14C152.018 118.972 152.386 119.959 152.386 121.1C152.386 121.143 152.38 121.207 152.37 121.292C152.37 121.378 152.37 121.442 152.37 121.484H145.122C145.218 122.38 145.575 123.106 146.194 123.66C146.823 124.204 147.596 124.476 148.514 124.476C149.154 124.476 149.714 124.343 150.194 124.076C150.674 123.81 151.036 123.458 151.282 123.02L151.986 123.436C151.655 123.991 151.186 124.434 150.578 124.764C149.97 125.084 149.276 125.244 148.498 125.244C147.271 125.244 146.263 124.855 145.474 124.076C144.684 123.287 144.29 122.284 144.29 121.068C144.29 119.874 144.674 118.882 145.442 118.092C146.22 117.292 147.218 116.892 148.434 116.892ZM148.434 117.66C147.527 117.66 146.77 117.943 146.162 118.508C145.554 119.074 145.207 119.804 145.122 120.7H151.554C151.468 119.751 151.127 119.01 150.53 118.476C149.943 117.932 149.244 117.66 148.434 117.66ZM157.919 125.244C156.714 125.244 155.711 124.844 154.911 124.044C154.111 123.244 153.711 122.252 153.711 121.068C153.711 119.884 154.111 118.892 154.911 118.092C155.711 117.292 156.714 116.892 157.919 116.892C158.698 116.892 159.402 117.079 160.031 117.452C160.661 117.815 161.119 118.311 161.407 118.94L160.751 119.324C160.517 118.812 160.143 118.407 159.631 118.108C159.13 117.81 158.559 117.66 157.919 117.66C156.959 117.66 156.154 117.991 155.503 118.652C154.853 119.303 154.527 120.108 154.527 121.068C154.527 122.028 154.853 122.839 155.503 123.5C156.154 124.151 156.959 124.476 157.919 124.476C158.559 124.476 159.13 124.327 159.631 124.028C160.143 123.73 160.533 123.324 160.799 122.812L161.471 123.212C161.151 123.831 160.671 124.327 160.031 124.7C159.402 125.063 158.698 125.244 157.919 125.244ZM168.604 117.068V125.068H167.804V121.948H166.076L163.564 125.068H162.524L165.084 121.932C164.433 121.858 163.889 121.602 163.452 121.164C163.015 120.716 162.796 120.167 162.796 119.516C162.796 118.802 163.052 118.215 163.564 117.756C164.076 117.298 164.7 117.068 165.436 117.068H168.604ZM165.436 121.18H167.804V117.852H165.436C164.924 117.852 164.492 118.007 164.14 118.316C163.788 118.626 163.612 119.026 163.612 119.516C163.612 120.018 163.783 120.423 164.124 120.732C164.476 121.031 164.913 121.18 165.436 121.18ZM177.516 124.284H178.796V127.212H177.98V125.068H171.068V117.068H171.868V124.284H176.7V117.068H177.516V124.284ZM187.28 117.068H188.096V125.068H187.28V123.26C186.938 123.879 186.469 124.364 185.872 124.716C185.274 125.068 184.597 125.244 183.84 125.244C182.698 125.244 181.722 124.844 180.912 124.044C180.101 123.234 179.696 122.242 179.696 121.068C179.696 119.895 180.101 118.908 180.912 118.108C181.722 117.298 182.698 116.892 183.84 116.892C184.597 116.892 185.274 117.068 185.872 117.42C186.469 117.772 186.938 118.258 187.28 118.876V117.068ZM181.488 123.484C182.149 124.146 182.954 124.476 183.904 124.476C184.853 124.476 185.653 124.146 186.304 123.484C186.954 122.823 187.28 122.018 187.28 121.068C187.28 120.119 186.954 119.314 186.304 118.652C185.653 117.991 184.853 117.66 183.904 117.66C182.954 117.66 182.149 117.991 181.488 118.652C180.837 119.314 180.512 120.119 180.512 121.068C180.512 122.018 180.837 122.823 181.488 123.484ZM198.306 125.26C197.154 125.26 196.194 124.882 195.426 124.124C194.658 123.356 194.274 122.364 194.274 121.148C194.274 119.815 194.466 118.786 194.85 118.06C195.245 117.324 196.05 116.658 197.266 116.06C197.501 115.954 197.778 115.831 198.098 115.692C198.418 115.554 198.674 115.447 198.866 115.372C199.069 115.287 199.282 115.186 199.506 115.068C199.741 114.94 199.927 114.818 200.066 114.7C200.205 114.583 200.327 114.439 200.434 114.268C200.541 114.087 200.61 113.884 200.642 113.66L201.282 114.028C201.229 114.327 201.127 114.588 200.978 114.812C200.839 115.036 200.626 115.244 200.338 115.436C200.061 115.618 199.815 115.762 199.602 115.868C199.399 115.975 199.079 116.119 198.642 116.3C198.205 116.482 197.89 116.615 197.698 116.7C196.909 117.052 196.327 117.436 195.954 117.852C195.591 118.268 195.346 118.828 195.218 119.532C195.591 118.946 196.077 118.508 196.674 118.22C197.271 117.932 197.874 117.788 198.482 117.788C199.549 117.788 200.434 118.14 201.138 118.844C201.842 119.548 202.194 120.444 202.194 121.532C202.194 122.61 201.826 123.5 201.09 124.204C200.365 124.908 199.437 125.26 198.306 125.26ZM198.306 124.46C199.202 124.46 199.938 124.188 200.514 123.644C201.09 123.09 201.378 122.386 201.378 121.532C201.378 120.668 201.101 119.959 200.546 119.404C199.991 118.85 199.271 118.572 198.386 118.572C197.575 118.572 196.845 118.828 196.194 119.34C195.554 119.852 195.202 120.514 195.138 121.324C195.138 122.242 195.437 122.994 196.034 123.58C196.631 124.167 197.389 124.46 198.306 124.46ZM207.559 116.892C208.732 116.892 209.681 117.308 210.407 118.14C211.143 118.972 211.511 119.959 211.511 121.1C211.511 121.143 211.505 121.207 211.495 121.292C211.495 121.378 211.495 121.442 211.495 121.484H204.247C204.343 122.38 204.7 123.106 205.319 123.66C205.948 124.204 206.721 124.476 207.639 124.476C208.279 124.476 208.839 124.343 209.319 124.076C209.799 123.81 210.161 123.458 210.407 123.02L211.111 123.436C210.78 123.991 210.311 124.434 209.703 124.764C209.095 125.084 208.401 125.244 207.623 125.244C206.396 125.244 205.388 124.855 204.599 124.076C203.809 123.287 203.415 122.284 203.415 121.068C203.415 119.874 203.799 118.882 204.567 118.092C205.345 117.292 206.343 116.892 207.559 116.892ZM207.559 117.66C206.652 117.66 205.895 117.943 205.287 118.508C204.679 119.074 204.332 119.804 204.247 120.7H210.679C210.593 119.751 210.252 119.01 209.655 118.476C209.068 117.932 208.369 117.66 207.559 117.66ZM217.044 125.244C215.839 125.244 214.836 124.844 214.036 124.044C213.236 123.244 212.836 122.252 212.836 121.068C212.836 119.884 213.236 118.892 214.036 118.092C214.836 117.292 215.839 116.892 217.044 116.892C217.823 116.892 218.527 117.079 219.156 117.452C219.786 117.815 220.244 118.311 220.532 118.94L219.876 119.324C219.642 118.812 219.268 118.407 218.756 118.108C218.255 117.81 217.684 117.66 217.044 117.66C216.084 117.66 215.279 117.991 214.628 118.652C213.978 119.303 213.652 120.108 213.652 121.068C213.652 122.028 213.978 122.839 214.628 123.5C215.279 124.151 216.084 124.476 217.044 124.476C217.684 124.476 218.255 124.327 218.756 124.028C219.268 123.73 219.658 123.324 219.924 122.812L220.596 123.212C220.276 123.831 219.796 124.327 219.156 124.7C218.527 125.063 217.823 125.244 217.044 125.244ZM228.957 117.068V125.068H228.141V117.852H223.149V125.068H222.349V117.068H228.957ZM237.923 117.068V125.068H237.123V117.852H233.091V121.708C233.091 123.01 232.851 123.911 232.371 124.412C231.891 124.914 231.235 125.132 230.403 125.068V124.316C231.043 124.37 231.518 124.199 231.827 123.804C232.137 123.41 232.291 122.711 232.291 121.708V117.068H237.923ZM247.42 117.068H248.236V125.068H247.42V123.26C247.079 123.879 246.61 124.364 246.012 124.716C245.415 125.068 244.738 125.244 243.98 125.244C242.839 125.244 241.863 124.844 241.052 124.044C240.242 123.234 239.836 122.242 239.836 121.068C239.836 119.895 240.242 118.908 241.052 118.108C241.863 117.298 242.839 116.892 243.98 116.892C244.738 116.892 245.415 117.068 246.012 117.42C246.61 117.772 247.079 118.258 247.42 118.876V117.068ZM241.628 123.484C242.29 124.146 243.095 124.476 244.044 124.476C244.994 124.476 245.794 124.146 246.444 123.484C247.095 122.823 247.42 122.018 247.42 121.068C247.42 120.119 247.095 119.314 246.444 118.652C245.794 117.991 244.994 117.66 244.044 117.66C243.095 117.66 242.29 117.991 241.628 118.652C240.978 119.314 240.652 120.119 240.652 121.068C240.652 122.018 240.978 122.823 241.628 123.484ZM256.293 117.068V117.852H253.381V125.068H252.581V117.852H249.669V117.068H256.293ZM263.532 117.068H264.348V125.068H263.532V121.452H258.54V125.068H257.74V117.068H258.54V120.684H263.532V117.068ZM270.482 125.244C269.309 125.244 268.311 124.844 267.49 124.044C266.679 123.234 266.274 122.242 266.274 121.068C266.274 119.895 266.679 118.908 267.49 118.108C268.311 117.298 269.309 116.892 270.482 116.892C271.645 116.892 272.631 117.298 273.442 118.108C274.263 118.908 274.674 119.895 274.674 121.068C274.674 122.242 274.263 123.234 273.442 124.044C272.631 124.844 271.645 125.244 270.482 125.244ZM268.066 123.484C268.727 124.146 269.533 124.476 270.482 124.476C271.431 124.476 272.231 124.146 272.882 123.484C273.533 122.823 273.858 122.018 273.858 121.068C273.858 120.119 273.533 119.314 272.882 118.652C272.231 117.991 271.431 117.66 270.482 117.66C269.533 117.66 268.727 117.991 268.066 118.652C267.415 119.314 267.09 120.119 267.09 121.068C267.09 122.018 267.415 122.823 268.066 123.484Z" fill="black"/>
<path d="M497.067 58.492C491.709 58.492 489.03 54.811 486.665 51.7436C484.459 48.7988 482.568 46.2222 478.943 46.2222C475.318 46.2222 473.427 48.7988 471.22 51.7436C468.856 54.811 466.177 58.492 460.818 58.492C455.302 58.492 452.78 54.811 450.416 51.7436C448.21 48.7988 446.318 46.2222 442.693 46.2222C439.068 46.2222 437.177 48.7988 434.971 51.7436C432.607 54.811 429.927 58.492 424.411 58.492C419.052 58.492 416.373 54.9337 414.009 51.7436C411.803 48.6761 409.911 46.0995 406.286 46.0995C402.661 46.0995 400.77 48.6761 398.564 51.6209C396.2 54.811 393.52 58.492 388.162 58.492C382.803 58.492 380.124 54.811 377.76 51.7436C375.553 48.6761 373.662 46.0995 370.037 46.0995C369.249 46.0995 368.461 45.6087 368.461 44.8725C368.461 44.1363 369.091 43.6455 370.037 43.6455C375.396 43.6455 378.075 47.2038 380.439 50.3939C382.645 53.4614 384.537 56.038 388.162 56.038C391.787 56.038 393.678 53.4614 395.884 50.5166C398.248 47.3265 400.928 43.7682 406.286 43.7682C411.645 43.7682 414.324 47.3265 416.688 50.5166C418.895 53.4614 420.786 56.038 424.411 56.038C428.036 56.038 429.927 53.4614 432.134 50.5166C434.498 47.3265 437.177 43.7682 442.693 43.7682C448.052 43.7682 450.731 47.3265 453.095 50.5166C455.302 53.4614 457.193 56.038 460.818 56.038C464.443 56.038 466.334 53.4614 468.541 50.5166C470.905 47.3265 473.584 43.7682 478.943 43.7682C484.301 43.7682 486.981 47.3265 489.345 50.5166C491.551 53.4614 493.442 56.038 497.067 56.038C500.692 56.038 502.584 53.4614 504.79 50.5166C507.154 47.3265 509.834 43.7682 515.35 43.7682C516.138 43.7682 516.926 44.259 516.926 44.9952C516.926 45.7314 516.295 46.2222 515.35 46.2222C511.725 46.2222 509.834 48.7988 507.627 51.7436C505.105 54.811 502.584 58.492 497.067 58.492Z" fill="#ACCE23"/>
<defs>
<filter id="filter0_d" x="0.0273438" y="31.0684" width="369" height="164" filterUnits="userSpaceOnUse" color-interpolation-filters="sRGB">
<feFlood flood-opacity="0" result="BackgroundImageFix"/>
<feColorMatrix in="SourceAlpha" type="matrix" values="0 0 0 0 0 0 0 0 0 0 0 0 0 0 0 0 0 0 127 0"/>
<feOffset dx="10" dy="10"/>
<feGaussianBlur stdDeviation="15"/>
<feColorMatrix type="matrix" values="0 0 0 0 0 0 0 0 0 0 0 0 0 0 0 0 0 0 0.1 0"/>
<feBlend mode="normal" in2="BackgroundImageFix" result="effect1_dropShadow"/>
<feBlend mode="normal" in="SourceGraphic" in2="effect1_dropShadow" result="shape"/>
</filter>
<linearGradient id="paint0_linear" x1="387.76" y1="321.818" x2="196.775" y2="247.597" gradientUnits="userSpaceOnUse">
<stop stop-color="#FD9B5C"/>
<stop offset="1" stop-color="#EB5760"/>
</linearGradient>
</defs>
</svg>
