<?xml version="1.0" encoding="UTF-8"?>
<svg width="310px" height="198px" viewBox="0 0 310 198" version="1.1" xmlns="http://www.w3.org/2000/svg" xmlns:xlink="http://www.w3.org/1999/xlink">
    <!-- Generator: Sketch 54.1 (76490) - https://sketchapp.com -->
    <title>Untitled</title>
    <desc>Created with Sketch.</desc>
    <defs>
        <rect id="path-1" x="0" y="0.24707" width="427" height="225" rx="20"></rect>
        <linearGradient x1="62.6120582%" y1="166.578269%" x2="21.6186715%" y2="155.323469%" id="linearGradient-3">
            <stop stop-color="#FD9B5C" offset="0%"></stop>
            <stop stop-color="#EB5760" offset="100%"></stop>
        </linearGradient>
    </defs>
    <g id="Page-1" stroke="none" stroke-width="1" fill="none" fill-rule="evenodd">
        <g id="Mask-Group" transform="translate(-10.000000, -28.000000)">
            <mask id="mask-2" fill="white">
                <use xlink:href="#path-1"></use>
            </mask>
            <g id="Rectangle"></g>
            <g id="Group" mask="url(#mask-2)" fill-rule="nonzero">
                <g transform="translate(9.000000, 26.000000)">
                    <rect id="Rectangle" fill="url(#linearGradient-3)" transform="translate(96.740756, 118.238877) rotate(-13.319200) translate(-96.740756, -118.238877) " x="21.7407563" y="15.2383765" width="150" height="206.001" rx="9"></rect>
                    <path d="M31.8453,73.3299 C32.4781,73.4675 33.0135,73.7471 33.4515,74.169 C33.8895,74.59 34.1802,75.123 34.3236,75.768 C34.5427,76.751 34.3833,77.664 33.8454,78.504 C33.3074,79.345 32.5439,79.889 31.5548,80.138 L26.2832,81.465 L23.5447,69.1665 L28.4323,67.9362 C29.3981,67.693 30.2786,67.8116 31.0738,68.2918 C31.8805,68.769 32.3895,69.482 32.6008,70.4308 C32.8459,71.5318 32.5941,72.4982 31.8453,73.3299 Z M28.7726,69.4647 L25.5085,70.2864 L26.3456,74.046 L29.6098,73.2247 C30.1218,73.0958 30.512,72.8058 30.7802,72.3549 C31.0485,71.9039 31.124,71.4148 31.0066,70.8877 C30.8918,70.3724 30.6137,69.9785 30.1721,69.7062 C29.7395,69.4193 29.273,69.3388 28.7726,69.4647 Z M27.5662,79.528 L31.2144,78.61 C31.7613,78.472 32.178,78.163 32.4643,77.683 C32.7506,77.203 32.8312,76.681 32.706,76.119 C32.5834,75.569 32.2871,75.148 31.817,74.859 C31.3702,74.563 30.8733,74.484 30.3264,74.621 L26.6782,75.54 L27.5662,79.528 Z M37.1321,72.797 L39.2966,72.2521 C40.1693,72.0324 40.9495,72.1144 41.6371,72.4979 C42.3337,72.8668 42.7746,73.4671 42.9597,74.299 C43.1449,75.13 43.0053,75.883 42.5408,76.557 C42.0737,77.218 41.4096,77.658 40.5484,77.874 L36.8653,78.802 L34.9093,70.0167 L36.4279,69.6344 L37.1321,72.797 Z M44.7203,76.824 L42.7642,68.0394 L44.2829,67.6572 L46.2389,76.442 L44.7203,76.824 Z M38.0671,76.996 L40.2315,76.451 C40.6737,76.34 41.0116,76.119 41.2452,75.788 C41.4787,75.457 41.5498,75.087 41.4586,74.677 C41.3673,74.267 41.1417,73.9709 40.7817,73.7894 C40.4308,73.5932 40.0401,73.5493 39.6095,73.6577 L37.445,74.203 L38.0671,76.996 Z M52.712,75.054 C51.397,75.385 50.2054,75.221 49.137,74.562 C48.066,73.8917 47.3844,72.9005 47.0923,71.5886 C46.8002,70.2767 46.9928,69.0717 47.67,67.9735 C48.3445,66.8636 49.3393,66.1432 50.6543,65.8122 C51.5154,65.5954 52.3362,65.6114 53.1167,65.8603 C53.8945,66.0974 54.5305,66.5249 55.0244,67.1428 L53.9145,68.2014 C53.589,67.7886 53.1623,67.5002 52.6342,67.3362 C52.1178,67.1693 51.5686,67.1591 50.9868,67.3056 C50.114,67.5253 49.4474,68.0085 48.9869,68.7553 C48.5407,69.5108 48.4154,70.3278 48.611,71.2063 C48.804,72.0731 49.2592,72.7378 49.9767,73.2004 C50.7032,73.6484 51.5028,73.7625 52.3756,73.5429 C52.9574,73.3964 53.4511,73.1299 53.8566,72.7433 C54.2595,72.345 54.5309,71.8809 54.671,71.3508 L56.1309,71.7812 C55.9034,72.5806 55.4862,73.2732 54.8792,73.8589 C54.2723,74.445 53.5499,74.843 52.712,75.054 Z M68.2188,69.3693 L66.5874,62.0427 L68.1061,61.6604 L70.0621,70.4453 L58.1051,73.4551 L56.1491,64.6702 L57.6677,64.288 L59.299,71.6146 L62.9996,70.6831 L61.3682,63.3565 L62.8869,62.9742 L64.5182,70.3008 L68.2188,69.3693 Z M77.9969,60.7664 L77.6605,59.2554 L79.1791,58.8731 L81.1351,67.658 L79.6165,68.0403 L79.2801,66.5293 C78.7935,67.8764 77.8229,68.733 76.3683,69.0991 C75.1348,69.4096 73.9941,69.2267 72.9464,68.5503 C71.8845,67.8652 71.2101,66.8784 70.9232,65.5899 C70.6389,64.3132 70.8269,63.1155 71.4872,61.9968 C72.1476,60.8781 73.0887,60.165 74.3105,59.8574 C75.7652,59.4913 76.994,59.7943 77.9969,60.7664 Z M76.2317,67.5749 C77.1161,67.3523 77.7885,66.8676 78.249,66.1209 C78.7043,65.3507 78.8341,64.5263 78.6385,63.6478 C78.4403,62.7576 77.9779,62.0886 77.2514,61.6406 C76.5223,61.1809 75.7156,61.0623 74.8312,61.285 C73.9584,61.5047 73.2931,61.9937 72.8352,62.7522 C72.3747,63.499 72.2436,64.3175 72.4418,65.2077 C72.6374,66.0862 73.1011,66.7611 73.8328,67.2325 C74.5593,67.6805 75.3589,67.7946 76.2317,67.5749 Z M84.2903,57.5866 L88.0083,56.6507 L89.9643,65.4355 L88.4632,65.8134 L87.759,62.6509 L86.4848,62.9716 L84.7452,66.7493 L82.8949,67.2151 L84.7196,63.3231 C84.0198,63.3261 83.4115,63.1329 82.8947,62.7435 C82.3895,62.3511 82.0638,61.827 81.9178,61.171 C81.7378,60.3628 81.873,59.6176 82.3232,58.9352 C82.7735,58.2529 83.4292,57.8033 84.2903,57.5866 Z M85.2894,61.8253 L87.4539,61.2804 L86.824,58.4517 L84.6595,58.9965 C84.2173,59.1078 83.8749,59.3363 83.6324,59.6818 C83.3988,60.0128 83.329,60.3891 83.4229,60.8107 C83.5142,61.2207 83.7353,61.5238 84.0862,61.7199 C84.4461,61.9015 84.8472,61.9366 85.2894,61.8253 Z M30.1891,95.944 L36.6651,94.314 L38.6211,103.099 L37.1025,103.481 L35.4751,96.172 L32.0364,97.038 L32.8344,100.622 C33.1474,102.028 33.0911,103.099 32.6655,103.837 C32.2373,104.564 31.4704,105.01 30.3647,105.177 L30.0439,103.736 C30.6673,103.666 31.0853,103.419 31.298,102.994 C31.5081,102.558 31.5114,101.883 31.308,100.969 L30.1891,95.944 Z M41.8405,99.524 L45.3026,92.14 L46.5244,91.832 L48.4805,100.617 L46.9793,100.995 L45.6062,94.828 L42.1441,102.212 L40.9223,102.52 L38.9662,93.735 L40.4674,93.357 L41.8405,99.524 Z M48.8361,91.25 L54.5615,89.809 L54.8901,91.285 L50.6833,92.344 L52.3107,99.653 L50.7921,100.035 L48.8361,91.25 Z M63.1153,89.252 L62.7789,87.741 L64.2975,87.358 L66.2536,96.143 L64.7349,96.526 L64.3985,95.015 C63.9119,96.362 62.9413,97.218 61.4867,97.584 C60.2532,97.895 59.1126,97.712 58.0649,97.036 C57.0029,96.35 56.3285,95.364 56.0416,94.075 C55.7573,92.798 55.9453,91.601 56.6057,90.482 C57.266,89.363 58.2071,88.65 59.429,88.343 C60.8836,87.977 62.1124,88.28 63.1153,89.252 Z M61.3501,96.06 C62.2345,95.838 62.907,95.353 63.3674,94.606 C63.8227,93.836 63.9525,93.012 63.7569,92.133 C63.5587,91.243 63.0964,90.574 62.3699,90.126 C61.6408,89.666 60.834,89.548 59.9496,89.77 C59.0768,89.99 58.4115,90.479 57.9536,91.238 C57.4931,91.984 57.362,92.803 57.5602,93.693 C57.7558,94.571 58.2195,95.246 58.9512,95.718 C59.6777,96.166 60.4773,96.28 61.3501,96.06 Z" id="Shape" fill="#FFFFFF"></path>
                    <path d="M45.96,139.62 L44.1425,144.29 C45.4187,144.006 46.5412,144.162 47.5099,144.759 C48.4785,145.357 49.0985,146.265 49.3697,147.483 C49.6488,148.736 49.4652,149.871 48.8189,150.887 C48.17,151.891 47.1939,152.558 45.8906,152.886 C44.5872,153.214 43.4338,153.084 42.4302,152.495 C41.4409,151.915 40.8041,150.987 40.5198,149.71 C40.3137,148.785 40.3684,147.899 40.6839,147.053 L43.2021,140.315 L45.96,139.62 Z M46.9783,148.085 C46.8479,147.499 46.5503,147.073 46.0854,146.806 C45.6179,146.528 45.0874,146.464 44.494,146.613 C43.9005,146.763 43.4521,147.067 43.149,147.527 C42.8574,147.984 42.7782,148.511 42.9112,149.108 C43.0442,149.706 43.3386,150.145 43.7945,150.426 C44.2593,150.693 44.7885,150.751 45.382,150.602 C45.9755,150.452 46.4238,150.148 46.727,149.688 C47.0275,149.216 47.1113,148.682 46.9783,148.085 Z M56.2196,150.286 C54.6951,150.669 53.3674,150.391 52.2364,149.451 C51.1119,148.485 50.3358,147.042 49.908,145.121 C49.4803,143.2 49.5666,141.545 50.167,140.157 C50.7789,138.766 51.8471,137.879 53.3716,137.495 C54.9193,137.105 56.2483,137.389 57.3586,138.347 C58.4806,139.301 59.2554,140.739 59.6831,142.66 C60.1108,144.581 60.0258,146.241 59.4281,147.641 C58.8368,149.015 57.7673,149.896 56.2196,150.286 Z M57.2917,143.262 C56.9996,141.95 56.5613,141.003 55.9769,140.42 C55.4041,139.835 54.7104,139.644 53.8958,139.849 C53.0812,140.054 52.5414,140.555 52.2763,141.352 C52.0113,142.148 52.0248,143.202 52.3169,144.514 C52.609,145.826 53.0415,146.775 53.6143,147.361 C54.1845,147.934 54.8769,148.119 55.6914,147.914 C56.506,147.709 57.0459,147.208 57.3109,146.411 C57.5876,145.612 57.5812,144.562 57.2917,143.262 Z M59.3252,138.705 L58.8088,136.386 L66.6987,134.4 L67.1564,136.456 L65.3002,147.74 L62.7517,148.382 L64.5444,137.392 L59.3252,138.705 Z M78.3476,144.456 L70.1784,146.512 L69.7755,144.703 L72.985,139.33 C73.6942,138.1 73.9772,137.163 73.8337,136.519 C73.7268,136.039 73.4894,135.69 73.1217,135.474 C72.7655,135.254 72.3547,135.203 71.8893,135.32 C70.9583,135.554 70.3845,136.206 70.1678,137.275 L67.8769,136.59 C68.0641,135.664 68.4631,134.89 69.0739,134.266 C69.6936,133.628 70.4457,133.197 71.3301,132.974 C72.4357,132.696 73.4623,132.809 74.4101,133.312 C75.3553,133.804 75.9596,134.642 76.223,135.825 C76.5073,137.102 76.1303,138.582 75.0919,140.266 L73.2365,143.275 L77.8273,142.119 L78.3476,144.456 Z M88.4855,137.395 L86.3211,137.94 L86.5362,138.906 L90.4288,137.927 L90.7731,139.473 L86.8805,140.453 L87.2717,142.21 L84.8803,142.812 L84.4891,141.055 L83.1799,141.384 L82.8357,139.838 L84.1448,139.508 L83.9297,138.542 L82.6205,138.872 L82.1471,136.746 L83.4563,136.416 L82.1418,130.513 L86.6977,129.366 C87.8498,129.076 88.9102,129.23 89.8788,129.827 C90.8591,130.421 91.474,131.281 91.725,132.405 C91.975,133.53 91.789,134.572 91.168,135.533 C90.5549,136.479 89.6609,137.099 88.4855,137.395 Z M87.2024,131.632 L85.0379,132.177 L85.8477,135.814 L88.0122,135.269 C88.5009,135.146 88.8691,134.868 89.1167,134.435 C89.3759,133.998 89.4482,133.522 89.3334,133.007 C89.2187,132.492 88.9547,132.107 88.5416,131.852 C88.1376,131.583 87.6911,131.509 87.2024,131.632 Z M99.251,124.35 L95.79,141.921 L94.795,142.171 L98.256,124.601 L99.251,124.35 Z M108.898,127.488 L111.115,126.93 L113.071,135.715 L110.889,136.265 L109.747,131.134 L108.313,135.206 L108.033,135.276 L105.009,132.29 L106.159,137.455 L103.994,138 L102.038,129.215 L104.255,128.657 L107.398,131.762 L108.898,127.488 Z M122.838,129.602 L116.258,131.258 C116.794,132.286 117.737,132.63 119.087,132.29 C119.948,132.073 120.534,131.616 120.846,130.919 L122.896,131.517 C122.314,132.987 121.185,133.933 119.509,134.354 C118.066,134.718 116.811,134.57 115.742,133.911 C114.674,133.252 113.991,132.255 113.694,130.92 C113.402,129.608 113.587,128.399 114.25,127.292 C114.901,126.188 115.908,125.464 117.269,125.122 C118.561,124.796 119.713,124.976 120.726,125.662 C121.762,126.341 122.426,127.336 122.718,128.648 C122.773,128.894 122.813,129.212 122.838,129.602 Z M115.832,129.51 L120.283,128.389 C120.027,127.848 119.667,127.474 119.204,127.269 C118.752,127.061 118.258,127.025 117.723,127.16 C117.118,127.312 116.653,127.596 116.328,128.012 C116,128.416 115.834,128.915 115.832,129.51 Z M129.409,131.862 C128.094,132.193 126.896,132.025 125.813,131.358 C124.742,130.687 124.06,129.696 123.768,128.384 C123.476,127.072 123.667,125.861 124.342,124.751 C125.028,123.639 126.029,122.917 127.344,122.586 C128.193,122.372 129.013,122.382 129.802,122.616 C130.592,122.85 131.244,123.268 131.758,123.868 L130.075,125.498 C129.82,125.179 129.488,124.959 129.081,124.839 C128.684,124.716 128.265,124.71 127.823,124.821 C127.148,124.991 126.64,125.36 126.3,125.928 C125.957,126.485 125.864,127.114 126.02,127.817 C126.171,128.497 126.52,129.015 127.067,129.372 C127.608,129.706 128.216,129.788 128.891,129.618 C129.345,129.504 129.724,129.303 130.029,129.016 C130.343,128.714 130.547,128.36 130.64,127.953 L132.846,128.585 C132.618,129.385 132.195,130.079 131.577,130.668 C130.97,131.253 130.247,131.652 129.409,131.862 Z" id="Shape" fill="#FFFFFF"></path>
                    <path d="M45.9883,166.056 L46.4683,165.935 L48.1418,173.451 L47.5764,173.594 L46.0416,166.7 L44.4354,167.683 L44.1868,167.224 L45.9883,166.056 Z M56.6924,165.629 L57.8877,170.998 L57.3437,171.135 L56.33,166.582 L55.0405,170.252 L54.9658,170.271 L52.2504,167.587 L53.2688,172.161 L52.7354,172.295 L51.5401,166.926 L52.1695,166.768 L54.797,169.361 L56.0523,165.791 L56.6924,165.629 Z M60.7059,164.494 C61.4882,164.298 62.1833,164.417 62.7912,164.854 C63.4062,165.289 63.799,165.889 63.9695,166.655 C63.9759,166.684 63.9819,166.728 63.9875,166.787 C64.0003,166.844 64.0098,166.887 64.0162,166.915 L59.184,168.132 C59.3818,168.717 59.7285,169.144 60.2238,169.412 C60.7247,169.672 61.2809,169.724 61.8925,169.57 C62.3192,169.463 62.6726,169.28 62.9528,169.02 C63.2329,168.761 63.4221,168.463 63.5204,168.129 L64.0519,168.29 C63.9143,168.718 63.6675,169.093 63.3116,169.417 C62.954,169.734 62.5157,169.958 61.9966,170.088 C61.1787,170.294 60.4485,170.202 59.8059,169.812 C59.1617,169.415 58.7488,168.808 58.5671,167.992 C58.3886,167.191 58.4964,166.46 58.8905,165.802 C59.2901,165.134 59.8952,164.699 60.7059,164.494 Z M60.8207,165.01 C60.2162,165.162 59.7535,165.479 59.4327,165.96 C59.1118,166.442 58.9898,166.99 59.0668,167.606 L63.355,166.526 C63.1563,165.904 62.818,165.463 62.34,165.206 C61.8676,164.939 61.3612,164.874 60.8207,165.01 Z M68.2782,168.507 C67.4746,168.71 66.7463,168.609 66.0934,168.207 C65.4405,167.804 65.0256,167.206 64.8487,166.411 C64.6718,165.617 64.7902,164.884 65.2041,164.213 C65.6179,163.541 66.2266,163.105 67.0302,162.903 C67.5493,162.772 68.0466,162.779 68.522,162.924 C68.9957,163.062 69.3756,163.317 69.6617,163.691 L69.2817,164.059 C69.0487,163.755 68.7393,163.546 68.3533,163.431 C67.9744,163.315 67.5716,163.31 67.145,163.418 C66.5049,163.579 66.0174,163.936 65.6824,164.489 C65.3458,165.035 65.2493,165.63 65.3927,166.274 C65.5362,166.918 65.8742,167.408 66.4068,167.742 C66.9378,168.07 67.5234,168.153 68.1634,167.992 C68.5901,167.884 68.9482,167.688 69.2379,167.404 C69.5346,167.118 69.7336,166.78 69.8349,166.392 L70.3427,166.548 C70.2218,167.016 69.9759,167.43 69.6049,167.788 C69.2396,168.137 68.7973,168.377 68.2782,168.507 Z M72.1198,167.381 C72.0481,167.498 71.9447,167.573 71.8095,167.607 C71.6744,167.641 71.5503,167.623 71.4371,167.553 C71.3239,167.484 71.2522,167.381 71.2219,167.245 C71.1916,167.109 71.2124,166.982 71.2841,166.866 C71.3558,166.75 71.4593,166.675 71.5944,166.641 C71.7295,166.607 71.8536,166.625 71.9668,166.694 C72.08,166.764 72.1517,166.867 72.182,167.003 C72.2123,167.139 72.1915,167.265 72.1198,167.381 Z M78.9346,165.836 C78.1666,166.029 77.47,165.936 76.8448,165.557 C76.218,165.171 75.8138,164.569 75.6321,163.753 C75.4328,162.859 75.407,162.136 75.5547,161.584 C75.7078,161.024 76.1451,160.442 76.8666,159.837 C77.0071,159.726 77.1737,159.597 77.3663,159.45 C77.5589,159.304 77.7137,159.189 77.8305,159.107 C77.9529,159.015 78.08,158.912 78.2118,158.795 C78.3491,158.67 78.4552,158.556 78.5301,158.454 C78.6051,158.352 78.6653,158.235 78.7109,158.103 C78.755,157.963 78.7709,157.815 78.7588,157.66 L79.2404,157.799 C79.2495,158.009 79.221,158.201 79.1549,158.376 C79.0959,158.55 78.9848,158.725 78.8215,158.903 C78.6637,159.071 78.5216,159.209 78.3953,159.316 C78.2761,159.422 78.0843,159.572 77.8198,159.767 C77.5554,159.962 77.3655,160.104 77.2502,160.194 C76.7766,160.563 76.4464,160.918 76.2596,161.26 C76.08,161.6 76.0001,162.017 76.02,162.511 C76.1812,162.054 76.4394,161.679 76.7946,161.386 C77.1499,161.092 77.5301,160.894 77.9355,160.792 C78.6466,160.613 79.2895,160.701 79.864,161.055 C80.4386,161.41 80.8072,161.952 80.9697,162.682 C81.1307,163.405 81.0184,164.064 80.6329,164.66 C80.2545,165.254 79.6884,165.646 78.9346,165.836 Z M78.8151,165.299 C79.4124,165.149 79.8625,164.843 80.1652,164.381 C80.4664,163.912 80.5532,163.392 80.4257,162.819 C80.2966,162.239 80.0057,161.81 79.553,161.53 C79.1004,161.251 78.5789,161.186 77.9886,161.335 C77.4482,161.471 76.9993,161.765 76.642,162.218 C76.2918,162.669 76.1559,163.172 76.2344,163.727 C76.3715,164.342 76.6829,164.797 77.1688,165.09 C77.6547,165.384 78.2035,165.453 78.8151,165.299 Z M83.853,158.668 C84.6353,158.471 85.3304,158.591 85.9383,159.027 C86.5533,159.462 86.9461,160.063 87.1166,160.829 C87.123,160.857 87.129,160.901 87.1346,160.96 C87.1474,161.017 87.1569,161.06 87.1633,161.089 L82.331,162.305 C82.5289,162.89 82.8755,163.317 83.3709,163.586 C83.8717,163.845 84.428,163.898 85.0396,163.744 C85.4662,163.636 85.8197,163.453 86.0999,163.193 C86.38,162.934 86.5692,162.637 86.6674,162.302 L87.199,162.463 C87.0614,162.891 86.8146,163.267 86.4587,163.591 C86.1011,163.907 85.6628,164.131 85.1436,164.262 C84.3258,164.468 83.5956,164.376 82.953,163.986 C82.3088,163.588 81.8959,162.982 81.7142,162.166 C81.5357,161.364 81.6435,160.634 82.0376,159.975 C82.4372,159.308 83.0423,158.872 83.853,158.668 Z M83.9678,159.183 C83.3633,159.335 82.9006,159.652 82.5797,160.134 C82.2589,160.615 82.1369,161.164 82.2139,161.779 L86.5021,160.7 C86.3034,160.077 85.965,159.637 85.4871,159.379 C85.0147,159.112 84.5083,159.047 83.9678,159.183 Z M91.425,162.681 C90.6216,162.883 89.8934,162.783 89.2405,162.38 C88.5876,161.978 88.1727,161.379 87.9958,160.585 C87.8189,159.79 87.9373,159.057 88.3511,158.386 C88.765,157.715 89.3737,157.278 90.1773,157.076 C90.6964,156.945 91.194,156.952 91.669,157.097 C92.143,157.235 92.523,157.491 92.809,157.865 L92.429,158.233 C92.196,157.929 91.886,157.719 91.5,157.605 C91.122,157.488 90.7187,157.484 90.292,157.591 C89.652,157.752 89.1645,158.109 88.8295,158.662 C88.4929,159.208 88.3964,159.803 88.5398,160.448 C88.6832,161.092 89.0213,161.581 89.5539,161.916 C90.0849,162.243 90.6704,162.326 91.31,162.165 C91.737,162.058 92.095,161.862 92.385,161.577 C92.682,161.291 92.881,160.954 92.982,160.565 L93.49,160.721 C93.369,161.19 93.123,161.603 92.752,161.961 C92.387,162.31 91.944,162.55 91.425,162.681 Z M98.146,155.195 L99.341,160.563 L98.797,160.7 L97.719,155.858 L94.391,156.696 L95.469,161.538 L94.936,161.672 L93.74,156.304 L98.146,155.195 Z M104.124,153.69 L105.319,159.059 L104.786,159.193 L103.707,154.351 L101.019,155.027 L101.595,157.615 C101.79,158.488 101.764,159.133 101.519,159.55 C101.274,159.967 100.87,160.224 100.305,160.321 L100.193,159.816 C100.628,159.744 100.919,159.55 101.066,159.233 C101.213,158.917 101.212,158.422 101.062,157.749 L100.369,154.635 L104.124,153.69 Z M110.455,152.096 L110.999,151.959 L112.195,157.328 L111.651,157.465 L111.381,156.252 C111.245,156.724 111.005,157.128 110.659,157.465 C110.314,157.801 109.888,158.033 109.384,158.16 C108.623,158.352 107.912,158.247 107.252,157.846 C106.591,157.438 106.172,156.841 105.997,156.053 C105.821,155.266 105.944,154.536 106.365,153.863 C106.785,153.183 107.375,152.747 108.136,152.556 C108.64,152.428 109.118,152.433 109.569,152.569 C110.02,152.705 110.405,152.952 110.725,153.31 L110.455,152.096 Z M107.552,157.374 C108.092,157.707 108.679,157.793 109.311,157.634 C109.944,157.475 110.428,157.119 110.763,156.566 C111.098,156.013 111.195,155.418 111.053,154.781 C110.911,154.144 110.574,153.658 110.041,153.323 C109.509,152.988 108.926,152.901 108.293,153.06 C107.66,153.219 107.173,153.577 106.83,154.131 C106.495,154.684 106.399,155.279 106.541,155.916 C106.683,156.553 107.02,157.039 107.552,157.374 Z M116.371,150.607 L116.488,151.133 L114.546,151.622 L115.625,156.465 L115.091,156.599 L114.013,151.756 L112.072,152.245 L111.954,151.719 L116.371,150.607 Z M121.197,149.392 L121.741,149.256 L122.936,154.624 L122.392,154.761 L121.852,152.334 L118.524,153.172 L119.064,155.599 L118.531,155.733 L117.335,150.365 L117.869,150.23 L118.409,152.657 L121.737,151.819 L121.197,149.392 Z M127.052,153.713 C126.27,153.91 125.545,153.809 124.878,153.41 C124.216,153.002 123.798,152.404 123.623,151.617 C123.447,150.829 123.57,150.099 123.991,149.426 C124.418,148.744 125.022,148.305 125.804,148.108 C126.579,147.913 127.298,148.019 127.959,148.427 C128.626,148.826 129.048,149.419 129.223,150.207 C129.398,150.994 129.273,151.729 128.846,152.411 C128.425,153.084 127.827,153.518 127.052,153.713 Z M125.178,152.937 C125.718,153.27 126.304,153.357 126.937,153.197 C127.57,153.038 128.054,152.682 128.389,152.129 C128.724,151.576 128.821,150.981 128.679,150.344 C128.537,149.707 128.2,149.221 127.667,148.886 C127.135,148.552 126.552,148.464 125.919,148.623 C125.286,148.783 124.799,149.14 124.456,149.695 C124.121,150.248 124.025,150.843 124.167,151.48 C124.309,152.117 124.646,152.603 125.178,152.937 Z" id="Shape" fill="#FFFFFF"></path>
                    <rect id="Rectangle" fill="#FFFFFF" transform="translate(200.574942, 146.942603) rotate(26.214200) translate(-200.574942, -146.942603) " x="125.574942" y="43.9421034" width="150" height="206.001" rx="9"></rect>
                    <polygon id="Path" fill="#ACCE23" points="282.998 69.8135 296.805 76.612 273.903 123.126 268.53 116.192 260.096 116.328"></polygon>
                    <path d="M298.472,80.448 C297.958,79.262 296.928,76.787 296.805,76.611 L295.61,79.039 L298.472,80.448 Z" id="Path" fill="#9DB14C"></path>
                    <path d="M269.462,107.493 L274.397,109.922 L274.154,110.416 L269.703,108.224 L268.478,110.711 L270.857,111.882 C271.659,112.277 272.142,112.699 272.306,113.147 C272.469,113.596 272.405,114.067 272.113,114.56 L271.649,114.332 C271.876,113.954 271.915,113.609 271.766,113.298 C271.616,112.988 271.232,112.68 270.614,112.376 L267.752,110.966 L269.462,107.493 Z M271.987,102.365 L272.249,101.832 L276.588,106.617 C276.981,107.048 277.23,107.505 277.334,107.99 C277.445,108.478 277.383,108.921 277.146,109.319 L276.682,109.091 C276.864,108.788 276.911,108.46 276.823,108.106 C276.746,107.749 276.555,107.398 276.251,107.052 L276.038,106.812 L269.897,106.609 L270.16,106.076 L275.533,106.245 L271.987,102.365 Z M274.299,97.67 L274.546,97.167 L279.481,99.596 L279.233,100.1 L277.299,99.147 C277.302,99.688 277.164,100.242 276.886,100.808 C276.575,101.439 276.19,101.855 275.732,102.054 C275.268,102.251 274.756,102.211 274.197,101.936 L272.588,101.144 L272.831,100.65 L274.44,101.442 C275.269,101.851 275.923,101.568 276.402,100.594 C276.668,100.055 276.812,99.496 276.835,98.919 L274.299,97.67 Z M278.269,89.606 L278.517,89.103 L283.451,91.533 L280.23,98.075 L275.295,95.646 L275.538,95.153 L279.989,97.344 L281.233,94.818 L276.782,92.626 L277.03,92.123 L281.481,94.314 L282.72,91.798 L278.269,89.606 Z M280.252,85.306 C280.608,84.582 281.153,84.123 281.886,83.928 C282.623,83.727 283.343,83.799 284.047,84.146 C284.074,84.159 284.111,84.182 284.161,84.214 C284.213,84.24 284.253,84.26 284.279,84.272 L282.078,88.743 C282.66,88.956 283.216,88.956 283.746,88.743 C284.272,88.52 284.675,88.125 284.954,87.559 C285.148,87.165 285.236,86.779 285.217,86.402 C285.198,86.025 285.091,85.694 284.896,85.41 L285.367,85.102 C285.608,85.475 285.739,85.898 285.758,86.374 C285.771,86.846 285.659,87.322 285.422,87.803 C285.05,88.559 284.504,89.063 283.784,89.313 C283.057,89.56 282.319,89.499 281.569,89.13 C280.832,88.767 280.337,88.229 280.083,87.515 C279.826,86.792 279.882,86.056 280.252,85.306 Z M280.725,85.539 C280.45,86.098 280.394,86.651 280.558,87.198 C280.722,87.744 281.068,88.18 281.595,88.505 L283.548,84.538 C282.936,84.302 282.375,84.287 281.865,84.494 C281.351,84.691 280.971,85.039 280.725,85.539 Z M283.113,79.494 C283.469,78.771 284.014,78.311 284.748,78.117 C285.484,77.915 286.205,77.988 286.909,78.335 C286.935,78.348 286.973,78.37 287.022,78.403 C287.075,78.429 287.114,78.448 287.141,78.461 L284.939,82.932 C285.521,83.145 286.077,83.144 286.607,82.931 C287.134,82.708 287.536,82.314 287.815,81.748 C288.009,81.353 288.097,80.967 288.078,80.59 C288.06,80.213 287.953,79.883 287.757,79.599 L288.228,79.291 C288.47,79.663 288.6,80.087 288.619,80.563 C288.632,81.035 288.52,81.511 288.284,81.991 C287.911,82.748 287.365,83.251 286.645,83.502 C285.918,83.749 285.18,83.688 284.43,83.318 C283.693,82.956 283.198,82.418 282.944,81.704 C282.687,80.981 282.744,80.244 283.113,79.494 Z M283.587,79.728 C283.311,80.287 283.256,80.84 283.42,81.386 C283.584,81.933 283.929,82.369 284.456,82.694 L286.409,78.726 C285.798,78.491 285.237,78.476 284.726,78.683 C284.213,78.879 283.833,79.228 283.587,79.728 Z" id="Shape" fill="#FFFFFF"></path>
                    <path d="M187.873,81.62 L186.295,80.794 L186.573,77.753 L181.55,75.124 L179.453,77.212 L177.875,76.386 L187.331,67.131 L189.006,68.0076 L187.873,81.62 Z M187.321,69.3781 L182.718,73.9697 L186.721,76.065 L187.321,69.3781 Z M193.805,79.49 L195.792,85.766 L194.07,84.864 L192.227,79.09 L190.434,82.961 L189.047,82.234 L192.829,74.068 L194.216,74.794 L192.544,78.404 L197.66,76.597 L199.447,77.532 L193.805,79.49 Z M199.971,77.807 L206.797,81.38 L206.161,82.752 L203.45,81.333 L200.304,88.128 L198.916,87.401 L202.063,80.606 L199.336,79.179 L199.971,77.807 Z M206.729,88.468 L213.801,85.047 L214.917,85.631 L211.136,93.798 L209.764,93.08 L212.419,87.347 L205.347,90.768 L204.231,90.183 L208.012,82.016 L209.384,82.734 L206.729,88.468 Z M220.502,93.486 C221.159,94.263 221.276,95.109 220.852,96.024 C220.529,96.72 220.046,97.164 219.403,97.355 C218.765,97.535 218.042,97.414 217.234,96.991 L213.247,94.904 L217.029,86.737 L220.697,88.657 C221.484,89.069 222.002,89.59 222.251,90.221 C222.511,90.858 222.485,91.514 222.172,92.189 C221.809,92.973 221.252,93.405 220.502,93.486 Z M220.043,89.898 L217.795,88.721 L216.804,90.86 L219.052,92.037 C219.86,92.46 220.433,92.307 220.771,91.578 C221.094,90.881 220.851,90.321 220.043,89.898 Z M215.2,94.323 L217.752,95.659 C218.156,95.87 218.51,95.934 218.813,95.849 C219.127,95.77 219.367,95.551 219.534,95.191 C219.69,94.854 219.699,94.534 219.562,94.232 C219.44,93.925 219.177,93.665 218.773,93.454 L216.221,92.118 L215.2,94.323 Z M229.009,97.23 L230.583,93.832 L231.97,94.559 L228.188,102.725 L226.801,101.999 L228.382,98.585 L224.251,96.423 L222.67,99.837 L221.283,99.111 L225.065,90.944 L226.452,91.67 L224.879,95.067 L229.009,97.23 Z M234.108,99.331 L236.085,100.366 C236.883,100.783 237.428,101.373 237.722,102.136 C238.032,102.893 238.008,103.659 237.65,104.432 C237.292,105.205 236.733,105.697 235.975,105.909 C235.222,106.11 234.451,106.004 233.665,105.593 L230.3,103.831 L234.082,95.664 L235.469,96.391 L234.108,99.331 Z M237.476,107.588 L241.258,99.421 L242.645,100.147 L238.863,108.314 L237.476,107.588 Z M232.3,103.234 L234.277,104.27 C234.681,104.481 235.072,104.537 235.448,104.436 C235.825,104.336 236.102,104.095 236.278,103.714 C236.455,103.333 236.46,102.95 236.295,102.566 C236.145,102.176 235.873,101.878 235.48,101.672 L233.503,100.637 L232.3,103.234 Z M250.946,102.971 L246.64,100.717 L247.215,99.475 L251.52,101.729 L250.946,102.971 Z M243.482,107.708 L250.554,104.287 L251.67,104.872 L247.888,113.039 L246.517,112.321 L249.172,106.588 L242.099,110.008 L240.983,109.424 L244.765,101.257 L246.136,101.975 L243.482,107.708 Z M176.996,92.573 C178.112,93.157 178.87,94.075 179.268,95.325 C179.667,96.575 179.591,97.794 179.041,98.981 C178.487,100.179 177.622,100.991 176.447,101.418 C175.288,101.839 174.144,101.755 173.018,101.165 C171.699,100.474 170.944,99.409 170.752,97.97 L168.589,102.641 L167.202,101.915 L172.496,90.481 L173.884,91.208 L173.233,92.612 C174.424,91.896 175.678,91.883 176.996,92.573 Z M173.477,99.701 C174.275,100.118 175.073,100.191 175.873,99.92 C176.682,99.626 177.276,99.071 177.654,98.255 C178.037,97.427 178.086,96.594 177.801,95.755 C177.521,94.904 176.983,94.271 176.185,93.853 C175.377,93.43 174.571,93.36 173.767,93.642 C172.967,93.914 172.376,94.463 171.993,95.291 C171.615,96.108 171.563,96.946 171.838,97.807 C172.123,98.647 172.67,99.278 173.477,99.701 Z M186.012,106.425 C184.821,106.83 183.635,106.723 182.455,106.105 C181.275,105.488 180.473,104.553 180.048,103.303 C179.623,102.052 179.691,100.823 180.25,99.614 C180.81,98.405 181.686,97.599 182.877,97.194 C184.068,96.789 185.254,96.896 186.434,97.514 C187.614,98.132 188.416,99.066 188.841,100.316 C189.271,101.583 189.209,102.816 188.654,104.014 C188.1,105.211 187.219,106.015 186.012,106.425 Z M183.098,104.717 C183.895,105.134 184.694,105.207 185.493,104.936 C186.292,104.664 186.884,104.115 187.267,103.287 C187.65,102.46 187.699,101.626 187.414,100.787 C187.129,99.948 186.588,99.32 185.791,98.902 C185.004,98.49 184.211,98.42 183.412,98.692 C182.612,98.963 182.021,99.513 181.638,100.34 C181.255,101.168 181.205,102.001 181.49,102.84 C181.775,103.68 182.311,104.305 183.098,104.717 Z M192.048,111.127 C190.847,110.498 190.037,109.567 189.617,108.333 C189.203,107.088 189.279,105.856 189.843,104.636 C190.408,103.416 191.278,102.607 192.454,102.208 C193.634,101.798 194.825,101.907 196.027,102.536 C196.813,102.948 197.43,103.514 197.875,104.234 C198.326,104.944 198.554,105.706 198.56,106.521 L197.078,106.597 C197.078,106.056 196.926,105.543 196.622,105.059 C196.328,104.581 195.915,104.203 195.384,103.924 C194.586,103.507 193.788,103.434 192.989,103.705 C192.195,103.993 191.609,104.546 191.231,105.362 C190.858,106.168 190.806,106.993 191.075,107.838 C191.36,108.677 191.901,109.305 192.699,109.723 C193.23,110.001 193.767,110.126 194.308,110.098 C194.854,110.06 195.34,109.881 195.765,109.562 L196.62,110.882 C195.966,111.352 195.232,111.611 194.418,111.658 C193.604,111.705 192.814,111.528 192.048,111.127 Z M199.869,104.811 L206.694,108.384 L206.059,109.756 L203.348,108.337 L200.201,115.132 L198.814,114.405 L201.96,107.611 L199.233,106.183 L199.869,104.811 Z" id="Shape" fill="#F65E64"></path>
                    <path d="M151.479,133.599 L152.477,131.443 L159.685,135.217 L158.8,137.128 L150.611,144.672 L148.283,143.453 L156.247,136.096 L151.479,133.599 Z M166.807,143.593 C166.399,144.475 165.817,145.131 165.063,145.561 L165.079,145.57 L159.114,149.124 L156.595,147.805 L160.807,145.383 C159.653,144.765 158.881,143.894 158.49,142.77 C158.11,141.651 158.188,140.514 158.722,139.36 C159.267,138.184 160.08,137.426 161.162,137.086 C162.26,136.741 163.404,136.88 164.595,137.503 C165.785,138.126 166.587,139.006 166.999,140.142 C167.41,141.277 167.347,142.428 166.807,143.593 Z M160.907,140.504 C160.65,141.059 160.616,141.603 160.805,142.135 C161,142.656 161.363,143.056 161.894,143.334 C162.447,143.624 162.972,143.689 163.468,143.529 C163.981,143.364 164.365,143.004 164.622,142.449 C164.88,141.894 164.911,141.355 164.716,140.834 C164.532,140.318 164.164,139.916 163.611,139.626 C163.08,139.348 162.558,139.291 162.046,139.456 C161.539,139.61 161.159,139.959 160.907,140.504 Z M171.252,155.478 L163.789,151.571 L164.568,149.888 L170.24,147.865 C171.519,147.385 172.297,146.845 172.574,146.247 C172.781,145.8 172.809,145.368 172.659,144.951 C172.519,144.54 172.237,144.223 171.811,144 C170.961,143.555 170.132,143.676 169.325,144.363 L167.99,142.284 C168.688,141.689 169.457,141.354 170.297,141.28 C171.153,141.2 171.985,141.372 172.793,141.795 C173.803,142.324 174.518,143.104 174.939,144.136 C175.364,145.157 175.322,146.217 174.813,147.317 C174.263,148.504 173.087,149.403 171.285,150.016 L168.064,151.11 L172.258,153.305 L171.252,155.478 Z M183.22,156.812 L181.243,155.777 L180.827,156.675 L184.383,158.537 L183.717,159.974 L180.161,158.112 L179.405,159.746 L177.22,158.602 L177.976,156.969 L176.78,156.343 L177.446,154.905 L178.642,155.531 L179.058,154.633 L177.862,154.007 L178.777,152.03 L179.973,152.657 L182.514,147.168 L186.677,149.347 C187.729,149.898 188.445,150.733 188.825,151.852 C189.216,152.977 189.169,154.062 188.685,155.107 C188.201,156.152 187.434,156.84 186.383,157.169 C185.348,157.493 184.294,157.374 183.22,156.812 Z M185.701,151.454 L183.723,150.419 L182.158,153.8 L184.135,154.836 C184.582,155.069 185.029,155.101 185.478,154.93 C185.938,154.765 186.279,154.442 186.501,153.963 C186.722,153.484 186.752,153.006 186.59,152.529 C186.444,152.046 186.147,151.688 185.701,151.454 Z M199.259,153.905 L186.073,165.266 L185.164,164.79 L198.35,153.429 L199.259,153.905 Z M204.731,162.858 L206.756,163.918 L202.974,172.085 L200.981,171.041 L203.19,166.272 L199.652,168.478 L199.397,168.345 L198.883,163.977 L196.659,168.779 L194.682,167.744 L198.464,159.577 L200.489,160.637 L201.022,165.178 L204.731,162.858 Z M214.092,173.907 L208.08,170.76 C207.871,171.922 208.384,172.827 209.617,173.472 C210.404,173.884 211.125,173.924 211.781,173.591 L212.986,175.439 C211.66,176.192 210.231,176.168 208.7,175.367 C207.382,174.676 206.513,173.714 206.094,172.48 C205.675,171.246 205.753,170.008 206.328,168.767 C206.892,167.547 207.76,166.73 208.93,166.314 C210.089,165.893 211.291,166.008 212.534,166.659 C213.715,167.277 214.485,168.194 214.846,169.411 C215.228,170.64 215.137,171.864 214.572,173.083 C214.466,173.312 214.306,173.586 214.092,173.907 Z M208.804,169.11 L212.871,171.239 C213.001,170.644 212.951,170.11 212.72,169.638 C212.5,169.171 212.146,168.81 211.657,168.554 C211.104,168.264 210.579,168.172 210.081,168.277 C209.589,168.371 209.163,168.648 208.804,169.11 Z M217.744,180.101 C216.543,179.472 215.73,178.533 215.305,177.282 C214.891,176.037 214.967,174.805 215.531,173.585 C216.096,172.366 216.969,171.551 218.149,171.141 C219.341,170.736 220.537,170.848 221.738,171.477 C222.514,171.883 223.133,172.444 223.594,173.159 C224.056,173.874 224.302,174.639 224.335,175.454 L222.073,175.589 C222.07,175.168 221.949,174.773 221.71,174.405 C221.482,174.042 221.166,173.755 220.762,173.543 C220.145,173.22 219.536,173.166 218.936,173.379 C218.34,173.581 217.891,174.009 217.589,174.662 C217.296,175.294 217.251,175.933 217.453,176.58 C217.666,177.205 218.08,177.68 218.697,178.002 C219.111,178.219 219.521,178.319 219.926,178.301 C220.346,178.277 220.714,178.138 221.03,177.884 L222.332,179.865 C221.678,180.334 220.939,180.59 220.114,180.632 C219.3,180.679 218.51,180.502 217.744,180.101 Z" id="Shape" fill="#000000"></path>
                    <path d="M138.782,161.587 L139.004,161.108 L142.728,159.784 C143.823,159.39 144.495,158.923 144.745,158.384 C144.961,157.919 144.987,157.478 144.825,157.062 C144.662,156.646 144.366,156.326 143.937,156.101 C143.177,155.704 142.471,155.772 141.82,156.308 L141.506,155.808 C141.902,155.495 142.329,155.321 142.788,155.289 C143.257,155.253 143.718,155.354 144.173,155.592 C144.725,155.882 145.116,156.309 145.346,156.876 C145.583,157.446 145.558,158.041 145.271,158.66 C145.086,159.059 144.792,159.389 144.389,159.649 C143.996,159.906 143.501,160.139 142.904,160.347 L139.758,161.466 L143.305,163.323 L143.07,163.832 L138.782,161.587 Z M153.868,163.285 L151.557,168.276 L151.06,168.015 L153.02,163.783 L149.834,165.774 L149.766,165.738 L149.307,161.814 L147.338,166.067 L146.85,165.811 L149.161,160.821 L149.736,161.122 L150.183,164.915 L153.284,162.979 L153.868,163.285 Z M157.61,165.107 C158.325,165.481 158.783,166.043 158.984,166.794 C159.192,167.548 159.131,168.28 158.801,168.992 C158.789,169.019 158.767,169.057 158.736,169.107 C158.712,169.16 158.693,169.2 158.681,169.227 L154.266,166.916 C154.066,167.505 154.074,168.072 154.29,168.615 C154.517,169.155 154.909,169.571 155.468,169.864 C155.858,170.068 156.237,170.163 156.607,170.15 C156.976,170.137 157.299,170.033 157.574,169.838 L157.883,170.322 C157.521,170.563 157.108,170.689 156.642,170.702 C156.179,170.708 155.71,170.586 155.236,170.338 C154.489,169.947 153.988,169.383 153.732,168.645 C153.479,167.901 153.528,167.15 153.88,166.391 C154.225,165.646 154.745,165.149 155.441,164.902 C156.146,164.651 156.869,164.719 157.61,165.107 Z M157.388,165.586 C156.836,165.297 156.293,165.232 155.759,165.391 C155.226,165.55 154.803,165.895 154.493,166.427 L158.41,168.478 C158.633,167.858 158.639,167.287 158.429,166.764 C158.229,166.237 157.882,165.845 157.388,165.586 Z M160.975,173.342 C160.241,172.958 159.746,172.389 159.489,171.634 C159.233,170.88 159.276,170.134 159.618,169.395 C159.96,168.657 160.491,168.165 161.209,167.921 C161.927,167.677 162.654,167.747 163.388,168.132 C163.862,168.38 164.237,168.721 164.512,169.155 C164.791,169.582 164.927,170.037 164.921,170.522 L164.41,170.552 C164.415,170.158 164.305,169.786 164.079,169.436 C163.86,169.09 163.556,168.815 163.166,168.611 C162.581,168.305 161.995,168.254 161.408,168.459 C160.823,168.658 160.393,169.057 160.115,169.655 C159.838,170.254 159.802,170.864 160.007,171.484 C160.215,172.097 160.612,172.557 161.197,172.863 C161.587,173.067 161.977,173.156 162.369,173.13 C162.767,173.106 163.121,172.978 163.432,172.743 L163.725,173.207 C163.352,173.491 162.916,173.647 162.418,173.676 C161.93,173.702 161.449,173.591 160.975,173.342 Z M164.58,175.056 C164.455,175.098 164.331,175.087 164.208,175.022 C164.084,174.958 164,174.86 163.956,174.729 C163.912,174.599 163.919,174.47 163.977,174.344 C164.036,174.217 164.127,174.133 164.252,174.091 C164.376,174.048 164.5,174.059 164.624,174.124 C164.747,174.189 164.831,174.286 164.876,174.417 C164.92,174.548 164.913,174.676 164.854,174.803 C164.796,174.929 164.704,175.014 164.58,175.056 Z M170.704,178.448 C170.002,178.08 169.527,177.538 169.278,176.821 C169.032,176.097 169.084,175.355 169.436,174.597 C169.821,173.765 170.235,173.184 170.679,172.854 C171.132,172.521 171.815,172.362 172.728,172.377 C172.902,172.385 173.106,172.397 173.341,172.412 C173.576,172.428 173.763,172.443 173.901,172.458 C174.049,172.469 174.209,172.474 174.379,172.472 C174.559,172.467 174.708,172.45 174.826,172.421 C174.945,172.392 175.061,172.341 175.175,172.269 C175.293,172.19 175.393,172.085 175.478,171.956 L175.761,172.39 C175.642,172.559 175.505,172.69 175.349,172.782 C175.2,172.877 175.01,172.939 174.779,172.967 C174.558,172.992 174.367,173.003 174.206,173.002 C174.052,173.004 173.815,172.991 173.497,172.965 C173.178,172.939 172.948,172.922 172.806,172.914 C172.224,172.882 171.759,172.936 171.411,173.076 C171.07,173.22 170.759,173.491 170.477,173.89 C170.874,173.643 171.296,173.525 171.743,173.535 C172.19,173.546 172.599,173.649 172.969,173.842 C173.619,174.183 174.057,174.684 174.282,175.348 C174.507,176.012 174.463,176.683 174.149,177.362 C173.837,178.034 173.356,178.472 172.704,178.677 C172.059,178.885 171.392,178.808 170.704,178.448 Z M170.935,177.949 C171.48,178.234 172.007,178.299 172.515,178.144 C173.026,177.981 173.405,177.634 173.652,177.102 C173.901,176.563 173.937,176.032 173.76,175.509 C173.582,174.986 173.224,174.583 172.684,174.301 C172.191,174.042 171.672,173.969 171.127,174.081 C170.59,174.196 170.184,174.497 169.911,174.982 C169.646,175.554 169.611,176.119 169.805,176.675 C169.999,177.232 170.376,177.656 170.935,177.949 Z M178.757,176.178 C179.471,176.552 179.929,177.114 180.131,177.864 C180.339,178.618 180.278,179.351 179.948,180.063 C179.936,180.09 179.914,180.128 179.883,180.178 C179.858,180.231 179.84,180.271 179.827,180.297 L175.413,177.986 C175.212,178.576 175.22,179.142 175.437,179.686 C175.663,180.226 176.056,180.642 176.614,180.935 C177.004,181.139 177.384,181.234 177.753,181.221 C178.123,181.207 178.445,181.103 178.721,180.909 L179.03,181.393 C178.668,181.633 178.254,181.76 177.788,181.772 C177.326,181.778 176.857,181.657 176.383,181.409 C175.636,181.017 175.134,180.453 174.878,179.716 C174.626,178.971 174.675,178.22 175.026,177.462 C175.371,176.716 175.892,176.22 176.588,175.972 C177.293,175.721 178.016,175.79 178.757,176.178 Z M178.535,176.657 C177.983,176.368 177.44,176.303 176.906,176.461 C176.372,176.62 175.95,176.965 175.639,177.497 L179.557,179.548 C179.779,178.929 179.785,178.357 179.576,177.834 C179.375,177.308 179.029,176.915 178.535,176.657 Z M182.121,184.413 C181.387,184.028 180.892,183.459 180.636,182.705 C180.38,181.951 180.423,181.204 180.765,180.466 C181.107,179.727 181.637,179.236 182.356,178.992 C183.074,178.748 183.8,178.818 184.534,179.202 C185.009,179.451 185.383,179.792 185.659,180.225 C185.937,180.652 186.074,181.108 186.067,181.592 L185.557,181.623 C185.562,181.228 185.451,180.856 185.226,180.507 C185.007,180.161 184.702,179.886 184.312,179.681 C183.728,179.375 183.142,179.325 182.554,179.53 C181.97,179.728 181.539,180.127 181.262,180.726 C180.985,181.325 180.948,181.934 181.154,182.554 C181.362,183.168 181.759,183.628 182.343,183.934 C182.733,184.138 183.124,184.227 183.516,184.2 C183.914,184.177 184.268,184.048 184.578,183.814 L184.872,184.278 C184.498,184.562 184.063,184.718 183.565,184.747 C183.077,184.772 182.596,184.661 182.121,184.413 Z M191.739,183.111 L189.428,188.102 L188.931,187.841 L191.016,183.34 L187.975,181.748 L185.891,186.25 L185.403,185.995 L187.714,181.004 L191.739,183.111 Z M197.2,185.97 L194.889,190.961 L194.402,190.705 L196.487,186.204 L194.031,184.918 L192.917,187.324 C192.541,188.135 192.134,188.621 191.697,188.781 C191.26,188.941 190.797,188.868 190.309,188.563 L190.526,188.094 C190.901,188.331 191.239,188.376 191.541,188.228 C191.844,188.081 192.14,187.694 192.43,187.069 L193.77,184.174 L197.2,185.97 Z M202.985,188.998 L203.482,189.258 L201.171,194.249 L200.674,193.989 L201.196,192.861 C200.81,193.138 200.383,193.291 199.918,193.32 C199.452,193.349 198.989,193.243 198.528,193.002 C197.833,192.638 197.354,192.077 197.091,191.319 C196.831,190.555 196.871,189.807 197.21,189.075 C197.549,188.343 198.081,187.857 198.806,187.616 C199.534,187.369 200.245,187.427 200.941,187.791 C201.402,188.033 201.764,188.359 202.026,188.769 C202.288,189.179 202.433,189.631 202.463,190.126 L202.985,188.998 Z M197.604,191.154 C197.815,191.777 198.21,192.24 198.789,192.543 C199.367,192.846 199.95,192.895 200.537,192.689 C201.124,192.484 201.555,192.086 201.829,191.493 C202.104,190.901 202.138,190.295 201.933,189.675 C201.728,189.055 201.336,188.594 200.758,188.291 C200.179,187.988 199.593,187.938 199,188.139 C198.412,188.344 197.981,188.743 197.707,189.335 C197.433,189.928 197.398,190.534 197.604,191.154 Z M208.389,191.827 L208.163,192.316 L206.389,191.388 L204.304,195.889 L203.817,195.634 L205.902,191.133 L204.128,190.204 L204.354,189.715 L208.389,191.827 Z M212.798,194.135 L213.295,194.396 L210.984,199.386 L210.487,199.126 L211.532,196.87 L208.491,195.279 L207.446,197.534 L206.959,197.279 L209.27,192.288 L209.758,192.544 L208.713,194.799 L211.753,196.391 L212.798,194.135 Z M214.669,201.452 C213.955,201.078 213.463,200.51 213.194,199.749 C212.934,198.985 212.974,198.237 213.313,197.505 C213.652,196.773 214.184,196.287 214.909,196.046 C215.643,195.802 216.368,195.868 217.082,196.242 C217.79,196.612 218.274,197.18 218.534,197.944 C218.803,198.705 218.768,199.452 218.429,200.184 C218.09,200.916 217.553,201.403 216.819,201.647 C216.094,201.888 215.377,201.823 214.669,201.452 Z M213.706,199.584 C213.918,200.207 214.313,200.67 214.891,200.973 C215.469,201.276 216.052,201.325 216.64,201.119 C217.227,200.914 217.658,200.516 217.932,199.923 C218.206,199.331 218.241,198.725 218.036,198.105 C217.83,197.485 217.439,197.024 216.86,196.721 C216.282,196.418 215.696,196.368 215.102,196.569 C214.515,196.774 214.084,197.173 213.81,197.765 C213.535,198.358 213.501,198.964 213.706,199.584 Z" id="Shape" fill="#F65E64"></path>
                </g>
            </g>
        </g>
    </g>
</svg>