<svg width="141" height="39" viewBox="0 0 141 39" fill="none" xmlns="http://www.w3.org/2000/svg">
<circle cx="19.6796" cy="19.6798" r="19.3202" fill="url(#paint0_linear)"/>
<circle opacity="0.1" cx="23.364" cy="14.425" r="8.57101" fill="white"/>
<path d="M124.953 26.1531C120.72 26.1531 118.603 23.2453 116.736 20.8222C114.993 18.4959 113.498 16.4605 110.635 16.4605C107.771 16.4605 106.277 18.4959 104.534 20.8222C102.667 23.2453 100.55 26.1531 96.3173 26.1531C91.9597 26.1531 89.9677 23.2453 88.1002 20.8222C86.3572 18.4959 84.8631 16.4605 81.9996 16.4605C79.1361 16.4605 77.642 18.4959 75.899 20.8222C74.0315 23.2453 71.915 26.1531 67.5574 26.1531C63.3244 26.1531 61.2078 23.3422 59.3403 20.8222C57.5973 18.399 56.1033 16.3636 53.2397 16.3636C50.3762 16.3636 48.8822 18.399 47.1392 20.7252C45.2716 23.2453 43.1551 26.1531 38.9221 26.1531C34.689 26.1531 32.5725 23.2453 30.705 20.8222C28.9619 18.399 27.4679 16.3636 24.6044 16.3636C23.9819 16.3636 23.3594 15.9759 23.3594 15.3943C23.3594 14.8128 23.8574 14.425 24.6044 14.425C28.8374 14.425 30.954 17.2359 32.8215 19.756C34.5645 22.1791 36.0585 24.2146 38.9221 24.2146C41.7856 24.2146 43.2796 22.1791 45.0226 19.8529C46.8902 17.3328 49.0067 14.522 53.2397 14.522C57.4728 14.522 59.5893 17.3328 61.4568 19.8529C63.1999 22.1791 64.6939 24.2146 67.5574 24.2146C70.421 24.2146 71.915 22.1791 73.658 19.8529C75.5255 17.3328 77.642 14.522 81.9996 14.522C86.2327 14.522 88.3492 17.3328 90.2167 19.8529C91.9597 22.1791 93.4537 24.2146 96.3173 24.2146C99.1808 24.2146 100.675 22.1791 102.418 19.8529C104.285 17.3328 106.402 14.522 110.635 14.522C114.868 14.522 116.985 17.3328 118.852 19.8529C120.595 22.1791 122.089 24.2146 124.953 24.2146C127.816 24.2146 129.31 22.1791 131.053 19.8529C132.921 17.3328 135.037 14.522 139.395 14.522C140.017 14.522 140.64 14.9097 140.64 15.4912C140.64 16.0728 140.142 16.4605 139.395 16.4605C136.531 16.4605 135.037 18.4959 133.294 20.8222C131.302 23.2453 129.31 26.1531 124.953 26.1531Z" fill="#ACCE23"/>
<defs>
<linearGradient id="paint0_linear" x1="28.871" y1="64.726" x2="-0.0204164" y2="56.7938" gradientUnits="userSpaceOnUse">
<stop stop-color="#FD9B5C"/>
<stop offset="1" stop-color="#EB5760"/>
</linearGradient>
</defs>
</svg>
