<svg width="29" height="33" viewBox="0 0 29 33" fill="none" xmlns="http://www.w3.org/2000/svg">
<path d="M27.9109 26.2002C27.3579 26.2002 26.9109 25.7532 26.9109 25.2002V3.20024C26.9109 2.53824 26.3729 2.00024 25.7109 2.00024H8.1029C7.5509 2.00024 7.1029 1.55224 7.1029 1.00024C7.1029 0.448244 7.5509 0.000244141 8.1029 0.000244141H25.7109C27.4749 0.000244141 28.9109 1.43524 28.9109 3.20024V25.2002C28.9109 25.7532 28.4639 26.2002 27.9109 26.2002ZM19.108 32.7991H3.7C1.935 32.7991 0.5 31.3631 0.5 29.5991V9.79914C0.5 8.03514 1.935 6.59914 3.7 6.59914H19.108C20.872 6.59914 22.307 8.03514 22.307 9.79914V29.5991C22.307 31.3631 20.872 32.7991 19.108 32.7991ZM3.7 8.59914C3.038 8.59914 2.5 9.13714 2.5 9.79914V29.5991C2.5 30.2611 3.038 30.7991 3.7 30.7991H19.108C19.769 30.7991 20.307 30.2611 20.307 29.5991V9.79914C20.307 9.13714 19.769 8.59914 19.108 8.59914H3.7ZM14.7029 17.3974H8.1029C7.5509 17.3974 7.1029 16.9494 7.1029 16.3974C7.1029 15.8444 7.5509 15.3974 8.1029 15.3974H14.7029C15.2549 15.3974 15.7029 15.8444 15.7029 16.3974C15.7029 16.9494 15.2549 17.3974 14.7029 17.3974ZM14.7029 23.9961H8.1029C7.5509 23.9961 7.1029 23.5491 7.1029 22.9961C7.1029 22.4431 7.5509 21.9961 8.1029 21.9961H14.7029C15.2549 21.9961 15.7029 22.4431 15.7029 22.9961C15.7029 23.5491 15.2549 23.9961 14.7029 23.9961Z" fill="#F65E64"/>
</svg>
