<svg xmlns="http://www.w3.org/2000/svg" width="39" height="39" viewBox="0 0 39 39"><g><g><g/><g><path fill="#fff7f7" d="M38.88 19.52c0 10.493-8.507 19-19 19s-19-8.507-19-19 8.507-19 19-19 19 8.507 19 19z"/></g><g><g><g><path fill="#eb5760" d="M15.355 29.885A5.973 5.973 0 0 1 9.39 23.92v-9.035a5.973 5.973 0 0 1 5.965-5.965h9.035a5.973 5.973 0 0 1 5.965 5.965v9.035c0 3.281-2.684 5.965-5.965 5.965zm-4.171-15v9.035a4.179 4.179 0 0 0 4.171 4.172h9.035a4.179 4.179 0 0 0 4.172-4.172v-9.035a4.179 4.179 0 0 0-4.172-4.171h-9.035a4.179 4.179 0 0 0-4.171 4.171z"/></g></g><g><g><path fill="#eb5760" d="M19.878 24.765a5.37 5.37 0 0 1-5.368-5.367 5.37 5.37 0 0 1 5.368-5.368 5.37 5.37 0 0 1 5.367 5.368c0 2.949-2.418 5.367-5.367 5.367zm0-8.941a3.575 3.575 0 0 0 0 7.148 3.584 3.584 0 0 0 3.573-3.574 3.584 3.584 0 0 0-3.573-3.574z"/></g></g><g><g><path fill="#eb5760" d="M26.757 13.719c0 .717-.57 1.288-1.288 1.288a1.282 1.282 0 0 1-1.289-1.288 1.29 1.29 0 0 1 2.577 0z"/></g></g></g></g></g></svg>