<svg width="103" height="99" viewBox="0 0 103 99" fill="none" xmlns="http://www.w3.org/2000/svg">
<circle cx="53.0047" cy="49.0008" r="48.5008" fill="white" stroke="#E6E8E0"/>
<g clip-path="url(#clip0)">
<path d="M37.4795 66.8179V52.0927H39.7813V53.1744C40.0978 52.646 40.7171 52.2701 41.2022 52.1034C41.6908 51.9367 42.1931 51.8516 42.7092 51.8516C43.9823 51.8516 45.3413 52.2949 46.4458 53.4759C47.4642 54.5682 48.0044 55.8982 48.0044 57.4728C48.0044 58.1963 47.8702 58.9056 47.6018 59.5901C47.3438 60.2746 46.9722 60.8775 46.4974 61.3811C45.995 61.9237 45.4239 62.3316 44.7943 62.6082C44.1681 62.8813 43.5797 63.0231 42.8125 63.0231C42.2516 63.0231 41.7115 62.9345 41.2022 62.7501C40.6999 62.5834 39.998 62.1684 39.7434 61.7109V66.8144H37.4795V66.8179ZM42.6335 53.944C41.794 53.944 41.0612 54.2136 40.4625 54.8484C39.8501 55.508 39.6092 56.4514 39.6092 57.3912C39.6092 58.3914 39.8398 59.3667 40.4384 60.0263C41.0405 60.6895 41.7837 60.92 42.6507 60.92C43.5281 60.92 44.2403 60.5512 44.7805 59.9873C45.4032 59.3347 45.6957 58.4517 45.6957 57.4976C45.6957 56.455 45.3964 55.5293 44.7943 54.8732C44.2816 54.3058 43.5315 53.944 42.6335 53.944Z" fill="#164193"/>
<path d="M63.7831 66.818L65.7271 62.1756L61.2715 52.0928H63.6971L66.8625 59.6611L69.7836 52.0928H72.223L66.1675 66.818H63.7831Z" fill="#164193"/>
<path d="M57.6179 62.8324V61.7187C57.3633 62.1727 56.6614 62.5912 56.1591 62.7579C55.6464 62.9423 55.1028 63.031 54.5489 63.031C53.7782 63.031 53.1933 62.8926 52.5636 62.616C51.9374 62.3394 51.3663 61.928 50.8639 61.3854C50.3857 60.8853 50.0141 60.2788 49.7595 59.5979C49.4911 58.9099 49.3535 58.2041 49.3535 57.4806C49.3535 55.906 49.8937 54.576 50.9156 53.4837C52.0234 52.2991 53.3825 51.8594 54.6555 51.8594C55.1682 51.8594 55.6705 51.9445 56.1591 52.1112C56.6476 52.2779 57.2669 52.6538 57.5835 53.1822V52.1005H59.8818V62.8394H57.6179V62.8324ZM52.5636 54.8739C51.9615 55.5336 51.6656 56.4592 51.6656 57.4984C51.6656 58.4488 51.9615 59.3355 52.5808 59.988C53.121 60.5519 53.8332 60.9208 54.7106 60.9208C55.5776 60.9208 56.3173 60.6902 56.9194 60.027C57.5216 59.3674 57.7486 58.3921 57.7486 57.392C57.7486 56.4521 57.5112 55.5123 56.9022 54.8491C56.2967 54.2107 55.5673 53.9447 54.7312 53.9447C53.8263 53.9447 53.0832 54.3065 52.5636 54.8739Z" fill="#164193"/>
<path d="M74.635 45.2805L74.518 38.1094H76.7131V47.1566H73.5546L71.3698 39.7301H71.3148L71.4387 47.1566H69.2607V38.1094H72.5465L74.5868 45.2805H74.635Z" fill="#164193"/>
<path d="M34.7615 38.9534L33.5504 47.2382H31.1592L32.7969 38.1094H36.7433L38.381 47.2382H35.9967L34.8131 38.9534H34.7615Z" fill="#164193"/>
<path d="M45.0936 45.096L46.1912 38.1094H49.8004L50 47.2382H47.7808L47.7188 39.0315H47.6741L46.1946 47.2382H43.9513L42.465 39.0315H42.4134L42.3583 47.2382H40.1426L40.3456 38.1094H43.9582L45.0489 45.096H45.0936Z" fill="#164193"/>
<path d="M63.6729 45.8692C64.2957 45.8692 64.4815 45.433 64.5262 45.2131C64.5434 45.1138 64.5434 44.9826 64.5434 44.862V38.1094H66.7936V44.6563C66.7936 44.8265 66.7764 45.167 66.7695 45.2592C66.6181 46.9651 65.3038 47.5112 63.6729 47.5112C62.0455 47.5112 60.7381 46.9651 60.5867 45.2592C60.5764 45.167 60.5592 44.8265 60.566 44.6563V38.1094H62.8093V44.8655C62.8024 44.9826 62.8128 45.1173 62.8265 45.2166C62.8678 45.4365 63.0605 45.8692 63.6729 45.8692Z" fill="#164193"/>
<path d="M27.426 44.6632C27.5086 44.8831 27.4845 45.1703 27.4432 45.3406C27.3709 45.6456 27.1714 45.9577 26.5762 45.9577C26.0257 45.9577 25.6919 45.6278 25.6919 45.1278L25.685 44.2411H23.3145V44.9469C23.3145 46.9861 24.8662 47.5997 26.528 47.5997C28.1382 47.5997 29.456 47.0393 29.6624 45.5179C29.7725 44.727 29.6934 44.2092 29.6555 44.0177C29.2839 42.099 25.9156 41.5387 25.6644 40.4676C25.6231 40.2797 25.63 40.0917 25.6541 39.9888C25.7229 39.6838 25.9156 39.3682 26.4661 39.3682C26.989 39.3682 27.2953 39.7051 27.2953 40.191V40.762H29.5076V40.1201C29.5076 38.1269 27.7701 37.8184 26.5142 37.8184C24.9419 37.8184 23.6516 38.3574 23.4177 39.8505C23.3557 40.2548 23.3489 40.6166 23.4349 41.0776C23.8202 42.9466 26.9684 43.4822 27.426 44.6632Z" fill="#164193"/>
<path d="M56.2378 44.6517C56.3272 44.868 56.2894 45.1482 56.255 45.3185C56.1862 45.6164 55.9832 45.9214 55.4017 45.9214C54.8512 45.9214 54.5209 45.5951 54.5209 45.1021V44.2226H52.1641V44.9248C52.1641 46.9463 53.7055 47.5457 55.357 47.5457C56.9362 47.5457 58.2436 46.9924 58.4535 45.4816C58.5602 44.7014 58.481 44.1907 58.4432 43.9921C58.0751 42.1017 54.7445 41.5414 54.5002 40.4774C54.4555 40.3001 54.4693 40.1086 54.4865 40.0093C54.545 39.7185 54.7376 39.4028 55.2881 39.4028C55.8077 39.4028 56.107 39.7291 56.107 40.2114V40.7753H58.2918V40.1441C58.2918 38.1757 56.5749 37.8672 55.3398 37.8672C53.7777 37.8672 52.4978 38.3921 52.2742 39.8745C52.2019 40.2717 52.195 40.6299 52.2914 41.091C52.6698 42.9458 55.787 43.4778 56.2378 44.6517Z" fill="#164193"/>
<path d="M82.1593 45.7772C82.7958 45.7772 83.0229 45.3658 83.0642 45.1175C83.0779 45.0147 83.0848 44.8835 83.0848 44.77V43.4471H82.1799V42.1101H85.3178V44.5643C85.3178 44.7345 85.3109 44.8622 85.2868 45.1672C85.1389 46.8199 83.7385 47.4228 82.1662 47.4228C80.6007 47.4228 79.2038 46.8199 79.0627 45.1672C79.0283 44.8622 79.0283 44.7345 79.0283 44.5643V40.7198C79.0283 40.5567 79.0455 40.2659 79.0696 40.1205C79.2623 38.4039 80.6007 37.8613 82.1696 37.8613C83.742 37.8613 85.1251 38.3969 85.2834 40.1205C85.3178 40.4006 85.3006 40.7198 85.3006 40.7198L85.304 41.0177H83.071V40.507C83.071 40.507 83.071 40.2872 83.0401 40.1559C83.0022 39.9609 82.8302 39.4963 82.1524 39.4963C81.5159 39.4963 81.3232 39.9361 81.275 40.1559C81.2475 40.2765 81.2406 40.4432 81.2406 40.5922V44.77C81.2406 44.887 81.2475 45.0147 81.2578 45.1175C81.2922 45.3658 81.5124 45.7772 82.1593 45.7772Z" fill="#164193"/>
</g>
<defs>
<clipPath id="clip0">
<rect x="23.3145" y="37.8184" width="62" height="29" fill="white"/>
</clipPath>
</defs>
</svg>
