<svg width="20" height="21" viewBox="0 0 20 21" fill="none" xmlns="http://www.w3.org/2000/svg">
<path d="M15 8V6C15 4.67392 14.4732 3.40215 13.5355 2.46447C12.5979 1.52678 11.3261 1 10 1C8.67392 1 7.40215 1.52678 6.46447 2.46447C5.52678 3.40215 5 4.67392 5 6V8M10 12C9.69555 11.9964 9.39732 12.0862 9.14544 12.2573C8.89357 12.4284 8.70015 12.6725 8.59121 12.9568C8.48228 13.2411 8.46306 13.552 8.53615 13.8476C8.60923 14.1431 8.77111 14.4092 9 14.61V16C9 16.2652 9.10536 16.5196 9.29289 16.7071C9.48043 16.8946 9.73478 17 10 17C10.2652 17 10.5196 16.8946 10.7071 16.7071C10.8946 16.5196 11 16.2652 11 16V14.61C11.2289 14.4092 11.3908 14.1431 11.4639 13.8476C11.5369 13.552 11.5177 13.2411 11.4088 12.9568C11.2999 12.6725 11.1064 12.4284 10.8546 12.2573C10.6027 12.0862 10.3045 11.9964 10 12Z" stroke="#F65E64" stroke-width="1.3"/>
<rect x="1" y="8" width="18" height="12" rx="2" stroke="#F65E64" stroke-width="1.3"/>
</svg>
