<svg width="99" height="99" viewBox="0 0 99 99" fill="none" xmlns="http://www.w3.org/2000/svg">
<circle cx="49.0008" cy="49.0008" r="48.5008" fill="white" stroke="#E6E8E0"/>
<path d="M29.5714 71.765V68.6755C29.5893 68.4157 29.552 68.155 29.4621 67.9109C29.3721 67.6667 29.2316 67.4447 29.0498 67.2595C28.8681 67.0744 28.6492 66.9304 28.4079 66.8372C28.1666 66.744 27.9084 66.7036 27.6504 66.7189C27.3127 66.6966 26.9753 66.766 26.6734 66.92C26.3714 67.074 26.116 67.3068 25.9338 67.5942C25.7677 67.3155 25.5301 67.087 25.246 66.9329C24.9618 66.7789 24.6417 66.7049 24.3194 66.7189C24.0384 66.7046 23.7586 66.7645 23.5076 66.8928C23.2567 67.021 23.0434 67.2131 22.8888 67.4501V66.8425H21.8262V71.765H22.8991V69.0566C22.8762 68.8882 22.8906 68.7169 22.9411 68.5548C22.9916 68.3927 23.077 68.2439 23.1913 68.1189C23.3055 67.994 23.4457 67.896 23.6018 67.832C23.758 67.768 23.9262 67.7396 24.0946 67.7487C24.7996 67.7487 25.1572 68.2121 25.1572 69.0463V71.7856H26.2301V69.0566C26.2082 68.8884 26.2232 68.7175 26.2741 68.5558C26.325 68.3941 26.4104 68.2457 26.5244 68.1209C26.6385 67.9962 26.7783 67.8982 26.934 67.8339C27.0897 67.7696 27.2575 67.7405 27.4256 67.7487C28.1511 67.7487 28.4985 68.2121 28.4985 69.0463V71.7856L29.5714 71.765ZM45.445 66.8425H43.6978V65.3492H42.6249V66.8425H41.6542V67.8208H42.6453V70.0864C42.6453 71.2295 43.0847 71.9092 44.3415 71.9092C44.811 71.9108 45.2715 71.7787 45.6698 71.5281L45.3633 70.6116C45.0783 70.7829 44.7549 70.8786 44.4232 70.8896C43.9123 70.8896 43.7182 70.5601 43.7182 70.0658V67.8208H45.4553L45.445 66.8425ZM54.5084 66.7189C54.2493 66.7112 53.9929 66.7741 53.7664 66.901C53.5398 67.0279 53.3513 67.214 53.2209 67.4398V66.8425H52.1685V71.765H53.2311V69.0051C53.2311 68.1915 53.5786 67.7384 54.2529 67.7384C54.4802 67.7353 54.7059 67.7773 54.9171 67.862L55.2441 66.8322C55.0014 66.7447 54.7457 66.6994 54.488 66.6983L54.5084 66.7189ZM40.8061 67.2338C40.2046 66.8734 39.513 66.6946 38.8136 66.7189C37.5772 66.7189 36.77 67.3162 36.77 68.2945C36.77 69.0978 37.3626 69.5921 38.4559 69.7466L38.9668 69.8186C39.5493 69.901 39.8251 70.0555 39.8251 70.3335C39.8251 70.7146 39.4369 70.9308 38.7114 70.9308C38.1278 70.9479 37.5556 70.7665 37.0867 70.4159L36.5758 71.2501C37.1948 71.6857 37.9363 71.9095 38.691 71.8886C40.101 71.8886 40.9185 71.2192 40.9185 70.2821C40.9185 69.3449 40.2747 68.9639 39.2121 68.8094L38.7012 68.7373C38.2414 68.6755 37.8735 68.5829 37.8735 68.2533C37.8735 67.9238 38.2209 67.6766 38.8034 67.6766C39.3417 67.6829 39.8694 67.8283 40.336 68.0988L40.8061 67.2338ZM69.2683 66.7189C69.0092 66.7112 68.7528 66.7741 68.5262 66.901C68.2996 67.0279 68.1112 67.214 67.9808 67.4398V66.8425H66.9284V71.765H67.991V69.0051C67.991 68.1915 68.3384 67.7384 69.0128 67.7384C69.2401 67.7353 69.4658 67.7773 69.677 67.862L70.004 66.8322C69.7613 66.7447 69.5056 66.6994 69.2478 66.6983L69.2683 66.7189ZM55.5762 69.2934C55.5635 69.6394 55.6227 69.9841 55.7498 70.3057C55.877 70.6273 56.0694 70.9185 56.3146 71.1609C56.5599 71.4032 56.8526 71.5913 57.1741 71.713C57.4957 71.8348 57.8388 71.8876 58.1818 71.868C58.8198 71.9007 59.4469 71.6913 59.9393 71.281L59.4284 70.4159C59.061 70.6983 58.613 70.8536 58.1511 70.8588C57.7583 70.8267 57.3919 70.6468 57.1247 70.3549C56.8575 70.0629 56.7091 69.6803 56.7091 69.2831C56.7091 68.886 56.8575 68.5033 57.1247 68.2114C57.3919 67.9194 57.7583 67.7396 58.1511 67.7075C58.613 67.7127 59.061 67.868 59.4284 68.1503L59.9393 67.2853C59.4469 66.875 58.8198 66.6656 58.1818 66.6983C57.8388 66.6787 57.4957 66.7315 57.1741 66.8533C56.8526 66.975 56.5599 67.1631 56.3146 67.4054C56.0694 67.6478 55.877 67.939 55.7498 68.2606C55.6227 68.5821 55.5635 68.9269 55.5762 69.2728V69.2934ZM65.5285 69.2934V66.8425H64.4658V67.4398C64.2854 67.2057 64.0523 67.0183 63.7858 66.893C63.5193 66.7676 63.227 66.708 62.9331 66.7189C62.2556 66.7189 61.6059 66.9901 61.1268 67.473C60.6478 67.9558 60.3786 68.6106 60.3786 69.2934C60.3786 69.9762 60.6478 70.6311 61.1268 71.1139C61.6059 71.5967 62.2556 71.868 62.9331 71.868C63.227 71.8789 63.5193 71.8192 63.7858 71.6939C64.0523 71.5685 64.2854 71.3811 64.4658 71.1471V71.7444H65.5285V69.2934ZM61.5741 69.2934C61.5911 69.0037 61.6917 68.7252 61.8637 68.4924C62.0357 68.2596 62.2714 68.0825 62.542 67.983C62.8125 67.8836 63.1061 67.866 63.3864 67.9325C63.6667 67.999 63.9216 68.1467 64.1198 68.3574C64.3179 68.568 64.4505 68.8325 64.5014 69.1182C64.5522 69.4039 64.5191 69.6984 64.406 69.9653C64.2929 70.2322 64.1048 70.46 63.8649 70.6206C63.625 70.7812 63.3437 70.8675 63.0557 70.869C62.8534 70.8716 62.6528 70.832 62.4665 70.7526C62.2801 70.6733 62.1121 70.5559 61.9729 70.4079C61.8338 70.2599 61.7265 70.0845 61.6579 69.8927C61.5892 69.7009 61.5607 69.4969 61.5741 69.2934ZM48.7506 66.7189C48.0731 66.7285 47.4271 67.0089 46.9547 67.4984C46.4824 67.988 46.2223 68.6467 46.2318 69.3295C46.2413 70.0123 46.5195 70.6633 47.0053 71.1394C47.4911 71.6154 48.1446 71.8775 48.8221 71.868C49.5571 71.906 50.28 71.6674 50.8504 71.1986L50.3395 70.4056C49.936 70.7317 49.4362 70.9129 48.9192 70.9205C48.5679 70.951 48.2187 70.8421 47.9458 70.6171C47.6729 70.3921 47.4979 70.0687 47.458 69.7157H51.0854C51.0854 69.5818 51.0854 69.4479 51.0854 69.3037C51.0854 67.759 50.1351 66.7292 48.7659 66.7292L48.7506 66.7189ZM48.7506 67.6766C48.9096 67.6732 49.0677 67.7014 49.2159 67.7596C49.3641 67.8178 49.4995 67.9048 49.6143 68.0158C49.7291 68.1267 49.8211 68.2593 49.8851 68.4061C49.949 68.5529 49.9836 68.7109 49.9869 68.8712H47.4324C47.4509 68.5407 47.5971 68.2306 47.8397 68.0073C48.0822 67.784 48.4018 67.6653 48.7301 67.6766H48.7506ZM75.3735 69.3037V64.8652H74.3517V67.4398C74.1712 67.2057 73.9382 67.0183 73.6717 66.893C73.4052 66.7676 73.1129 66.708 72.819 66.7189C72.1415 66.7189 71.4918 66.9901 71.0127 67.473C70.5337 67.9558 70.2645 68.6106 70.2645 69.2934C70.2645 69.9762 70.5337 70.6311 71.0127 71.1139C71.4918 71.5967 72.1415 71.868 72.819 71.868C73.1129 71.8789 73.4052 71.8192 73.6717 71.6939C73.9382 71.5685 74.1712 71.3811 74.3517 71.1471V71.7444H75.3735V69.3037ZM77.1463 71.0493C77.2128 71.0484 77.2787 71.0607 77.3405 71.0853C77.3992 71.1094 77.4529 71.1444 77.4989 71.1883C77.5438 71.2327 77.5801 71.2851 77.6061 71.3428C77.632 71.4029 77.6454 71.4677 77.6454 71.5333C77.6454 71.5988 77.632 71.6637 77.6061 71.7238C77.5801 71.7815 77.5438 71.8339 77.4989 71.8783C77.4529 71.9222 77.3992 71.9571 77.3405 71.9812C77.2793 72.0084 77.2132 72.0225 77.1463 72.0224C77.0495 72.0217 76.9548 71.9932 76.8734 71.9404C76.792 71.8875 76.7272 71.8124 76.6865 71.7238C76.6609 71.6636 76.6478 71.5988 76.6478 71.5333C76.6478 71.4678 76.6609 71.403 76.6865 71.3428C76.7126 71.2851 76.7489 71.2327 76.7938 71.1883C76.8398 71.1444 76.8935 71.1094 76.9522 71.0853C77.0187 71.0586 77.0901 71.0464 77.1617 71.0493H77.1463ZM77.1463 71.9195C77.1973 71.9198 77.2478 71.9092 77.2945 71.8886C77.3384 71.8688 77.3783 71.8408 77.412 71.8062C77.4759 71.7359 77.5114 71.644 77.5114 71.5487C77.5114 71.4534 77.4759 71.3615 77.412 71.2913C77.3784 71.2565 77.3385 71.2286 77.2945 71.2089C77.2478 71.1884 77.1973 71.1778 77.1463 71.178C77.0954 71.1783 77.045 71.1888 76.9982 71.2089C76.9523 71.2279 76.9106 71.2559 76.8756 71.2913C76.8117 71.3615 76.7762 71.4534 76.7762 71.5487C76.7762 71.644 76.8117 71.7359 76.8756 71.8062C76.9107 71.8415 76.9523 71.8695 76.9982 71.8886C77.0497 71.911 77.1056 71.9215 77.1617 71.9195H77.1463ZM77.177 71.3067C77.2247 71.3044 77.2717 71.319 77.3098 71.3479C77.3255 71.361 77.3378 71.3776 77.3458 71.3964C77.3538 71.4152 77.3572 71.4356 77.3558 71.456C77.3565 71.4731 77.3537 71.4902 77.3476 71.5062C77.3414 71.5221 77.332 71.5366 77.32 71.5487C77.2904 71.5758 77.2527 71.5922 77.2128 71.5951L77.3609 71.765H77.2434L77.1055 71.5951H77.0595V71.765H76.9624V71.3119L77.177 71.3067ZM77.0646 71.3943V71.5178H77.177C77.197 71.5238 77.2183 71.5238 77.2383 71.5178C77.2419 71.5106 77.2438 71.5027 77.2438 71.4947C77.2438 71.4866 77.2419 71.4787 77.2383 71.4715C77.2419 71.4643 77.2438 71.4564 77.2438 71.4483C77.2438 71.4403 77.2419 71.4323 77.2383 71.4251C77.2183 71.4191 77.197 71.4191 77.177 71.4251L77.0646 71.3943ZM71.4447 69.3037C71.4616 69.014 71.5623 68.7355 71.7343 68.5027C71.9062 68.2699 72.142 68.0928 72.4126 67.9933C72.6831 67.8939 72.9766 67.8763 73.257 67.9428C73.5373 68.0093 73.7922 68.157 73.9903 68.3677C74.1884 68.5783 74.3211 68.8428 74.3719 69.1285C74.4228 69.4142 74.3896 69.7087 74.2766 69.9756C74.1635 70.2425 73.9754 70.4703 73.7355 70.6309C73.4956 70.7915 73.2143 70.8778 72.9263 70.8793C72.724 70.8819 72.5234 70.8423 72.337 70.7629C72.1507 70.6836 71.9826 70.5662 71.8435 70.4182C71.7043 70.2702 71.5971 70.0948 71.5284 69.903C71.4598 69.7112 71.4313 69.5072 71.4447 69.3037ZM35.5643 69.3037V66.8425H34.5016V67.4398C34.3211 67.2057 34.088 67.0183 33.8215 66.893C33.555 66.7676 33.2628 66.708 32.9689 66.7189C32.2914 66.7189 31.6416 66.9901 31.1626 67.473C30.6835 67.9558 30.4144 68.6106 30.4144 69.2934C30.4144 69.9762 30.6835 70.6311 31.1626 71.1139C31.6416 71.5967 32.2914 71.868 32.9689 71.868C33.2628 71.8789 33.555 71.8192 33.8215 71.6939C34.088 71.5685 34.3211 71.3811 34.5016 71.1471V71.7444H35.5643V69.3037ZM31.6099 69.3037C31.6268 69.014 31.7275 68.7355 31.8995 68.5027C32.0714 68.2699 32.3072 68.0928 32.5778 67.9933C32.8483 67.8939 33.1418 67.8763 33.4222 67.9428C33.7025 68.0093 33.9574 68.157 34.1555 68.3677C34.3536 68.5783 34.4863 68.8428 34.5371 69.1285C34.588 69.4142 34.5548 69.7087 34.4417 69.9756C34.3287 70.2425 34.1406 70.4703 33.9007 70.6309C33.6608 70.7915 33.3795 70.8778 33.0915 70.8793C32.8884 70.8834 32.6866 70.8448 32.499 70.7661C32.3115 70.6874 32.1422 70.5702 32.0019 70.4221C31.8617 70.2739 31.7535 70.098 31.6842 69.9055C31.615 69.713 31.5862 69.5081 31.5997 69.3037H31.6099Z" fill="black"/>
<path d="M56.5464 29.333H40.4531V58.4819H56.5464V29.333Z" fill="#FF5F00"/>
<path d="M41.4745 43.9094C41.4715 41.1017 42.1025 38.3302 43.3196 35.8047C44.5366 33.2791 46.308 31.0658 48.4994 29.3323C45.786 27.1832 42.5275 25.8468 39.0962 25.4759C35.665 25.1049 32.1993 25.7144 29.0955 27.2346C25.9916 28.7548 23.3747 31.1244 21.5439 34.0726C19.7131 37.0209 18.7422 40.4288 18.7422 43.9068C18.7422 47.3848 19.7131 50.7927 21.5439 53.7409C23.3747 56.6892 25.9916 59.0588 29.0955 60.579C32.1993 62.0992 35.665 62.7087 39.0962 62.3377C42.5275 61.9668 45.786 60.6304 48.4994 58.4812C46.3086 56.7483 44.5377 54.5358 43.3207 52.0112C42.1036 49.4867 41.4723 46.7161 41.4745 43.9094Z" fill="#EB001B"/>
<path d="M78.2599 43.9096C78.2598 47.3879 77.2887 50.796 75.4575 53.7443C73.6264 56.6926 71.0091 59.0622 67.9048 60.5822C64.8006 62.1022 61.3346 62.7113 57.9031 62.3398C54.4717 61.9683 51.2131 60.6312 48.5 58.4814C50.6899 56.7469 52.4603 54.5338 53.6776 52.0091C54.895 49.4844 55.5276 46.714 55.5276 43.907C55.5276 41.0999 54.895 38.3295 53.6776 35.8048C52.4603 33.2801 50.6899 31.067 48.5 29.3325C51.2131 27.1827 54.4717 25.8457 57.9031 25.4742C61.3346 25.1027 64.8006 25.7118 67.9048 27.2318C71.0091 28.7518 73.6264 31.1213 75.4575 34.0697C77.2887 37.018 78.2598 40.4261 78.2599 43.9044V43.9096Z" fill="#F79E1B"/>
<path d="M76.5026 55.3918V54.7945H76.7427V54.6709H76.1348V54.7945H76.3953V55.3918H76.5026ZM77.6828 55.3918V54.6709H77.4989L77.2843 55.1858L77.0697 54.6709H76.9062V55.3918H77.0391V54.8511L77.2383 55.3197H77.3762L77.5755 54.8511V55.3969L77.6828 55.3918Z" fill="#F79E1B"/>
</svg>
