<svg xmlns="http://www.w3.org/2000/svg" width="155" height="51" viewBox="0 0 155 51"><defs><linearGradient id="zmzya" x1="20.77" x2="20.77" y1="9.95" y2="43.81" gradientUnits="userSpaceOnUse"><stop offset="0" stop-color="#2079b0"/><stop offset=".29" stop-color="#4a93b8"/><stop offset=".77" stop-color="#83bebf"/><stop offset="1" stop-color="#97cfbf"/></linearGradient><linearGradient id="zmzyb" x1="12.17" x2="33.99" y1="18.37" y2="18.37" gradientUnits="userSpaceOnUse"><stop offset="0" stop-color="#5abcab"/><stop offset="1" stop-color="#e6e99a"/></linearGradient><linearGradient id="zmzyc" x1="23.08" x2="23.08" y1="26.89" y2="43.95" gradientUnits="userSpaceOnUse"><stop offset="0" stop-color="#e53432"/><stop offset=".17" stop-color="#d73948"/><stop offset=".57" stop-color="#b33f72"/><stop offset=".86" stop-color="#9a4189"/><stop offset="1" stop-color="#904192"/></linearGradient><linearGradient id="zmzyd" x1="35.65" x2="35.65" y1="22.34" y2="31.44" gradientUnits="userSpaceOnUse"><stop offset="0" stop-color="#f18779"/><stop offset=".12" stop-color="#f2917a"/><stop offset=".71" stop-color="#fabc77"/><stop offset="1" stop-color="#fdcb73"/></linearGradient></defs><g><g><g/><g><path d="M154.62 43.576c0 3.735-3.041 6.754-6.804 6.754H7.424C3.661 50.33.62 47.312.62 43.576V7.084C.62 3.35 3.66.33 7.424.33h140.392c3.763 0 6.804 3.019 6.804 6.754v36.492z"/></g><g><g><path fill="url(#zmzya)" d="M12.18 9.95V43.811l17.191-16.915z"/></g><g><path fill="url(#zmzyb)" d="M33.978 22.332l-6.925-3.974L12.18 9.84v.12l17.191 16.945z"/></g><g><path fill="url(#zmzyc)" d="M12.18 43.816v.12l14.873-8.518 6.925-3.975L29.37 26.9z"/></g><g><path fill="url(#zmzyd)" d="M33.986 22.33l-4.606 4.573 4.606 4.542 7.949-4.542z"/></g></g><g><g><path fill="#f9f9f9" d="M120.477 33.501c-.633 0-1.235-.12-1.777-.358a3.22 3.22 0 0 1-1.355-1.106h-.12c.06.568.12 1.106.12 1.644v4.064h-1.505V23.49h1.234l.211 1.345h.06c.392-.538.843-.926 1.355-1.165.512-.24 1.114-.359 1.777-.359 1.324 0 2.318.448 3.04 1.345.723.896 1.084 2.152 1.084 3.766 0 1.613-.361 2.869-1.084 3.765-.752.867-1.776 1.315-3.04 1.315zm-.241-8.936c-1.024 0-1.747.27-2.198.837-.452.568-.693 1.435-.693 2.66v.329c0 1.374.241 2.36.693 2.958.451.598 1.204.897 2.228.897.843 0 1.535-.359 2.017-1.046s.723-1.644.723-2.84c0-1.225-.241-2.18-.723-2.838-.482-.628-1.144-.957-2.047-.957z"/></g><g><path fill="#f9f9f9" d="M128.065 33.327h-1.505V19.34h1.505z"/></g><g><path fill="#f9f9f9" d="M136.704 33.322l-.3-1.405h-.06c-.483.628-.994 1.046-1.476 1.256-.482.209-1.114.328-1.837.328-.993 0-1.746-.239-2.318-.747-.572-.508-.843-1.225-.843-2.152 0-2.002 1.596-3.018 4.817-3.138l1.686-.06v-.597c0-.777-.18-1.345-.512-1.704-.33-.358-.873-.538-1.595-.538-.813 0-1.777.24-2.8.747l-.452-1.135a6.816 6.816 0 0 1 1.596-.628 7.022 7.022 0 0 1 1.746-.239c1.174 0 2.047.269 2.62.777.571.508.842 1.345.842 2.51v6.725zm-3.402-1.046c.934 0 1.656-.27 2.198-.777.542-.508.813-1.225.813-2.152v-.897l-1.505.06c-1.205.03-2.048.24-2.59.568-.542.329-.782.837-.782 1.524 0 .538.15.957.481 1.226.331.299.783.448 1.385.448z"/></g><g><path fill="#f9f9f9" d="M138.7 23.49h1.596l2.167 5.619c.482 1.285.783 2.211.874 2.78h.06c.09-.3.24-.838.481-1.555.241-.747 1.084-3.019 2.47-6.814h1.625l-4.245 11.177c-.422 1.106-.903 1.883-1.475 2.361-.572.479-1.265.688-2.078.688-.451 0-.903-.06-1.355-.15v-1.195c.332.06.693.12 1.114.12 1.024 0 1.777-.568 2.198-1.734l.542-1.405z"/></g></g><g><g><path fill="#f9f9f9" d="M92.628 24.387c.481.389 1.475 1.226 1.475 2.78 0 1.524-.873 2.241-1.746 2.928-.271.27-.572.568-.572 1.017 0 .448.3.687.541.896l.753.568c.903.777 1.746 1.465 1.746 2.899 0 1.943-1.896 3.885-5.45 3.885-3.01 0-4.455-1.434-4.455-2.958 0-.748.361-1.794 1.596-2.511 1.294-.777 3.04-.897 3.974-.956-.301-.359-.632-.747-.632-1.405 0-.359.09-.568.21-.807-.24.03-.451.03-.662.03-2.198 0-3.432-1.614-3.432-3.228 0-.956.421-2.002 1.324-2.75 1.175-.956 2.59-1.135 3.704-1.135h4.275l-1.325.747zm-1.476 9.145c-.18-.03-.27-.03-.481-.03-.181 0-1.295.03-2.168.33-.452.149-1.777.657-1.777 2.121 0 1.465 1.446 2.51 3.643 2.51 1.988 0 3.041-.956 3.041-2.21 0-1.047-.662-1.615-2.258-2.72zm.602-3.915c.482-.478.512-1.135.512-1.494 0-1.494-.903-3.796-2.62-3.796a1.91 1.91 0 0 0-1.444.688c-.362.418-.452.986-.452 1.524 0 1.375.813 3.676 2.59 3.676.541 0 1.083-.269 1.414-.598z"/></g><g><path fill="#f9f9f9" d="M79.568 33.203c-3.282 0-5.058-2.54-5.058-4.842 0-2.69 2.228-4.991 5.36-4.991 3.04 0 4.937 2.361 4.937 4.842.03 2.42-1.867 4.99-5.239 4.99zm2.59-1.674c.511-.657.632-1.494.632-2.271 0-1.823-.874-5.26-3.433-5.26-.692 0-1.355.269-1.866.687-.813.717-.964 1.614-.964 2.51 0 2.033 1.024 5.38 3.523 5.38.813.03 1.626-.389 2.107-1.046z"/></g><g><path fill="#f9f9f9" d="M68.338 33.203c-3.282 0-5.058-2.54-5.058-4.842 0-2.69 2.228-4.991 5.36-4.991 3.04 0 4.937 2.361 4.937 4.842.03 2.42-1.867 4.99-5.239 4.99zm2.59-1.674c.511-.657.632-1.494.632-2.271 0-1.823-.874-5.26-3.433-5.26-.692 0-1.355.269-1.866.687-.813.717-.964 1.614-.964 2.51 0 2.033 1.024 5.38 3.523 5.38.813.03 1.626-.389 2.107-1.046z"/></g><g><path fill="#f9f9f9" d="M61.711 32.876l-2.98.688c-1.205.179-2.289.358-3.433.358-5.75 0-7.948-4.184-7.948-7.471 0-4.005 3.101-7.741 8.4-7.741 1.114 0 2.198.18 3.191.448 1.566.449 2.289.957 2.74 1.285l-1.716 1.644-.722.18.511-.837c-.722-.688-1.987-1.943-4.456-1.943-3.281 0-5.78 2.48-5.78 6.097 0 3.885 2.83 7.531 7.376 7.531 1.325 0 2.017-.269 2.65-.508V29.26l-3.132.18 1.656-.897h4.426l-.542.508c-.15.12-.18.179-.21.329-.03.179-.03.777-.03.986v2.51z"/></g><g><path fill="#f9f9f9" d="M99.226 32.277c-.693-.06-.843-.18-.843-.987V19.605v-.12c.09-.717.3-.836.933-1.225h-2.95l-1.566.747h1.596V31.77c0 .418-.09.478-.572 1.106h3.673l.783-.449c-.362-.06-.693-.09-1.054-.15z"/></g><g><path fill="#f9f9f9" d="M107.687 32.485c-.24.12-.452.27-.692.359-.693.299-1.385.388-2.018.388-.662 0-1.686-.03-2.74-.807-1.475-1.016-2.107-2.779-2.107-4.333 0-3.168 2.62-4.752 4.727-4.752.753 0 1.505.18 2.138.568 1.023.687 1.294 1.554 1.445 2.032l-4.848 1.973-1.595.12c.511 2.6 2.288 4.123 4.275 4.123 1.054 0 1.806-.358 2.529-.717zm-1.927-6.126c.392-.15.602-.27.602-.568 0-.807-.933-1.764-2.047-1.764-.843 0-2.379.628-2.379 2.84 0 .358.03.717.06 1.076z"/></g><g><g><path fill="#f9f9f9" d="M109.702 23.52v1.344h-.18V23.52h-.452v-.149h1.054v.15z"/></g><g><path fill="#f9f9f9" d="M111.534 24.864V23.49l-.422 1.374h-.12l-.421-1.374v1.374h-.151V23.37h.27l.392 1.195.392-1.195h.27v1.494z"/></g></g></g><g><g><path fill="#fcfcfd" d="M50.481 14.674c0-.15-.09-.538-.301-1.195h-1.505c-.211.657-.302 1.046-.302 1.195h-.963c0-.09.24-.777.753-2.062.512-1.285.752-2.002.752-2.122h1.235c0 .12.24.807.692 2.092.422 1.285.663 1.973.663 2.092zm-.482-1.823c-.361-1.106-.542-1.704-.542-1.793h-.06c0 .09-.18.687-.572 1.793z"/></g><g><path fill="#fcfcfd" d="M55.662 14.674h-.813c0-.09-.3-.538-.903-1.405-.632-.896-.963-1.494-1.054-1.823h-.06c.06.478.09.897.09 1.285 0 .538 0 1.166.06 1.943H52.2c.03-.658.06-1.405.06-2.182 0-.777-.03-1.434-.06-2.002h.963c0 .12.271.568.813 1.345.572.837.904 1.404.964 1.703H55c-.06-.478-.09-.896-.09-1.285 0-.568-.03-1.165-.06-1.793h.812a34.69 34.69 0 0 0-.06 2.002c.03.837.03 1.554.06 2.212z"/></g><g><path fill="#fcfcfd" d="M60.353 12.433c0 .597-.21 1.135-.602 1.584-.392.448-.934.687-1.656.687-.331 0-.753 0-1.325-.03.03-.657.03-1.375.03-2.182 0-.777 0-1.434-.03-2.002h1.354c.784 0 1.356.18 1.687.568.361.388.542.837.542 1.375zm-.903.15c0-.42-.12-.748-.362-1.047-.24-.269-.602-.418-1.114-.418-.09 0-.21 0-.391.03.03.418.03.866.03 1.344 0 .508 0 1.017.03 1.525.15.03.271.03.422.03.451 0 .813-.15 1.023-.419.271-.299.362-.628.362-1.046z"/></g><g><path fill="#fcfcfd" d="M63.699 14.674c-.241-.747-.452-1.225-.572-1.405-.12-.179-.362-.269-.633-.269h-.36c0 .538 0 1.106.03 1.674h-.904c.03-.657.03-1.375.03-2.182 0-.777 0-1.434-.03-2.002h1.535c.994 0 1.476.329 1.476 1.016 0 .538-.271.897-.843 1.106v.06c.21.06.421.239.572.508.18.239.391.747.662 1.494zm-.241-2.959c0-.418-.271-.627-.843-.627-.21 0-.392 0-.542.06.03.328.03.777.03 1.285h.301c.723 0 1.054-.24 1.054-.718z"/></g><g><path fill="#fcfcfd" d="M69.295 12.522c0 .657-.211 1.195-.603 1.644a2.01 2.01 0 0 1-1.505.657c-.572 0-1.054-.209-1.415-.598-.391-.388-.572-.896-.572-1.524 0-.657.21-1.195.602-1.643a2.01 2.01 0 0 1 1.506-.658c.572 0 1.053.21 1.415.598.391.388.572.896.572 1.524zm-.874.09c0-.449-.12-.807-.33-1.076-.242-.27-.513-.419-.844-.419-.3 0-.572.15-.813.419-.21.269-.33.627-.33 1.076 0 .448.12.807.36 1.076.241.268.512.418.844.418.3 0 .572-.15.812-.418.181-.3.301-.658.301-1.076z"/></g><g><path fill="#fcfcfd" d="M71.133 14.674h-.903c.03-.657.03-1.405.03-2.182 0-.777 0-1.434-.03-2.002h.903c-.03.538-.03 1.195-.03 2.002 0 .807 0 1.525.03 2.182z"/></g><g><path fill="#fcfcfd" d="M75.833 12.433c0 .597-.21 1.135-.602 1.584-.392.448-.934.687-1.656.687-.331 0-.753 0-1.325-.03.03-.657.03-1.375.03-2.182 0-.777 0-1.434-.03-2.002h1.354c.784 0 1.356.18 1.687.568.361.388.542.837.542 1.375zm-.903.15c0-.42-.12-.748-.362-1.047-.24-.269-.602-.418-1.114-.418-.09 0-.21 0-.391.03.03.418.03.866.03 1.344 0 .508 0 1.017.03 1.525.15.03.271.03.422.03.451 0 .813-.15 1.023-.419.271-.299.362-.628.362-1.046z"/></g><g><path fill="#fcfcfd" d="M81.011 14.674c0-.15-.09-.538-.301-1.195h-1.505c-.211.657-.302 1.046-.302 1.195h-.963c0-.09.24-.777.753-2.062.512-1.285.752-2.002.752-2.122h1.235c0 .12.24.807.692 2.092.452 1.285.663 1.973.663 2.092zm-.452-1.823c-.36-1.106-.542-1.704-.542-1.793h-.06c0 .09-.18.687-.572 1.793z"/></g><g><path fill="#fcfcfd" d="M85.831 11.596c0 .508-.18.896-.572 1.135-.391.24-.843.36-1.415.36h-.21c0 .388 0 .926.03 1.583h-.904c.03-.628.03-1.345.03-2.182 0-.777 0-1.434-.03-2.002h1.626c.421 0 .753.09 1.023.269.271.18.422.448.422.837zm-.843.18c0-.45-.301-.688-.933-.688-.15 0-.301.03-.482.06.03.418.03.866.03 1.374h.18c.814 0 1.205-.269 1.205-.747z"/></g><g><path fill="#fcfcfd" d="M89.68 11.596c0 .508-.18.896-.571 1.135-.391.24-.843.36-1.415.36h-.21c0 .388 0 .926.03 1.583h-.904c.03-.628.03-1.345.03-2.182 0-.777 0-1.434-.03-2.002h1.626c.421 0 .752.09 1.023.269.302.18.422.448.422.837zm-.812.18c0-.45-.301-.688-.933-.688-.15 0-.301.03-.482.06.03.418.03.866.03 1.374h.18c.814 0 1.205-.269 1.205-.747z"/></g><g><path fill="#fcfcfd" d="M96.035 12.522c0 .657-.211 1.195-.603 1.644-.39.448-.903.657-1.505.657-.572 0-1.054-.209-1.415-.598-.391-.388-.572-.896-.572-1.524 0-.657.21-1.195.602-1.643a2.01 2.01 0 0 1 1.506-.658c.572 0 1.053.21 1.415.598.391.388.572.896.572 1.524zm-.904.09c0-.449-.12-.807-.33-1.076-.242-.27-.513-.419-.844-.419-.3 0-.572.15-.813.419-.21.269-.33.627-.33 1.076 0 .448.12.807.36 1.076.241.268.512.418.843.418.302 0 .572-.15.813-.418.211-.3.301-.658.301-1.076z"/></g><g><path fill="#fcfcfd" d="M100.432 14.674h-.813c0-.09-.3-.538-.903-1.405-.632-.896-.963-1.494-1.054-1.823h-.06c.06.478.09.897.09 1.285 0 .538 0 1.166.06 1.943h-.782c.03-.658.06-1.405.06-2.182 0-.777-.03-1.434-.06-2.002h.963c0 .12.271.568.813 1.345.572.837.904 1.404.964 1.703h.06c-.06-.478-.09-.896-.09-1.285 0-.568 0-1.165-.06-1.793h.812a34.69 34.69 0 0 0-.06 2.002c0 .837.03 1.554.06 2.212z"/></g></g></g></g></svg>