<svg width="22" height="23" viewBox="0 0 22 23" fill="none" xmlns="http://www.w3.org/2000/svg">
<path d="M1.3118 22.1111C1.3118 22.6028 1.70261 23 2.18634 23H10.0025V12.5556H1.3118V22.1111ZM11.8609 23H19.677C20.1607 23 20.5516 22.6028 20.5516 22.1111V12.5556H11.8609V23ZM20.9888 5.88889H16.955C17.3267 5.29444 17.5453 4.58889 17.5453 3.83333C17.5453 1.71944 15.8537 0 13.7739 0C12.6425 0 11.6231 0.511111 10.9317 1.31667C10.2402 0.511111 9.22087 0 8.08944 0C6.00969 0 4.31801 1.71944 4.31801 3.83333C4.31801 4.58889 4.53391 5.29444 4.90832 5.88889H0.874534C0.390807 5.88889 0 6.28611 0 6.77778V10.6667H10.0025V5.88889H11.8609V10.6667H21.8634V6.77778C21.8634 6.28611 21.4725 5.88889 20.9888 5.88889ZM10.0025 5.77778H8.08944C7.03453 5.77778 6.1764 4.90556 6.1764 3.83333C6.1764 2.76111 7.03453 1.88889 8.08944 1.88889C9.14435 1.88889 10.0025 2.76111 10.0025 3.83333V5.77778ZM13.7739 5.77778H11.8609V3.83333C11.8609 2.76111 12.719 1.88889 13.7739 1.88889C14.8288 1.88889 15.687 2.76111 15.687 3.83333C15.687 4.90556 14.8288 5.77778 13.7739 5.77778Z" fill="#F65E64"/>
</svg>
