<svg width="99" height="99" viewBox="0 0 99 99" fill="none" xmlns="http://www.w3.org/2000/svg">
<circle cx="49.0936" cy="49.0008" r="48.5008" fill="white" stroke="#E6E8E0"/>
<g clip-path="url(#clip0)">
<path d="M50.0487 44.2531C50.011 47.1666 52.6945 48.7926 54.716 49.7593C56.7929 50.7512 57.4906 51.3872 57.4826 52.2741C57.4668 53.6317 55.8258 54.2307 54.2899 54.2541C51.6104 54.2949 50.0526 53.5442 48.814 52.9762L47.8488 57.4088C49.0914 57.9709 51.3924 58.461 53.7785 58.4824C59.3793 58.4824 63.0437 55.7692 63.0636 51.5623C63.0854 46.2233 55.5384 45.9277 55.59 43.5412C55.6078 42.8177 56.3114 42.0456 57.8532 41.8491C58.6163 41.7499 60.723 41.6741 63.1111 42.7535L64.0485 38.4649C62.7643 38.0059 61.1134 37.5663 59.0582 37.5663C53.7865 37.5663 50.0784 40.3165 50.0487 44.2531ZM73.0561 37.9359C72.0335 37.9359 71.1714 38.5213 70.7869 39.4199L62.7861 58.1673H68.3829L69.4967 55.1468H76.3361L76.9822 58.1673H81.915L77.6104 37.9359H73.0561ZM73.839 43.4012L75.4542 50.9982H71.0306L73.839 43.4012ZM43.2628 37.9359L38.8511 58.1673H44.1843L48.594 37.9359H43.2628ZM35.373 37.9359L29.8218 51.7062L27.5763 39.9975C27.3127 38.6905 26.2723 37.9359 25.1168 37.9359H16.0419L15.915 38.5232C17.778 38.92 19.8946 39.5599 21.1769 40.2445C21.9617 40.6627 22.1857 41.0283 22.4433 42.0222L26.6964 58.1673H32.3328L40.9737 37.9359H35.373Z" fill="url(#paint0_linear)"/>
</g>
<defs>
<linearGradient id="paint0_linear" x1="46.258" y1="58.902" x2="46.8522" y2="37.4202" gradientUnits="userSpaceOnUse">
<stop stop-color="#222357"/>
<stop offset="1" stop-color="#254AA5"/>
</linearGradient>
<clipPath id="clip0">
<rect x="15.915" y="37.5664" width="66" height="21" fill="white"/>
</clipPath>
</defs>
</svg>
