<svg xmlns="http://www.w3.org/2000/svg" width="155" height="52" viewBox="0 0 155 52"><g><g><g/><g><g><path d="M155 44.428c0 3.795-3.06 6.902-6.863 6.902H6.863C3.06 51.33 0 48.223 0 44.428V7.232C0 3.407 3.06.33 6.863.33h141.304c3.773 0 6.863 3.077 6.863 6.902v37.196z"/></g><g><g><path fill="#fff" d="M40.403 34.028c-.832 1.822-1.218 2.659-2.258 4.272-1.486 2.27-3.566 5.08-6.12 5.08-2.288.03-2.883-1.495-5.972-1.495-3.09.03-3.744 1.494-6.032 1.494-2.585-.03-4.575-2.54-6.03-4.81-4.13-6.304-4.547-13.713-2.021-17.657 1.812-2.809 4.664-4.422 7.338-4.422 2.734 0 4.457 1.494 6.715 1.494 2.198 0 3.535-1.494 6.685-1.494 2.377 0 4.902 1.315 6.714 3.555-5.912 3.257-4.961 11.712.98 13.983z"/></g><g><g><path fill="#fff" d="M30.303 13.957c1.159-1.494 2.02-3.556 1.694-5.707-1.872.12-4.07 1.315-5.348 2.898-1.159 1.404-2.11 3.526-1.753 5.557 2.05.06 4.16-1.165 5.407-2.748z"/></g></g></g><g><g><g><path fill="#fff" d="M55.884 20.83l5.942 17.478h-2.793l-1.812-5.378h-5.704l-1.753 5.378H47.06l5.912-17.478zm-2.169 5.318l-1.574 4.66h4.516l-1.605-4.63c-.267-.896-.475-1.703-.683-2.48a41.359 41.359 0 0 1-.654 2.45z"/></g><g><path fill="#fff" d="M73.327 27.192c.98 1.166 1.516 2.78 1.516 4.631 0 2.092-.595 3.855-1.753 5.08-1.04 1.105-2.437 1.702-3.982 1.702-1.485 0-2.792-.567-3.595-1.553v6.274H62.87V29.852c0-1.703-.03-2.899-.089-3.974v-.21h2.407l.118 1.734c.951-1.345 2.407-2.032 4.19-2.032 1.515 0 2.882.627 3.832 1.822zm-7.665 2.928c0 .06-.03.15-.03.21-.06.239-.089.478-.089.657v2.121c0 .359.03.628.09.867.356 1.434 1.604 2.45 3.09 2.45 2.168 0 3.505-1.733 3.505-4.512 0-2.181-1.04-4.362-3.387-4.362-1.486 0-2.793 1.046-3.18 2.57z"/></g><g><path fill="#fff" d="M86.907 27.192c.98 1.166 1.516 2.78 1.516 4.631 0 2.092-.595 3.855-1.753 5.08-1.04 1.105-2.437 1.702-3.982 1.702-1.485 0-2.792-.567-3.595-1.553v6.274H76.45V29.852c0-1.703-.03-2.899-.089-3.974v-.21h2.377l.119 1.734c.95-1.345 2.406-2.032 4.189-2.032 1.515 0 2.882.627 3.862 1.822zm-7.695 2.928c0 .06-.03.15-.03.21-.059.239-.089.478-.089.657v2.121c0 .359.03.628.09.867.356 1.434 1.634 2.45 3.09 2.45 2.168 0 3.505-1.733 3.505-4.512 0-2.181-1.04-4.362-3.387-4.362-1.485 0-2.793 1.046-3.179 2.57z"/></g><g><path fill="#fff" d="M100.009 28.238c-2.466-.956-3.239-1.703-3.239-3.107 0-1.165.921-2.36 3-2.36 1.694 0 2.794.597 3.09.777l.239.149.742-2.21-.148-.09c-.446-.27-1.694-.867-3.833-.867-3.357 0-5.704 2.002-5.704 4.84 0 2.3 1.455 3.914 4.605 5.05 2.228.836 3.06 1.702 3.06 3.166 0 1.673-1.278 2.69-3.357 2.69-1.337 0-2.734-.39-3.803-1.076l-.238-.15-.713 2.27.119.09c.98.658 2.852 1.136 4.456 1.136 4.516 0 6.12-2.779 6.12-5.139.03-2.42-1.247-3.914-4.396-5.169z"/></g><g><path fill="#fff" d="M109.156 22.62l-2.585.807v2.21h-1.901v2.122h1.901v6.483c0 1.554.298 2.66.921 3.346.595.658 1.486 1.016 2.556 1.016.98 0 1.693-.209 2.02-.329l.148-.06-.118-2.12-.238.09a4.35 4.35 0 0 1-1.218.148c-1.01 0-1.456-.657-1.456-2.18v-6.394h3.179v-2.121h-3.179V22.62z"/></g><g><path fill="#fff" d="M123.296 27.163c1.1 1.195 1.664 2.808 1.664 4.69 0 4.631-3.239 6.752-6.24 6.752h-.029c-3.565 0-6.061-2.688-6.061-6.513 0-3.973 2.555-6.722 6.24-6.722 1.752 0 3.267.627 4.426 1.793zm-8.051 4.81c0 2.629 1.455 4.511 3.446 4.511h.03c2.05 0 3.506-1.912 3.506-4.57 0-2.152-1.07-4.482-3.447-4.482-2.436 0-3.506 2.3-3.535 4.54z"/></g><g><path fill="#fff" d="M132.986 25.49l-.148-.03a2.462 2.462 0 0 0-.654-.09c-1.367 0-2.614.807-3.298 2.121l-.089-1.852h-2.347l.03.209c.06 1.046.089 2.21.089 3.794l-.03 8.635h2.644v-6.752c0-.359.03-.717.06-1.016.297-1.614 1.396-2.66 2.763-2.66.267 0 .475.03.713.03l.267.03v-2.42z"/></g><g><path fill="#fff" d="M144.131 31.345c0 .478-.03.837-.089 1.106l-.03.179-8.497-.03c.178 3.436 2.823 3.824 3.952 3.824 1.634 0 2.584-.298 3.297-.597l.209-.09.505 1.972-.149.06c-.802.358-2.169.807-4.16.807-3.773 0-6.209-2.51-6.209-6.394 0-4.034 2.436-6.842 5.942-6.842 3.862 0 5.23 3.227 5.23 6.005zm-8.586-.806h6.001c0-.538-.148-1.674-.891-2.45-.475-.508-1.129-.747-1.931-.747-1.961 0-2.912 1.673-3.18 3.197z"/></g></g><g><g><path fill="#fff" d="M47.06 8.88c.743-.09 1.575-.18 2.525-.18 1.694 0 2.912.359 3.714 1.016.832.687 1.307 1.643 1.307 2.988 0 1.344-.475 2.45-1.307 3.226-.861.777-2.287 1.195-4.04 1.195-.862 0-1.545-.03-2.17-.09V8.88zm1.218 7.349c.297.06.743.06 1.189.06 2.525 0 3.892-1.285 3.892-3.496 0-1.972-1.219-3.197-3.714-3.197-.624 0-1.07.06-1.397.12v6.513z"/></g><g><path fill="#fff" d="M58.83 17.184c-1.754 0-3.15-1.165-3.15-3.047 0-2.002 1.456-3.167 3.268-3.167 1.872 0 3.15 1.225 3.15 3.047 0 2.211-1.694 3.167-3.269 3.167zm.029-.806c1.129 0 1.99-.956 1.99-2.33 0-1.016-.564-2.271-1.96-2.271-1.397 0-2.02 1.165-2.02 2.3.03 1.315.831 2.3 1.99 2.3z"/></g><g><path fill="#fff" d="M63.998 11.12l.89 3.017c.18.658.357 1.285.476 1.913h.03c.148-.598.356-1.225.594-1.883l1.07-3.017h1.01l1.01 2.958c.238.687.446 1.344.594 1.942h.03c.119-.598.297-1.225.505-1.942l.921-2.988h1.189l-2.11 5.945h-1.1l-1.01-2.838a21.592 21.592 0 0 1-.594-1.972h-.03a12.728 12.728 0 0 1-.594 1.972l-1.07 2.809h-1.098L62.72 11.09h1.278z"/></g><g><path fill="#fff" d="M73.51 12.703c0-.628 0-1.106-.06-1.614h1.07l.059.956h.03c.327-.537 1.099-1.105 2.169-1.105.92 0 2.317.478 2.317 2.54v3.555h-1.188v-3.406c0-.956-.387-1.763-1.516-1.763-.772 0-1.396.508-1.604 1.106-.06.149-.09.328-.09.508v3.585H73.51v-4.362z"/></g><g><path fill="#fff" d="M81.02 8.34h1.188v8.724H81.02z"/></g><g><path fill="#fff" d="M86.87 17.184c-1.754 0-3.15-1.165-3.15-3.047 0-2.002 1.456-3.167 3.268-3.167 1.872 0 3.15 1.225 3.15 3.047 0 2.211-1.694 3.167-3.269 3.167zm.029-.806c1.129 0 1.99-.956 1.99-2.33 0-1.016-.564-2.271-1.96-2.271-1.397 0-2.02 1.165-2.02 2.3.03 1.315.831 2.3 1.99 2.3z"/></g><g><path fill="#fff" d="M96.26 15.631c0 .508.03 1.016.089 1.434h-1.07l-.119-.747h-.03c-.356.478-1.069.897-2.02.897-1.337 0-2.02-.837-2.02-1.703 0-1.435 1.396-2.211 3.952-2.211v-.12c0-.478-.149-1.374-1.486-1.374-.624 0-1.248.15-1.723.448l-.268-.717c.535-.299 1.337-.508 2.17-.508 2.02 0 2.495 1.225 2.495 2.42v2.181zm-1.16-1.613c-1.306-.03-2.792.179-2.792 1.344 0 .717.505 1.046 1.1 1.046.861 0 1.426-.478 1.604-.986.03-.12.06-.24.06-.359v-1.045z"/></g><g><path fill="#fff" d="M103.84 8.34v7.17c0 .538 0 1.136.06 1.524h-1.07l-.06-1.045h-.03c-.356.657-1.158 1.165-2.227 1.165-1.575 0-2.823-1.225-2.823-3.018 0-2.002 1.367-3.197 2.941-3.197 1.01 0 1.694.419 1.991.897h.03V8.34zm-1.248 4.72c-.178-.687-.832-1.224-1.723-1.224-1.248 0-1.96.986-1.96 2.27 0 1.225.653 2.211 1.93 2.211.803 0 1.545-.478 1.753-1.285.03-.149.06-.298.06-.478V13.54c0-.15 0-.329-.06-.478z"/></g><g><path fill="#fff" d="M111.39 17.184c-1.754 0-3.15-1.165-3.15-3.047 0-2.002 1.456-3.167 3.268-3.167 1.872 0 3.15 1.225 3.15 3.047 0 2.211-1.694 3.167-3.269 3.167zm.029-.806c1.129 0 1.99-.956 1.99-2.33 0-1.016-.564-2.271-1.96-2.271-1.397 0-2.02 1.165-2.02 2.3 0 1.315.831 2.3 1.99 2.3z"/></g><g><path fill="#fff" d="M116.14 12.703c0-.628 0-1.106-.06-1.614h1.07l.059.956h.03c.327-.537 1.099-1.105 2.169-1.105.92 0 2.317.478 2.317 2.54v3.555h-1.188v-3.406c0-.956-.387-1.763-1.516-1.763-.772 0-1.396.508-1.604 1.106-.06.149-.09.328-.09.508v3.585h-1.188v-4.362z"/></g><g><path fill="#fff" d="M127.999 9.68v1.434h1.723v.837h-1.723v3.196c0 .747.237 1.166.89 1.166.328 0 .506-.03.684-.06l.06.836c-.238.06-.595.15-1.07.15-.564 0-1.01-.18-1.277-.448-.327-.329-.476-.867-.476-1.554v-3.316h-1.01v-.837h1.01V9.98z"/></g><g><path fill="#fff" d="M131.05 8.34h1.188v3.705h.03c.178-.299.476-.598.862-.747.356-.21.772-.299 1.218-.299.891 0 2.288.478 2.288 2.54v3.525h-1.189v-3.436c0-.956-.386-1.763-1.515-1.763-.773 0-1.367.479-1.604 1.076-.06.15-.09.299-.09.508v3.585h-1.188z"/></g><g><path fill="#fff" d="M139.258 14.256c.03 1.464 1.04 2.062 2.229 2.062.861 0 1.396-.15 1.812-.299l.208.747c-.416.18-1.159.388-2.199.388-2.02 0-3.238-1.225-3.238-2.987 0-1.793 1.188-3.227 3.09-3.227 2.14 0 2.704 1.703 2.704 2.808 0 .21 0 .389-.03.508zm3.477-.776c0-.688-.327-1.763-1.635-1.763-1.218 0-1.723 1.016-1.842 1.763z"/></g></g></g></g></g></g></svg>