<svg width="99" height="99" viewBox="0 0 99 99" fill="none" xmlns="http://www.w3.org/2000/svg">
<circle cx="49.0008" cy="49.0008" r="48.5008" fill="white" stroke="#E6E8E0"/>
<path d="M25.8015 40.6825C25.0195 41.6217 23.7682 42.3625 22.5169 42.2567C22.3605 40.9868 22.9731 39.6375 23.69 38.8041C24.472 37.8384 25.8406 37.1506 26.9485 37.0977C27.0788 38.4205 26.5705 39.7168 25.8015 40.6825ZM26.9355 42.508C25.1237 42.4022 23.5727 43.553 22.7125 43.553C21.8392 43.553 20.5228 42.5609 19.089 42.5874C17.2252 42.6138 15.4917 43.6853 14.5402 45.3918C12.5851 48.8046 14.0319 53.8578 15.9218 56.6358C16.8472 58.0115 17.9551 59.5195 19.4149 59.4666C20.7965 59.4137 21.3439 58.5539 23.0122 58.5539C24.6936 58.5539 25.1759 59.4666 26.6357 59.4401C28.1476 59.4137 29.0991 58.0644 30.0245 56.6887C31.0802 55.1277 31.5104 53.6065 31.5364 53.5271C31.5104 53.5007 28.6168 52.3763 28.5908 48.9898C28.5647 46.159 30.8717 44.8097 30.976 44.7303C29.6726 42.7726 27.6393 42.5609 26.9355 42.508ZM37.4017 38.6718V59.2946H40.5559V52.244H44.9223C48.9107 52.244 51.713 49.4661 51.713 45.4447C51.713 41.4233 48.9628 38.6718 45.0266 38.6718H37.4017ZM40.5559 41.3704H44.1924C46.9295 41.3704 48.4936 42.8519 48.4936 45.4579C48.4936 48.0639 46.9295 49.5587 44.1794 49.5587H40.5559V41.3704ZM57.474 59.4534C59.4551 59.4534 61.2929 58.4348 62.1271 56.821H62.1923V59.2946H65.1119V49.0295C65.1119 46.0532 62.7658 44.1351 59.1554 44.1351C55.8056 44.1351 53.3292 46.0796 53.238 48.7517H56.0794C56.314 47.4818 57.474 46.6484 59.0641 46.6484C60.9931 46.6484 62.075 47.5612 62.075 49.2412V50.3788L58.1387 50.6169C54.4762 50.8418 52.495 52.363 52.495 55.0087C52.495 57.6808 54.5414 59.4534 57.474 59.4534ZM58.3212 57.0061C56.6398 57.0061 55.571 56.186 55.571 54.9293C55.571 53.6329 56.6007 52.8789 58.5688 52.7599L62.075 52.535V53.6991C62.075 55.6304 60.4588 57.0061 58.3212 57.0061ZM69.009 64.9034C72.085 64.9034 73.5318 63.7129 74.7961 60.1016L80.3355 44.3335H77.1292L73.4145 56.5167H73.3493L69.6347 44.3335H66.3371L71.681 59.3475L71.3942 60.2603C70.912 61.808 70.1299 62.4033 68.7353 62.4033C68.4877 62.4033 68.0054 62.3768 67.8099 62.3504V64.824C67.9924 64.8769 68.7744 64.9034 69.009 64.9034Z" fill="black"/>
</svg>
