<svg width="23" height="23" viewBox="0 0 23 23" fill="none" xmlns="http://www.w3.org/2000/svg">
<circle cx="11.4414" cy="11.1875" r="10.5" stroke="#F65E64"/>
<path d="M11.5214 6.0755C11.3934 6.19283 11.2441 6.2515 11.0734 6.2515C10.9027 6.2515 10.7534 6.19283 10.6254 6.0755C10.4974 5.9475 10.4334 5.79283 10.4334 5.6115C10.4334 5.44083 10.4974 5.29683 10.6254 5.1795C10.7534 5.0515 10.9027 4.9875 11.0734 4.9875C11.2441 4.9875 11.3934 5.0515 11.5214 5.1795C11.6494 5.29683 11.7134 5.44083 11.7134 5.6115C11.7134 5.79283 11.6494 5.9475 11.5214 6.0755ZM10.6734 16.1875V8.1875H11.4734V16.1875H10.6734Z" fill="#F65E64"/>
</svg>
