<svg width="89" height="89" viewBox="0 0 89 89" fill="none" xmlns="http://www.w3.org/2000/svg">
<circle cx="44.0586" cy="44.5" r="44" fill="url(#paint0_linear)"/>
<g clip-path="url(#clip0)">
<path d="M57.957 30.2068H65.9961C66.8383 30.2068 67.5273 30.9136 67.5273 31.7775V44.0288C67.5273 44.8927 66.8383 45.5995 65.9961 45.5995H51.9086H35.6773H23.1211C22.2789 45.5995 21.5898 44.8927 21.5898 44.0288V31.7775C21.5898 30.9136 22.2789 30.2068 23.1211 30.2068H31.1602" stroke="white" stroke-width="2" stroke-miterlimit="10" stroke-linejoin="round"/>
<path d="M63.6992 50.9398V70.5733C63.6992 71.9084 62.7039 72.9293 61.4023 72.9293H27.7148C26.4133 72.9293 25.418 71.9084 25.418 70.5733V50.9398" stroke="white" stroke-width="2" stroke-linecap="square"/>
<path d="M36.2143 16.0707C34.8361 16.0707 33.5346 16.6204 32.6158 17.6414C31.6971 18.6623 31.1611 19.9188 31.2377 21.3325C31.2377 22.7461 31.7736 24.0026 32.769 24.945C34.1471 26.3586 40.119 28.2435 44.483 29.4215C43.1815 24.945 41.1143 18.8979 39.7361 17.5628C38.7408 16.6204 37.5158 16.0707 36.2143 16.0707Z" stroke="white" stroke-width="2" stroke-miterlimit="10"/>
<path d="M52.9055 16.0707C51.6039 16.0707 50.3789 16.6204 49.3836 17.4843C48.0055 18.8979 45.9383 24.8665 44.6367 29.3429C49.0773 28.1649 54.9727 26.2801 56.3508 24.8665C57.3461 23.9241 57.882 22.589 57.882 21.2539C57.882 19.8403 57.4227 18.5838 56.5039 17.5628C55.5852 16.6204 54.2836 16.0707 52.9055 16.0707Z" stroke="white" stroke-width="2" stroke-miterlimit="10"/>
<path d="M32.3867 35.9398C32.3867 35.9398 38.2055 36.2539 44.7133 29.4214" stroke="white" stroke-width="2" stroke-miterlimit="10"/>
<path d="M56.8852 35.9398C56.8852 35.9398 51.0664 36.2539 44.5586 29.4214" stroke="white" stroke-width="2" stroke-miterlimit="10"/>
</g>
<defs>
<linearGradient id="paint0_linear" x1="64.9913" y1="147.089" x2="-0.806347" y2="129.024" gradientUnits="userSpaceOnUse">
<stop stop-color="#FD9B5C"/>
<stop offset="1" stop-color="#EB5760"/>
</linearGradient>
<clipPath id="clip0">
<rect x="20.0586" y="14.5" width="49" height="60" fill="white"/>
</clipPath>
</defs>
</svg>
