<?xml version="1.0" encoding="UTF-8"?>
<svg width="30px" height="11px" viewBox="0 0 30 11" version="1.1" xmlns="http://www.w3.org/2000/svg" xmlns:xlink="http://www.w3.org/1999/xlink">
    <!-- Generator: Sketch 54.1 (76490) - https://sketchapp.com -->
    <title>Untitled</title>
    <desc>Created with Sketch.</desc>
    <g id="Page-1" stroke="none" stroke-width="1" fill="none" fill-rule="evenodd">
        <g id="icon_link" transform="translate(-4.000000, -13.000000)" fill="#F65E64" fill-rule="nonzero">
            <g id="Group" transform="translate(18.592454, 18.361075) rotate(45.000000) translate(-18.592454, -18.361075) translate(6.092454, 5.861075)">
                <g id="Shape">
                    <path d="M7.234,11.074 C7.36097245,10.9411635 7.53674051,10.8660234 7.7205,10.8660234 C7.90425949,10.8660234 8.08002755,10.9411635 8.207,11.074 C8.34041919,11.2008577 8.41595033,11.376898 8.41595033,11.561 C8.41595033,11.745102 8.34041919,11.9211423 8.207,12.048 L3.303,16.952 C2.65179295,17.6018348 2.28583306,18.484024 2.28583306,19.404 C2.28583306,20.323976 2.65179295,21.2061652 3.303,21.856 C3.95283481,22.5072071 4.83502397,22.8731669 5.755,22.8731669 C6.67497603,22.8731669 7.55716519,22.5072071 8.207,21.856 L13.111,16.952 C13.7622071,16.3021652 14.1281669,15.419976 14.1281669,14.5 C14.1281669,13.580024 13.7622071,12.6978348 13.111,12.048 C12.977845,11.920997 12.9024997,11.745011 12.9024997,11.561 C12.9024997,11.376989 12.977845,11.201003 13.111,11.074 C13.238003,10.940845 13.413989,10.8654997 13.598,10.8654997 C13.782011,10.8654997 13.957997,10.940845 14.085,11.074 C15.0028583,11.9846291 15.5191178,13.2240541 15.5191178,14.517 C15.5191178,15.8099459 15.0028583,17.0493709 14.085,17.96 L9.181,22.864 C8.27037094,23.7818583 7.03094593,24.2981178 5.738,24.2981178 C4.44505407,24.2981178 3.20562906,23.7818583 2.295,22.864 C1.37714168,21.9533709 0.86088217,20.7139459 0.86088217,19.421 C0.86088217,18.1280541 1.37714168,16.8886291 2.295,15.978 L7.234,11.074 Z M16.034,2.204 C16.9446291,1.28614168 18.1840541,0.76988217 19.477,0.76988217 C20.7699459,0.76988217 22.0093709,1.28614168 22.92,2.204 C23.8381664,3.11466801 24.3546219,4.35430795 24.3546219,5.6475 C24.3546219,6.94069205 23.8381664,8.18033199 22.92,9.091 L18.016,13.995 C17.8891423,14.1284192 17.713102,14.2039503 17.529,14.2039503 C17.344898,14.2039503 17.1688577,14.1284192 17.042,13.995 C16.9085808,13.8681423 16.8330497,13.692102 16.8330497,13.508 C16.8330497,13.323898 16.9085808,13.1478577 17.042,13.021 L21.946,8.117 C22.5972071,7.46716519 22.9631669,6.58497603 22.9631669,5.665 C22.9631669,4.74502397 22.5972071,3.86283481 21.946,3.213 C21.2961652,2.56179295 20.413976,2.19583306 19.494,2.19583306 C18.574024,2.19583306 17.6918348,2.56179295 17.042,3.213 L12.138,8.117 C11.4867929,8.76683481 11.1208331,9.64902397 11.1208331,10.569 C11.1208331,11.488976 11.4867929,12.3711652 12.138,13.021 C12.271155,13.148003 12.3465003,13.323989 12.3465003,13.508 C12.3465003,13.692011 12.271155,13.867997 12.138,13.995 C12.0111423,14.1284192 11.835102,14.2039503 11.651,14.2039503 C11.466898,14.2039503 11.2908577,14.1284192 11.164,13.995 C10.2461417,13.0843709 9.72988217,11.8449459 9.72988217,10.552 C9.72988217,9.25905407 10.2461417,8.01962906 11.164,7.109 L16.034,2.204 Z"></path>
                </g>
            </g>
        </g>
    </g>
</svg>