<svg width="99" height="99" viewBox="0 0 99 99" fill="none" xmlns="http://www.w3.org/2000/svg">
<circle cx="49.0027" cy="49.0008" r="48.5008" fill="white" stroke="#E6E8E0"/>
<g clip-path="url(#clip0)">
<path d="M45.0554 51.07V59.5709H42.3965V38.5776H49.4483C50.2901 38.5597 51.127 38.7112 51.9107 39.0231C52.6945 39.335 53.4096 39.8013 54.0147 40.395C54.626 40.9527 55.1124 41.6366 55.4415 42.4008C55.7705 43.1649 55.9344 43.9917 55.9222 44.8255C55.9397 45.6637 55.7783 46.4959 55.4491 47.265C55.1198 48.034 54.6305 48.7218 54.0147 49.2811C52.7816 50.4737 51.2595 51.0695 49.4483 51.0684H45.0554V51.07ZM45.0554 41.1622V48.4905H49.5144C50.0032 48.5052 50.4897 48.4162 50.9427 48.2293C51.3957 48.0424 51.8053 47.7617 52.1452 47.4051C52.4834 47.0716 52.7522 46.6728 52.9357 46.2322C53.1192 45.7915 53.2138 45.3181 53.2138 44.8397C53.2138 44.3614 53.1192 43.8879 52.9357 43.4473C52.7522 43.0067 52.4834 42.6078 52.1452 42.2744C51.8096 41.9103 51.4014 41.6226 50.9479 41.4306C50.4943 41.2386 50.0057 41.1465 49.5144 41.1605H45.0554V41.1622Z" fill="#5F6368"/>
<path d="M62.0498 44.7383C64.0151 44.7383 65.5664 45.2709 66.7037 46.3363C67.841 47.4016 68.4092 48.8622 68.408 50.7182V59.5708H65.8648V57.5775H65.7491C64.6482 59.219 63.1838 60.0398 61.3562 60.0398C59.7961 60.0398 58.4909 59.5708 57.4405 58.6328C56.9364 58.2022 56.5334 57.663 56.2609 57.0545C55.9883 56.446 55.8531 55.7834 55.865 55.1152C55.865 53.6288 56.4188 52.4468 57.5264 51.5691C58.634 50.6914 60.1126 50.2514 61.9623 50.2492C63.5411 50.2492 64.8414 50.5423 65.8631 51.1286V50.5122C65.8661 50.0566 65.7691 49.606 65.5792 49.1932C65.3892 48.7803 65.1111 48.4155 64.7649 48.1252C64.0617 47.4818 63.1454 47.1307 62.1984 47.142C60.7132 47.142 59.5379 47.7774 58.6725 49.0482L56.3307 47.5524C57.6189 45.6763 59.5252 44.7383 62.0498 44.7383ZM58.6098 55.1738C58.608 55.517 58.6871 55.8557 58.8405 56.1616C58.9939 56.4676 59.2171 56.7319 59.4917 56.9326C60.0797 57.4018 60.8096 57.6503 61.5577 57.6361C62.6797 57.6342 63.7552 57.1812 64.5485 56.3765C65.4293 55.5356 65.8697 54.549 65.8697 53.4167C65.0407 52.7467 63.8846 52.4116 62.4016 52.4116C61.3215 52.4116 60.4209 52.6757 59.6997 53.2039C58.9714 53.74 58.6098 54.3915 58.6098 55.1738Z" fill="#5F6368"/>
<path d="M83.0073 45.207L74.1289 65.9022H71.3841L74.6788 58.661L68.8408 45.207H71.7309L75.9505 55.5253H76.0083L80.1122 45.207H83.0073Z" fill="#5F6368"/>
<path d="M34.311 49.2374C34.312 48.4156 34.2435 47.5951 34.1062 46.7852H22.8926V51.43H29.3152C29.1838 52.1719 28.9056 52.8791 28.4975 53.509C28.0893 54.1388 27.5596 54.6784 26.9404 55.095V58.1101H30.7735C33.0179 56.0113 34.311 52.9074 34.311 49.2374Z" fill="#4285F4"/>
<path d="M22.8926 61.0226C26.1014 61.0226 28.8033 59.9539 30.7735 58.1114L26.9404 55.0963C25.8735 55.83 24.4995 56.2487 22.8926 56.2487C19.7911 56.2487 17.1586 54.1281 16.2173 51.2705H12.2686V54.3777C13.2582 56.3752 14.7758 58.0543 16.6518 59.2277C18.5279 60.4011 20.6885 61.0225 22.8926 61.0226Z" fill="#34A853"/>
<path d="M16.2168 51.2705C15.7192 49.7731 15.7192 48.1515 16.2168 46.6541V43.5469H12.2681C11.4355 45.2272 11.002 47.0817 11.002 48.9623C11.002 50.8429 11.4355 52.6974 12.2681 54.3777L16.2168 51.2705Z" fill="#FBBC04"/>
<path d="M22.8926 41.676C24.5883 41.6479 26.2268 42.2978 27.454 43.4851L30.8478 40.0429C28.6958 37.9927 25.8448 36.8672 22.8926 36.9022C20.6885 36.9023 18.5279 37.5237 16.6518 38.6971C14.7758 39.8705 13.2582 41.5496 12.2686 43.547L16.2173 46.6543C17.1586 43.7966 19.7911 41.676 22.8926 41.676Z" fill="#EA4335"/>
</g>
<defs>
<clipPath id="clip0">
<rect x="11.002" y="36.9023" width="72" height="29" fill="white"/>
</clipPath>
</defs>
</svg>
