<svg width="18" height="18" viewBox="0 0 18 18" fill="none" xmlns="http://www.w3.org/2000/svg">
<path d="M7.39111 14.7813C3.29757 14.7813 0 11.6442 0 7.75001C0 3.85577 3.29757 0.71875 7.39111 0.71875C11.4847 0.71875 14.7822 3.85577 14.7822 7.75001C14.7822 11.6442 11.4847 14.7813 7.39111 14.7813ZM7.39111 1.80048C3.92298 1.80048 1.13709 4.45073 1.13709 7.75001C1.13709 11.0493 3.92298 13.6995 7.39111 13.6995C10.8593 13.6995 13.6451 11.0493 13.6451 7.75001C13.6451 4.45073 10.8593 1.80048 7.39111 1.80048Z" fill="#F65E64"/>
<path d="M12.8938 12.2217L17.9993 17.0787L17.1954 17.8434L12.0898 12.9865L12.8938 12.2217Z" fill="#F65E64"/>
</svg>
