<?xml version="1.0" encoding="utf-8"?>
<!-- Generator: Adobe Illustrator 24.0.1, SVG Export Plug-In . SVG Version: 6.00 Build 0)  -->
<svg version="1.1" id="Слой_1" xmlns="http://www.w3.org/2000/svg" xmlns:xlink="http://www.w3.org/1999/xlink" x="0px" y="0px"
	 viewBox="0 0 20 20" style="enable-background:new 0 0 20 20;" xml:space="preserve">
<style type="text/css">
	.st0{fill:none;stroke:#F65E64;}
	.st1{fill:#F65E64;}
</style>
<circle class="st0" cx="10" cy="10" r="9.5"/>
<path class="st1" d="M9.8,4.2c-2.3,0-3.6,1.4-3.6,3.4H8c0-1.3,0.7-1.8,1.9-1.8c1.1,0,1.7,0.7,1.7,1.6c0,0.9-0.5,1.4-1.2,1.9
	c-1.2,0.9-1.6,1.4-1.6,2.7v0.4h1.8V12c0-0.8,0.3-1.1,1-1.6c1.1-0.8,1.9-1.4,1.9-3C13.4,5.6,12.1,4.2,9.8,4.2z M10.6,15.6v-2.1h-2
	v2.1H10.6z"/>
</svg>
