<svg width="25" height="70" viewBox="0 0 25 70" fill="none" xmlns="http://www.w3.org/2000/svg">
<path d="M0.232422 0.751587H20.7324V69.8141L10.2324 64.6891L0.232422 69.8141V0.751587Z" fill="#ACCE23"/>
<path d="M24.9824 4.35558C23.6701 3.24006 20.9829 0.888882 20.7324 0.751587V4.35558H24.9824Z" fill="#9DB14C"/>
<path d="M6.23242 50.8021L13.2324 50.8021L13.2324 51.5021L6.91842 51.5021L6.91842 55.0301L10.2924 55.0301C11.4311 55.0301 12.2198 55.2401 12.6584 55.6601C13.0971 56.0801 13.2884 56.6541 13.2324 57.3821L12.5744 57.3821C12.6211 56.8221 12.4718 56.4068 12.1264 56.1361C11.7811 55.8654 11.1698 55.7301 10.2924 55.7301L6.23242 55.7301L6.23242 50.8021ZM6.23242 43.5281L6.23242 42.7721L13.8764 45.7961C14.5671 46.0668 15.1084 46.4494 15.5004 46.9441C15.9018 47.4388 16.0791 47.9801 16.0324 48.5681L15.3744 48.5681C15.4118 48.1201 15.2811 47.7188 14.9824 47.3641C14.6931 47.0001 14.2778 46.7061 13.7364 46.4821L13.3584 46.3281L6.23242 49.5481L6.23242 48.7921L12.4624 45.9641L6.23242 43.5281ZM6.23242 36.8674L6.23242 36.1534L13.2324 36.1534L13.2324 36.8674L10.4884 36.8674C10.7964 37.4834 10.9504 38.1927 10.9504 38.9954C10.9504 39.8914 10.7451 40.5821 10.3344 41.0674C9.91442 41.5527 9.30776 41.7954 8.51442 41.7954L6.23242 41.7954L6.23242 41.0954L8.51442 41.0954C9.69042 41.0954 10.2784 40.4047 10.2784 39.0234C10.2784 38.2581 10.1291 37.5394 9.83042 36.8674L6.23242 36.8674ZM6.23242 25.4279L6.23242 24.7139L13.2324 24.7139L13.2324 33.9959L6.23242 33.9959L6.23242 33.2959L12.5464 33.2959L12.5464 29.7119L6.23242 29.7119L6.23242 28.9979L12.5464 28.9979L12.5464 25.4279L6.23242 25.4279ZM6.07842 19.4025C6.07842 18.3758 6.44242 17.5452 7.17042 16.9105C7.89842 16.2665 8.76176 15.9445 9.76042 15.9445C9.79776 15.9445 9.85376 15.9492 9.92842 15.9585C10.0031 15.9585 10.0591 15.9585 10.0964 15.9585L10.0964 22.3005C10.8804 22.2165 11.5151 21.9038 12.0004 21.3625C12.4764 20.8118 12.7144 20.1352 12.7144 19.3325C12.7144 18.7725 12.5978 18.2825 12.3644 17.8625C12.1311 17.4425 11.8231 17.1252 11.4404 16.9105L11.8044 16.2945C12.2898 16.5838 12.6771 16.9945 12.9664 17.5265C13.2464 18.0585 13.3864 18.6652 13.3864 19.3465C13.3864 20.4198 13.0458 21.3018 12.3644 21.9925C11.6738 22.6832 10.7964 23.0285 9.73242 23.0285C8.68709 23.0285 7.81909 22.6925 7.12842 22.0205C6.42842 21.3392 6.07842 20.4665 6.07842 19.4025ZM6.75042 19.4025C6.75042 20.1958 6.99776 20.8585 7.49242 21.3905C7.98709 21.9225 8.62642 22.2258 9.41042 22.3005L9.41042 16.6725C8.57976 16.7472 7.93109 17.0458 7.46442 17.5685C6.98842 18.0818 6.75042 18.6932 6.75042 19.4025ZM6.07842 11.1584C6.07842 10.1317 6.44242 9.30102 7.17042 8.66635C7.89842 8.02235 8.76176 7.70035 9.76042 7.70035C9.79776 7.70035 9.85376 7.70502 9.92842 7.71435C10.0031 7.71435 10.0591 7.71435 10.0964 7.71435L10.0964 14.0564C10.8804 13.9724 11.5151 13.6597 12.0004 13.1184C12.4764 12.5677 12.7144 11.891 12.7144 11.0884C12.7144 10.5284 12.5978 10.0384 12.3644 9.61835C12.1311 9.19835 11.8231 8.88102 11.4404 8.66635L11.8044 8.05035C12.2898 8.33969 12.6771 8.75035 12.9664 9.28235C13.2464 9.81435 13.3864 10.421 13.3864 11.1024C13.3864 12.1757 13.0458 13.0577 12.3644 13.7484C11.6738 14.439 10.7964 14.7844 9.73242 14.7844C8.68709 14.7844 7.81909 14.4484 7.12842 13.7764C6.42842 13.095 6.07842 12.2224 6.07842 11.1584ZM6.75042 11.1584C6.75042 11.9517 6.99776 12.6144 7.49242 13.1464C7.98709 13.6784 8.62642 13.9817 9.41042 14.0564L9.41042 8.42835C8.57976 8.50302 7.93109 8.80169 7.46442 9.32435C6.98842 9.83769 6.75042 10.449 6.75042 11.1584Z" fill="white"/>
</svg>
