<svg width="61" height="40" viewBox="0 0 61 40" fill="none" xmlns="http://www.w3.org/2000/svg">
<path fill-rule="evenodd" clip-rule="evenodd" d="M13.5826 39.7983C20.6224 39.7983 26.438 33.8443 26.438 26.48C26.438 19.2724 20.6224 13.3183 13.5826 13.3183C18.0208 3.29041 26.438 0 26.438 0C12.2052 0 0.574219 11.9082 0.574219 26.48C0.574219 33.8443 6.54278 39.7983 13.5826 39.7983ZM47.0473 39.7983C54.7197 39.7983 60.923 33.8443 60.923 26.48C60.923 19.2724 54.7197 13.3183 47.2106 13.3183C51.9446 3.29041 60.923 0 60.923 0C45.7414 0 33.335 11.9082 33.335 26.48C33.335 33.8443 39.3749 39.7983 47.0473 39.7983Z" fill="url(#paint0_linear)"/>
<defs>
<linearGradient id="paint0_linear" x1="45.1038" y1="66.2953" x2="3.74776" y2="49.0778" gradientUnits="userSpaceOnUse">
<stop stop-color="#FD9B5C"/>
<stop offset="1" stop-color="#EB5760"/>
</linearGradient>
</defs>
</svg>
