<svg width="220" height="39" viewBox="0 0 220 39" fill="none" xmlns="http://www.w3.org/2000/svg">
<g clip-path="url(#clip0)">
<path d="M188.482 33.6699V23.7425H176.403V33.6699H172.584V10.691H176.403V20.2019H188.482V10.691H192.3V33.6699H188.482Z" fill="#F65E64"/>
<path d="M214.585 33.6699L205.63 23.8814H201.464C201.464 29.3657 201.464 32.6286 201.534 33.6699H197.715C197.785 31.379 197.785 27.5607 197.785 22.2152C197.785 16.8697 197.785 13.0514 197.715 10.7605H201.534C201.464 12.7043 201.464 15.8978 201.464 20.4102H205.699L214.377 10.7605H219.167L209.17 21.9375L219.931 33.7394H214.585V33.6699Z" fill="#F65E64"/>
<path d="M160.574 26.9359C158.908 29.2268 156.27 30.6153 153.424 30.6153C151.202 30.6153 149.675 29.6434 149.675 27.769C149.675 26.2417 150.855 25.1309 152.938 24.5061C154.534 24.0896 157.034 23.8813 160.574 23.4648V26.9359ZM167.516 29.7822C167.1 30.407 166.614 30.8236 165.989 30.8236C165.017 30.8236 164.392 30.1293 164.392 29.1574V17.8416C164.392 13.4679 160.644 10.2051 155.506 10.2051C152.313 10.2051 149.675 11.2464 148.078 12.9126L150.647 15.4812C151.48 14.4399 153.146 13.6762 155.229 13.6762C158.353 13.6762 160.574 15.62 160.574 18.2581V19.9937C157.034 20.4102 154.534 20.6879 153.076 21.035C148.495 22.0069 145.787 24.4367 145.787 28.1161C145.787 31.7261 148.633 34.0864 153.076 34.0864C156.2 34.0864 158.7 33.4616 160.713 31.1013C161.129 33.1839 163.143 34.0864 165.711 34.0864C167.447 34.0864 168.905 33.3228 170.016 32.0732L167.516 29.7822Z" fill="#F65E64"/>
<path d="M131.347 29.9905C127.043 29.9905 123.572 26.5194 123.572 22.2152C123.572 17.911 127.043 14.4399 131.347 14.4399C135.652 14.4399 139.123 17.911 139.123 22.2152C139.123 26.45 135.652 29.9905 131.347 29.9905ZM131.347 10.6911C128.362 10.6911 125.655 11.8018 123.641 13.6762C124.127 9.51089 127.668 6.24803 131.972 6.24803C134.888 6.10918 137.179 5.76207 138.914 5.20669C140.164 4.79015 141.691 3.95708 142.872 2.7769L140.095 0C139.262 0.763648 138.359 1.24961 137.318 1.73556C136.138 2.22152 134.68 2.29094 131.972 2.42979C125.308 2.42979 119.893 7.84475 119.823 14.5787V22.2152C119.823 28.6021 124.961 33.7393 131.347 33.7393C137.734 33.7393 142.872 28.6021 142.872 22.2152C142.872 15.8283 137.734 10.6911 131.347 10.6911Z" fill="#F65E64"/>
<path d="M17.2168 30.5459V14.1622H9.30262C9.16377 23.9508 8.46955 28.1856 5.62323 30.5459H17.2168ZM20.8268 30.5459H23.9508V38.5989H20.2714V33.8088H3.67939V38.5989H0V30.5459C2.29094 29.9211 3.60997 28.3938 4.37362 26.7971C4.72073 25.964 4.99842 24.8533 5.13727 23.2566C5.5538 20.1325 5.5538 17.1474 5.5538 10.8994H20.8268V30.5459Z" fill="#F65E64"/>
<path d="M68.5893 33.8088V14.2316H59.7726C59.7726 21.7292 59.6338 26.6582 58.5924 29.7128C58.0371 31.379 56.6486 33.5311 54.913 34.7112L52.2056 31.9343C53.7329 30.7542 54.4965 29.6434 55.1213 28.1161C55.6073 26.8665 55.6767 25.2698 55.8155 22.1458C55.8155 19.0218 55.885 15.9672 55.885 10.8299H72.3381V33.8088H68.5893Z" fill="#F65E64"/>
<path d="M30.3376 20.6879H46.3048C46.0965 18.6052 44.9858 16.9391 43.6667 15.6895C39.5014 11.8713 30.5459 14.3011 30.3376 20.6879ZM48.3875 29.7129C46.3048 32.6286 42.7642 34.2947 38.5989 34.2947C31.7955 34.2947 26.6582 29.3657 26.6582 22.3541C26.6582 15.3424 31.5178 10.4134 38.2518 10.4134C44.5692 10.4134 50.0536 14.9259 50.0536 21.7293C50.0536 22.6318 49.9842 23.4648 49.8453 24.2285H30.407C31.1012 28.3938 34.2947 30.893 38.6683 30.893C41.6535 30.893 44.5692 29.4352 45.8188 27.1442L48.3875 29.7129Z" fill="#F65E64"/>
<path d="M103.648 30.4765C99.1355 30.4765 95.5255 26.8665 95.5255 22.354C95.5255 17.8416 99.1355 14.2316 103.648 14.2316C108.16 14.2316 111.77 17.8416 111.77 22.354C111.77 26.8665 108.16 30.4765 103.648 30.4765ZM103.787 10.8299H88.1667C81.7798 10.8299 76.6426 15.9672 76.6426 22.354C76.6426 28.7409 81.7798 33.8782 88.1667 33.8782H103.787C110.174 33.8782 115.311 28.7409 115.311 22.354C115.311 15.9672 110.174 10.8299 103.787 10.8299Z" fill="#F65E64"/>
</g>
<defs>
<clipPath id="clip0">
<rect width="220" height="38.5989" fill="white"/>
</clipPath>
</defs>
</svg>
